{"glyphs":{"0":{"ha":515,"x_min":0,"x_max":0,"o":"m 254 -12 b 429 128 351 -12 390 49 b 446 178 438 143 438 163 l 453 288 l 453 794 b 446 829 453 799 450 822 b 336 974 429 883 399 957 b 265 978 313 978 285 978 l 224 978 b 183 961 207 978 196 969 b 67 665 82 907 74 767 b 63 353 67 619 63 400 l 63 342 b 86 124 67 264 71 197 b 160 11 99 76 125 42 b 224 -12 175 -6 203 -12 z m 207 154 l 207 665 b 211 810 207 689 211 786 b 215 822 211 814 215 822 b 239 844 219 826 235 844 b 265 853 239 844 258 853 l 269 853 b 317 803 297 853 317 826 l 317 579 b 313 283 317 533 313 326 b 308 178 313 268 308 194 b 261 113 308 150 297 113 b 207 154 239 113 211 128 z "},"1":{"ha":532,"x_min":0,"x_max":0,"o":"m 74 6 b 96 -10 74 0 82 -6 b 179 -6 110 -14 157 -3 l 217 -8 b 283 -12 257 -11 268 -12 l 496 -12 b 504 -1 500 -10 501 -3 l 504 100 l 496 107 l 407 111 l 365 113 l 360 131 b 357 233 361 133 357 203 b 365 603 357 357 365 481 l 365 951 b 350 965 361 958 357 965 l 261 969 b 217 960 258 969 218 965 b 171 897 203 947 201 925 l 136 840 b 46 717 110 804 46 717 l 28 688 l 64 650 b 86 631 64 650 76 639 b 143 628 104 619 126 589 b 207 731 150 642 197 704 b 232 731 213 746 232 744 b 224 204 232 536 224 401 l 224 135 b 182 115 224 124 211 115 l 75 115 l 68 111 z "},"2":{"ha":515,"x_min":0,"x_max":0,"o":"m 69 49 b 97 -8 69 32 69 -8 b 117 -4 101 -8 113 -4 l 258 -4 l 360 -1 l 367 -1 l 381 -8 l 408 -8 b 433 -11 413 -8 429 -11 b 450 18 447 -11 450 10 b 454 39 450 25 454 39 l 450 118 l 418 136 l 239 136 b 215 138 236 136 225 138 b 211 181 214 154 211 175 l 211 188 b 288 389 211 244 239 342 b 383 507 321 422 351 471 b 460 664 417 543 451 615 l 460 761 b 351 972 460 854 443 929 b 319 985 343 976 319 985 l 226 985 b 178 969 226 985 190 972 b 118 940 158 961 135 957 b 69 819 86 908 78 864 l 69 656 l 78 649 l 203 649 l 203 807 b 214 840 203 807 210 832 b 258 864 222 860 243 864 b 315 819 279 864 315 844 l 319 729 b 315 675 319 729 315 679 b 226 521 299 615 263 569 b 67 121 104 354 67 319 l 69 121 z "},"3":{"ha":536,"x_min":0,"x_max":0,"o":"m 356 -10 b 392 7 361 -12 379 7 b 472 247 461 53 472 172 b 444 453 472 314 482 394 b 382 514 444 472 382 486 b 425 565 382 519 413 550 b 446 701 449 611 446 646 b 431 888 446 763 442 825 l 422 899 b 324 981 422 925 357 968 b 256 989 324 981 319 983 b 94 808 182 989 86 931 l 94 733 b 101 715 101 726 101 722 b 97 689 101 703 97 696 b 122 674 97 675 110 674 l 158 674 b 181 681 161 674 176 681 l 200 674 l 211 681 l 211 790 b 242 863 211 819 208 856 l 281 851 b 308 818 293 844 304 833 b 313 697 308 799 313 717 l 313 611 b 243 567 313 588 283 569 b 165 564 224 565 171 568 l 168 472 b 178 460 169 474 176 460 l 263 460 b 335 364 297 460 335 426 l 335 161 b 268 114 321 126 308 114 l 257 107 b 192 158 222 107 197 142 l 192 347 l 188 350 l 124 350 b 71 347 108 350 71 347 l 64 343 l 64 204 b 94 76 64 156 75 121 b 257 -10 121 14 192 -10 z "},"4":{"ha":531,"x_min":0,"x_max":0,"o":"m 424 174 l 465 175 b 486 211 494 175 486 182 l 489 268 b 444 289 489 297 474 289 b 418 310 444 289 418 281 l 418 340 b 414 967 414 558 421 749 l 408 975 l 282 975 b 258 932 271 975 261 950 b 74 386 207 764 129 560 b 50 285 60 344 57 308 b 57 175 50 229 46 175 b 272 172 75 175 192 172 b 285 54 296 172 286 86 b 290 0 281 24 290 0 b 421 6 314 0 419 -6 b 419 29 424 7 418 15 b 419 168 418 75 419 122 z m 190 292 b 199 367 175 297 194 356 b 282 658 221 464 258 563 l 289 667 b 283 432 300 638 285 494 b 282 307 278 394 288 353 b 269 292 282 303 276 292 z "},"5":{"ha":536,"x_min":0,"x_max":0,"o":"m 201 826 b 213 838 201 831 208 838 l 438 838 b 449 853 442 838 449 849 l 449 931 b 433 972 449 960 463 972 l 107 969 l 83 953 l 79 747 l 82 546 l 79 481 b 94 469 79 474 88 469 l 207 474 l 219 485 l 219 500 b 268 546 219 524 238 546 b 331 450 303 546 331 513 l 331 161 b 257 107 317 126 308 114 b 213 158 222 107 218 142 l 213 347 l 208 350 l 128 350 b 75 347 113 350 75 347 l 68 343 l 68 204 b 99 76 68 156 79 121 b 257 -10 125 14 192 -10 b 468 247 450 -10 468 113 b 453 579 468 314 486 507 b 296 672 413 650 368 674 b 203 618 263 669 218 643 z "},"6":{"ha":496,"x_min":0,"x_max":0,"o":"m 135 19 l 139 15 b 231 -10 163 -1 193 -10 l 329 -10 b 365 7 335 -12 353 7 b 446 247 435 53 446 172 b 444 415 446 314 444 385 b 374 554 444 474 392 549 b 246 567 310 574 278 579 b 192 538 219 567 201 538 l 192 760 b 247 865 192 804 188 865 b 296 790 293 865 296 824 l 296 681 l 304 674 l 307 674 b 418 689 379 674 418 669 l 424 808 b 421 835 424 808 421 828 b 413 879 417 846 413 879 b 390 925 410 888 394 921 b 339 967 386 932 347 958 b 247 989 313 985 278 989 b 124 940 183 989 168 978 l 119 936 b 64 756 82 883 64 819 l 64 189 b 67 158 64 189 67 167 b 135 19 75 99 90 61 z m 235 110 b 194 174 208 118 197 143 b 193 432 194 215 193 311 b 236 460 193 432 203 460 b 308 378 271 460 308 440 l 308 161 b 242 114 294 126 282 114 z "},"7":{"ha":424,"x_min":0,"x_max":0,"o":"m 201 3 l 218 17 l 260 263 l 332 610 l 383 838 b 389 858 376 851 386 858 l 379 964 l 372 971 b 306 975 372 971 326 975 b 78 972 246 979 142 972 l 49 972 l 42 968 l 42 872 b 72 842 42 850 51 840 l 221 850 b 240 807 250 851 247 835 l 217 671 l 160 426 l 129 268 l 79 49 b 79 1 76 32 51 1 b 126 -4 83 1 122 -4 z "},"8":{"ha":544,"x_min":0,"x_max":0,"o":"m 440 899 b 425 926 440 903 429 922 b 390 961 421 931 397 953 b 347 981 378 972 358 976 b 200 981 274 992 225 985 b 157 961 189 976 169 972 b 83 701 78 910 83 785 b 119 565 83 646 96 611 b 128 553 119 565 128 557 b 143 533 132 550 143 533 b 163 514 151 526 163 526 b 128 481 163 499 136 488 b 100 453 119 472 100 457 b 74 386 89 436 78 406 b 63 247 63 340 63 293 b 143 14 63 172 74 60 b 167 1 147 14 163 6 b 381 1 239 -31 319 -24 b 404 14 386 4 400 14 b 485 247 474 60 485 172 b 474 386 485 293 485 340 b 447 453 469 406 458 436 b 419 481 447 457 428 472 b 385 514 411 488 385 499 b 428 565 385 521 419 557 b 464 701 451 611 464 646 b 449 888 464 763 460 825 z m 336 625 b 332 614 336 621 332 614 b 274 579 318 594 310 579 b 211 697 203 579 211 646 b 215 818 211 717 215 799 b 249 851 219 833 236 846 b 299 851 272 863 299 851 b 336 697 344 824 336 742 z m 194 161 l 194 350 b 197 399 194 361 197 396 b 208 426 197 403 206 419 b 271 446 219 444 251 446 l 278 446 b 353 350 351 438 353 408 l 353 161 b 275 114 339 126 315 114 l 272 114 b 194 161 232 114 194 124 z "},"9":{"ha":496,"x_min":0,"x_max":0,"o":"m 390 40 b 446 221 428 93 446 157 l 446 788 b 443 818 446 788 443 810 b 375 957 435 878 419 915 l 371 961 b 279 986 347 978 317 986 b 68 729 89 992 68 889 l 68 550 b 263 399 68 417 183 375 b 317 428 289 399 307 428 l 318 247 l 318 217 b 247 111 318 172 307 111 b 199 186 201 111 199 153 l 199 296 l 190 303 l 188 303 b 76 288 115 303 76 307 l 71 168 b 74 142 71 168 74 149 b 82 97 78 131 82 97 b 104 51 85 89 100 56 b 156 10 108 44 147 18 b 247 -12 182 -8 217 -12 b 386 36 311 -12 342 -1 z m 201 815 b 268 863 215 850 228 863 l 275 867 b 315 803 301 858 313 833 l 315 533 b 272 506 315 533 306 506 b 200 588 238 506 200 525 z "}," ":{"ha":264,"x_min":0,"x_max":0,"o":""},"!":{"ha":296,"x_min":0,"x_max":0,"o":"m 118 276 l 194 276 l 203 283 b 228 547 203 283 228 519 b 231 785 228 624 231 693 l 231 951 b 215 965 226 958 222 965 l 104 969 b 93 954 100 969 93 958 b 89 532 93 700 89 786 b 107 325 89 486 107 332 l 111 283 z m 88 7 l 97 -1 l 221 -1 l 232 7 b 233 147 232 7 232 67 l 219 156 l 88 156 l 83 140 l 83 57 z "},"\"":{"ha":457,"x_min":0,"x_max":0,"o":"m 275 650 l 351 657 l 360 664 b 385 926 360 664 385 899 l 388 958 b 372 972 383 965 379 972 l 261 969 b 250 954 257 969 250 958 l 251 911 b 264 699 251 865 264 706 l 268 657 z m 97 656 l 174 656 l 182 663 b 207 926 182 663 207 899 l 210 951 b 194 965 206 958 201 965 l 83 969 b 72 954 79 969 72 958 l 68 911 b 86 704 68 865 86 711 l 90 663 z "},"#":{"ha":919,"x_min":0,"x_max":0,"o":"m 721 436 b 840 513 788 436 813 469 b 851 540 847 522 847 532 l 857 600 l 857 878 b 851 896 857 881 856 892 b 776 975 840 925 819 965 b 728 978 761 978 740 978 l 699 978 b 672 968 688 978 681 974 b 592 807 601 939 596 863 b 588 635 592 781 588 663 l 588 631 b 604 511 592 588 594 551 b 656 450 613 485 632 465 b 699 436 665 440 685 436 z m 69 13 b 172 0 101 -4 138 -4 b 199 28 183 0 199 15 b 194 513 197 164 193 375 l 199 517 l 201 517 b 328 26 219 500 318 113 b 336 7 328 22 332 11 b 349 -4 339 3 349 -4 l 497 -1 l 504 6 b 514 675 504 6 514 474 b 514 922 513 758 515 839 l 514 956 b 494 971 510 963 506 971 l 388 969 l 381 961 b 386 613 382 908 386 665 b 390 456 386 597 389 471 b 392 353 390 440 392 368 b 383 349 392 349 388 349 b 372 363 376 347 372 356 b 368 386 372 367 368 382 b 356 431 368 393 360 424 b 258 742 324 538 288 636 b 221 886 247 790 235 836 b 81 971 219 989 153 974 b 65 940 68 971 65 949 b 68 71 67 651 71 358 b 69 43 68 71 69 47 z m 692 589 l 692 779 b 713 850 693 779 688 833 b 728 853 713 850 722 853 l 731 853 b 758 789 758 846 758 815 l 758 744 b 757 629 758 726 757 646 b 756 588 757 624 756 594 b 725 561 756 575 746 561 b 692 589 713 561 694 565 z m 608 274 b 621 260 608 268 614 264 b 667 264 629 256 654 265 l 683 263 b 721 258 706 260 713 258 l 838 258 b 843 268 840 261 840 267 l 843 361 l 838 368 l 789 372 l 765 374 b 668 374 688 383 685 374 l 610 374 l 606 371 z "},"$":{"ha":514,"x_min":0,"x_max":0,"o":"m 233 1 l 233 -61 b 261 -69 232 -78 250 -71 b 268 -49 268 -68 267 -60 l 268 1 l 306 1 b 447 146 382 11 426 69 b 451 160 447 150 451 160 l 451 306 b 436 347 451 306 440 338 b 267 586 404 440 332 518 b 268 839 267 692 267 800 b 289 801 279 833 283 821 b 292 674 292 760 292 715 b 299 663 292 674 294 663 l 407 663 b 411 671 407 663 411 667 b 414 685 411 674 414 682 l 414 729 b 379 914 414 785 417 868 b 349 944 376 917 357 938 b 325 958 346 949 329 958 b 267 969 306 965 286 968 l 267 1011 l 264 1018 l 239 1018 b 233 1006 235 1015 235 1015 l 233 969 b 164 956 208 968 188 964 b 72 840 119 935 86 889 b 69 817 72 838 69 819 b 63 715 63 782 63 750 b 232 404 63 592 151 490 l 232 288 b 233 157 232 281 233 189 l 233 124 b 214 136 225 126 218 131 l 197 160 b 194 206 197 167 194 199 l 194 344 l 190 347 l 69 347 l 67 344 l 67 240 b 69 185 67 233 69 194 b 150 21 76 118 83 49 b 214 1 171 14 194 1 z m 232 624 b 194 747 203 663 194 699 b 233 842 194 792 189 835 b 232 624 233 774 232 704 z m 268 118 l 268 135 b 267 367 268 165 267 258 b 269 365 268 367 268 365 b 319 213 308 324 319 272 b 276 118 319 178 317 129 z "},"%":{"ha":844,"x_min":0,"x_max":0,"o":"m 213 390 b 350 474 289 390 319 426 b 363 503 356 482 356 494 l 368 568 l 368 869 b 363 890 368 871 365 886 b 276 975 350 922 325 965 b 221 978 258 978 236 978 l 189 978 b 157 968 175 978 167 972 b 65 793 78 936 71 853 b 63 607 65 765 63 635 l 63 600 b 81 471 65 554 69 515 b 139 404 90 443 111 422 b 189 390 150 394 172 390 z m 281 17 b 304 -17 274 -12 278 -17 b 329 4 319 -17 324 -8 b 364 129 336 21 361 113 b 536 808 388 215 515 724 b 578 969 542 833 572 946 l 572 976 l 542 976 b 525 964 532 974 531 974 b 369 371 501 872 393 464 b 315 151 354 313 324 183 z m 179 782 b 183 858 179 794 183 846 b 186 865 183 861 186 865 b 201 878 188 867 199 878 b 221 882 201 878 215 882 l 224 882 b 257 854 243 882 257 867 l 257 736 b 254 578 257 711 254 601 b 251 521 254 569 251 529 b 218 486 251 506 243 486 b 179 508 201 486 183 494 z m 478 88 b 483 67 478 86 481 71 b 569 -18 496 35 521 -8 b 625 -21 588 -21 610 -21 l 657 -21 b 689 -11 671 -21 679 -15 b 781 164 768 21 783 104 b 779 418 779 272 782 349 b 657 567 774 521 719 567 l 633 567 b 496 483 557 567 526 531 b 483 454 490 475 490 463 l 478 389 z m 589 103 l 589 221 b 592 379 589 246 592 356 b 594 436 592 388 594 428 b 628 471 594 451 603 471 b 667 449 644 471 663 463 l 667 175 b 663 99 667 163 663 111 b 660 92 663 96 660 92 b 644 79 658 90 647 79 b 625 75 644 79 631 75 l 622 75 b 589 103 603 75 589 90 z "},"&":{"ha":692,"x_min":0,"x_max":0,"o":"m 404 67 b 517 -14 428 38 454 -14 b 650 211 663 -14 649 193 b 638 229 650 218 646 228 l 547 228 b 508 138 517 225 554 138 b 468 181 496 138 479 161 b 554 438 507 279 554 431 l 553 438 b 554 442 554 439 554 440 b 544 450 554 446 551 449 l 456 457 l 451 457 b 438 444 444 457 440 453 b 406 325 432 431 419 378 l 397 324 b 315 501 358 408 315 494 b 456 693 315 532 456 578 b 457 813 456 708 457 792 b 285 986 457 932 367 986 b 83 786 79 986 83 818 b 165 540 83 699 165 553 b 46 372 165 536 56 472 b 40 224 42 325 40 269 b 251 -18 40 68 110 -18 b 394 65 321 -18 344 0 z m 269 619 b 214 808 253 619 214 731 b 272 860 214 842 247 860 b 299 856 288 860 299 856 b 332 814 314 846 329 832 b 332 707 335 792 332 731 b 269 619 332 668 297 619 z m 167 222 l 167 336 b 222 432 167 375 182 413 l 340 176 b 275 114 326 142 306 114 l 272 114 b 167 222 232 114 167 110 z "},"'":{"ha":275,"x_min":0,"x_max":0,"o":"m 97 656 l 174 656 l 182 663 b 207 926 182 663 207 899 l 210 951 b 194 965 206 958 201 965 l 83 969 b 72 954 79 969 72 958 l 68 911 b 86 704 68 865 86 711 l 90 663 z "},"(":{"ha":346,"x_min":0,"x_max":0,"o":"m 176 -65 l 183 -72 l 285 -72 l 293 -65 b 193 463 251 67 193 219 b 304 1021 193 726 275 917 b 289 1035 300 1028 296 1035 l 192 1039 b 181 1024 188 1039 181 1028 b 56 468 138 928 56 726 b 176 -65 56 154 176 -65 z "},")":{"ha":346,"x_min":0,"x_max":0,"o":"m 53 -65 l 61 -72 l 163 -72 l 169 -65 b 290 468 169 -65 290 154 b 165 1024 290 726 208 928 b 154 1039 165 1028 158 1039 l 57 1035 b 42 1021 50 1035 46 1028 b 153 463 71 917 153 726 b 53 -65 153 219 94 67 z "},"*":{"ha":483,"x_min":0,"x_max":0,"o":"m 185 596 l 271 594 l 278 594 b 299 607 285 594 299 594 l 288 707 b 357 653 314 689 351 657 b 368 649 357 653 364 650 b 375 646 371 647 375 646 b 383 649 376 644 383 649 l 435 756 l 333 801 b 415 838 363 819 410 832 b 425 844 415 838 422 842 b 431 849 428 846 431 849 b 432 860 433 851 432 860 l 378 964 l 288 896 l 299 981 b 297 993 299 981 297 989 b 296 1000 296 996 296 1000 b 289 1008 296 1004 289 1008 l 181 1006 l 192 894 b 106 963 160 915 114 956 l 100 958 l 56 875 l 53 869 b 51 843 49 861 42 849 l 143 801 b 46 761 111 782 56 765 l 46 754 l 86 668 l 90 663 b 110 647 94 654 100 640 l 192 708 b 179 600 192 678 181 610 z "},"+":{"ha":483,"x_min":0,"x_max":0,"o":"m 192 301 l 301 304 l 301 454 b 403 456 343 454 393 456 b 414 457 403 456 410 457 b 421 458 417 458 421 458 b 428 465 424 458 428 465 l 425 575 l 301 575 b 303 724 301 622 300 707 l 297 728 l 210 729 l 203 729 b 182 718 196 729 182 729 b 181 575 182 703 181 629 b 61 576 138 575 76 574 l 57 571 l 56 483 l 56 476 b 67 456 56 469 56 456 b 181 454 81 456 135 456 b 182 326 181 403 182 336 b 183 315 182 326 183 319 b 185 308 185 313 185 308 b 192 301 185 306 192 301 z "},",":{"ha":272,"x_min":0,"x_max":0,"o":"m 65 7 l 75 -1 l 122 -1 l 125 -11 l 51 -179 l 60 -194 l 115 -193 l 142 -178 l 210 -14 b 211 147 210 -14 210 67 l 197 156 l 65 156 l 61 140 l 61 57 z "},"-":{"ha":447,"x_min":0,"x_max":0,"o":"m 389 561 b 375 575 389 571 385 575 l 218 575 b 81 576 214 575 101 574 l 76 571 l 75 483 l 75 476 b 86 456 75 469 75 456 b 232 454 108 456 210 454 b 367 456 246 454 351 456 b 378 457 367 456 374 457 b 385 458 381 458 385 458 b 392 465 388 458 392 465 z "},".":{"ha":272,"x_min":0,"x_max":0,"o":"m 65 7 l 75 -1 l 199 -1 l 210 7 b 211 147 210 7 210 67 l 197 156 l 65 156 l 61 140 l 61 57 z "},"/":{"ha":432,"x_min":0,"x_max":0,"o":"m 36 -57 b 110 -65 28 -74 101 -56 b 135 -44 117 -58 128 -56 b 179 129 139 -26 176 113 b 360 860 203 215 336 775 l 397 1021 l 392 1028 l 319 1028 b 303 1015 310 1025 308 1025 b 117 285 279 924 138 378 b 85 151 114 278 93 183 z "},":":{"ha":272,"x_min":0,"x_max":0,"o":"m 69 518 l 199 518 l 210 526 b 210 642 210 526 208 561 l 197 675 l 65 675 l 61 660 l 61 576 l 60 526 z m 65 7 l 75 -1 l 199 -1 l 210 7 b 211 147 210 7 210 67 l 197 156 l 65 156 l 61 140 l 61 57 z "},";":{"ha":272,"x_min":0,"x_max":0,"o":"m 69 518 l 199 518 l 210 526 b 210 642 210 526 208 561 l 197 675 l 65 675 l 61 660 l 61 576 l 60 526 z m 65 7 l 75 -1 l 122 -1 l 125 -11 l 51 -179 l 60 -194 l 115 -193 l 142 -178 l 210 -14 b 211 147 210 -14 210 67 l 197 156 l 65 156 l 61 140 l 61 57 z "},"<":{"ha":483,"x_min":0,"x_max":0,"o":"m 393 217 b 404 213 393 217 400 214 b 411 210 407 213 411 210 b 419 213 413 208 419 213 l 419 322 b 408 343 419 332 415 339 l 160 524 l 411 699 b 422 722 411 699 422 708 l 424 826 b 401 833 424 836 410 839 l 71 593 l 51 567 b 60 458 50 461 50 464 z "},"=":{"ha":483,"x_min":0,"x_max":0,"o":"m 425 700 l 226 700 b 61 701 222 700 82 699 l 57 696 l 56 608 l 56 601 b 67 581 56 594 56 581 b 240 579 89 581 218 579 b 403 581 254 579 388 581 b 414 582 403 581 410 582 b 421 583 417 583 421 583 b 428 590 424 583 428 590 z m 425 450 l 226 450 b 61 451 222 450 82 449 l 57 446 l 56 358 l 56 351 b 67 331 56 344 56 331 b 240 329 89 331 218 329 b 403 331 254 329 388 331 b 414 332 403 331 410 332 b 421 333 417 333 421 333 b 428 340 424 333 428 340 z "},">":{"ha":483,"x_min":0,"x_max":0,"o":"m 72 214 l 403 454 l 422 481 b 414 589 424 586 424 583 l 81 831 b 69 835 81 831 74 833 b 63 838 67 835 63 838 b 54 835 61 839 54 835 l 54 725 b 65 704 54 715 58 708 l 314 524 l 63 349 b 51 325 63 349 51 339 l 50 221 b 72 214 50 211 64 208 z "},"?":{"ha":515,"x_min":0,"x_max":0,"o":"m 174 274 l 279 274 l 288 283 b 286 322 286 299 286 318 l 286 329 b 357 483 286 386 308 436 b 453 664 406 532 451 597 l 453 761 b 344 972 453 854 436 929 b 171 969 292 999 224 983 b 111 940 151 961 128 957 b 63 819 79 908 71 864 l 63 656 l 71 649 l 196 649 l 196 807 b 207 840 196 807 203 832 b 251 864 215 860 236 864 b 308 819 272 864 308 844 l 317 729 b 313 675 317 729 313 679 b 278 600 308 651 293 619 b 161 293 154 443 163 471 z m 153 7 l 163 -1 l 286 -1 l 297 7 b 299 147 297 7 297 67 l 285 156 l 153 156 l 149 140 l 149 57 z "},"@":{"ha":633,"x_min":0,"x_max":0,"o":"m 71 243 b 322 -12 69 96 161 -12 b 514 100 438 -12 492 54 b 506 119 514 100 522 113 l 471 135 b 458 126 465 136 464 135 b 321 47 439 93 400 47 b 135 244 210 47 135 132 l 132 400 b 139 732 132 476 139 706 b 335 922 139 760 156 922 b 501 740 454 922 501 825 b 503 610 501 703 503 617 b 500 340 503 611 500 438 b 478 275 500 289 489 275 b 444 315 460 275 447 286 l 444 651 b 319 815 444 711 426 815 b 190 639 194 815 190 711 b 197 615 190 631 192 621 l 271 615 l 274 618 l 274 675 b 315 736 274 718 281 736 b 351 693 346 736 351 715 l 351 643 b 292 561 351 585 317 568 b 178 413 194 533 178 475 l 178 340 b 285 190 178 274 193 190 b 379 253 340 190 360 222 b 461 196 389 228 421 196 b 564 342 533 196 564 254 l 563 742 b 326 982 563 896 467 982 b 72 733 158 982 76 858 z m 268 408 b 314 492 268 467 283 472 b 343 519 324 497 335 507 l 350 517 l 350 358 b 311 283 350 328 350 283 b 268 332 271 283 268 310 z "},"A":{"ha":501,"x_min":0,"x_max":0,"o":"m 329 975 l 175 975 b 157 932 164 975 157 950 b 57 142 126 661 86 414 b 42 11 51 99 42 54 b 64 4 47 1 57 4 b 133 8 88 4 111 4 b 179 176 178 8 150 138 b 290 172 188 176 250 172 b 317 54 314 172 314 86 b 329 0 317 24 329 0 b 458 11 353 0 458 0 b 454 35 461 13 454 21 b 439 168 447 81 443 122 b 417 340 435 183 419 325 b 336 967 388 558 368 749 z m 321 735 b 314 746 314 735 314 738 b 325 753 314 750 317 753 b 332 750 329 753 332 753 b 321 735 332 742 329 735 z m 194 292 b 188 303 193 292 183 299 b 194 367 188 325 190 344 b 229 658 206 464 217 563 l 236 667 b 271 432 263 654 265 494 b 286 299 271 394 286 344 b 275 283 286 294 282 283 z "},"B":{"ha":501,"x_min":0,"x_max":0,"o":"m 78 -3 l 329 -3 b 342 1 329 -3 338 1 b 365 14 346 6 361 14 b 446 247 435 60 446 172 b 435 386 446 293 446 340 b 408 453 431 406 419 436 b 381 481 408 457 389 472 b 346 514 372 488 346 499 b 365 533 346 526 357 526 b 381 553 365 533 376 550 b 389 565 381 557 389 565 b 419 701 413 611 419 646 b 404 888 419 763 415 825 l 396 899 b 381 926 396 903 385 922 b 346 961 376 931 353 953 b 303 981 333 972 314 976 b 210 989 303 981 303 985 l 69 989 l 67 981 l 67 546 b 74 51 67 413 74 67 z m 199 840 b 236 856 199 860 225 856 b 260 851 244 856 253 860 b 288 818 272 844 283 833 b 292 697 288 799 292 717 l 292 611 b 288 600 292 607 288 600 b 221 565 272 576 253 565 b 199 581 213 565 199 569 z m 206 122 l 206 440 b 213 460 206 444 206 457 l 232 460 b 300 440 249 460 288 460 b 311 413 303 433 311 417 b 314 364 311 410 314 375 l 314 161 b 236 114 300 126 276 114 b 210 118 225 114 221 111 z "},"C":{"ha":481,"x_min":0,"x_max":0,"o":"m 135 19 l 146 13 b 243 -7 179 -3 210 -7 b 408 76 315 -7 379 6 b 439 204 428 121 439 156 l 439 343 l 432 347 b 379 350 432 347 394 350 l 326 350 l 322 347 l 322 158 b 307 132 322 158 311 140 b 256 107 296 118 274 107 b 194 174 214 107 199 136 b 192 729 194 257 192 647 l 192 760 b 247 865 192 804 188 865 b 296 790 293 865 296 824 l 296 660 b 310 646 296 650 300 646 l 374 646 b 411 661 385 646 411 642 b 407 688 411 668 407 675 b 414 706 407 694 407 699 b 403 879 413 761 417 839 b 375 925 400 888 379 921 b 333 967 371 932 342 958 b 247 989 307 985 278 989 b 124 940 183 989 168 978 l 119 936 b 64 756 82 883 64 819 l 64 189 b 67 158 64 189 67 167 b 135 19 75 99 90 61 z "},"D":{"ha":489,"x_min":0,"x_max":0,"o":"m 78 -3 l 103 -3 b 172 1 129 -3 147 -3 l 194 -3 l 199 1 b 272 4 208 1 261 4 b 331 15 290 4 315 8 b 422 181 417 60 422 125 b 424 778 422 282 424 740 b 371 939 424 836 411 894 b 344 961 364 946 356 957 b 272 975 324 972 294 975 l 78 975 b 63 968 74 975 67 972 l 63 663 b 67 579 63 651 67 590 l 67 75 b 69 38 67 72 69 46 b 78 -3 69 26 67 6 z m 190 129 l 190 133 b 194 846 190 176 194 803 b 221 857 199 861 213 857 b 294 807 254 857 290 843 b 297 685 297 758 297 729 b 294 167 297 656 297 196 b 217 111 286 126 258 111 b 190 129 206 111 190 115 z m 160 150 b 153 161 153 150 153 154 b 164 169 153 165 156 169 b 171 165 168 169 171 169 b 160 150 171 158 168 150 z "},"E":{"ha":418,"x_min":0,"x_max":0,"o":"m 67 53 b 96 -4 67 36 67 -4 b 199 18 119 -4 192 7 b 268 0 222 18 208 -6 b 282 3 274 1 282 4 b 300 -4 282 6 293 -1 b 353 -7 319 -4 336 -7 b 375 85 382 -7 375 75 l 375 110 l 367 113 b 208 115 313 113 224 115 b 194 149 194 119 194 142 l 194 443 b 215 457 194 454 208 457 b 314 454 247 457 281 454 b 321 465 318 457 321 461 l 321 560 b 303 569 321 569 311 569 l 206 569 b 190 746 189 569 190 700 b 199 851 190 767 185 814 l 356 851 b 364 863 360 854 361 861 l 364 964 l 356 971 b 74 979 301 978 161 979 l 67 975 z "},"F":{"ha":429,"x_min":0,"x_max":0,"o":"m 78 7 l 85 0 l 206 0 l 206 371 b 201 425 206 378 201 418 l 201 428 b 210 439 201 432 206 436 l 231 439 b 326 436 260 439 293 436 b 344 450 333 436 344 443 l 340 535 l 333 542 l 217 542 b 201 557 210 542 206 553 l 201 789 b 199 840 201 796 199 832 b 210 854 199 847 201 854 l 271 854 b 385 858 289 854 367 858 b 388 879 385 861 388 876 l 388 964 l 381 972 b 85 979 381 972 172 975 l 78 979 b 63 957 67 979 63 972 b 67 622 63 843 63 736 b 78 7 69 439 78 7 z "},"G":{"ha":513,"x_min":0,"x_max":0,"o":"m 346 36 l 350 36 b 382 6 367 36 375 6 l 435 6 b 446 28 446 6 446 21 b 450 351 446 76 450 303 l 450 478 l 442 486 l 438 486 b 367 482 431 486 375 482 l 258 482 b 247 469 254 482 247 478 l 247 390 l 254 382 l 294 382 l 299 378 b 307 347 303 369 307 354 l 307 175 b 247 124 307 144 279 124 b 203 156 232 124 203 136 l 203 807 b 207 819 203 807 207 815 b 271 850 219 846 243 850 b 307 835 283 850 299 846 b 322 811 310 828 322 811 l 322 636 l 331 628 l 435 628 l 435 835 b 422 882 435 839 426 871 b 243 981 393 969 326 981 b 175 967 219 981 199 978 b 64 703 72 910 64 811 l 64 200 b 81 115 64 167 72 144 b 232 6 104 36 151 6 b 335 28 275 6 299 10 z "},"H":{"ha":508,"x_min":0,"x_max":0,"o":"m 69 17 b 175 0 65 0 164 10 b 196 21 182 7 192 10 b 199 129 196 39 199 113 b 203 415 199 172 203 374 b 213 426 203 418 206 426 l 294 426 b 306 411 299 426 306 415 l 306 335 b 301 85 306 250 301 169 l 301 76 b 306 10 301 67 306 21 b 311 0 306 10 308 0 l 428 0 l 432 3 b 435 53 432 3 435 39 l 435 76 b 439 169 435 92 439 156 b 442 693 439 246 442 617 l 442 961 l 435 968 b 338 971 435 968 365 971 l 329 971 b 315 964 326 971 315 968 l 306 606 l 301 560 b 292 550 301 553 294 550 l 263 550 b 210 553 249 550 225 550 l 203 560 b 199 810 203 599 199 771 l 199 964 l 192 971 l 108 971 l 104 968 l 104 954 b 90 940 104 951 90 940 b 79 894 79 925 79 908 b 69 285 76 803 69 378 z m 118 888 b 111 899 111 888 111 890 b 122 906 111 903 114 906 b 129 903 126 906 129 906 b 118 888 129 894 126 888 z "},"I":{"ha":272,"x_min":0,"x_max":0,"o":"m 71 -1 l 78 -8 l 189 -8 l 197 -1 b 200 233 197 -1 200 163 b 208 603 200 357 208 481 l 208 951 b 193 965 204 958 200 965 l 82 969 b 71 954 78 969 71 958 b 67 204 71 700 67 458 l 67 40 z "},"J":{"ha":472,"x_min":0,"x_max":0,"o":"m 342 17 b 410 156 386 58 401 96 b 413 186 410 164 413 186 l 413 692 l 410 807 l 413 896 l 406 951 b 382 976 401 972 403 976 l 357 978 l 315 979 b 285 950 282 979 283 950 l 286 875 l 286 835 b 283 713 286 799 283 757 b 282 171 282 503 282 225 b 221 104 278 133 263 104 b 169 129 203 104 181 115 b 154 344 165 138 154 156 l 143 342 b 128 347 143 342 135 347 l 97 347 b 44 344 82 347 44 344 b 49 318 42 336 42 328 b 38 288 49 318 38 303 l 38 201 b 68 74 38 153 49 118 b 233 -10 97 3 161 -10 b 331 10 267 -10 297 -6 z "},"K":{"ha":508,"x_min":0,"x_max":0,"o":"m 71 4 l 78 -3 l 189 -3 l 197 4 b 200 239 197 4 200 168 b 203 361 200 296 194 333 b 239 272 210 382 239 296 l 307 13 b 310 -1 307 10 310 -1 b 328 -12 314 -8 321 -12 l 447 -12 b 389 242 453 -3 404 168 b 328 497 382 278 335 461 b 333 525 329 507 333 522 b 381 679 344 567 367 633 b 469 967 411 775 433 871 l 469 971 b 460 981 469 974 467 981 l 339 981 l 335 978 l 332 967 b 318 928 332 964 319 931 l 265 746 b 221 629 261 728 239 654 l 208 629 l 208 961 b 193 975 204 968 200 975 l 82 979 b 71 964 78 979 71 968 b 67 210 71 711 67 464 l 67 46 z "},"L":{"ha":425,"x_min":0,"x_max":0,"o":"m 69 14 b 85 0 71 4 75 0 l 385 0 l 385 113 b 374 128 385 117 378 128 l 210 128 b 199 139 206 128 199 135 l 199 826 b 203 931 199 840 203 915 l 203 964 l 190 975 l 78 979 b 63 968 71 979 63 975 l 63 311 b 67 35 63 236 67 42 z "},"M":{"ha":706,"x_min":0,"x_max":0,"o":"m 185 -3 b 200 6 188 -3 196 1 l 200 44 b 188 596 200 228 188 410 l 188 633 l 192 640 b 215 572 215 633 211 592 b 269 232 235 453 254 349 b 304 10 281 160 296 82 l 311 1 l 378 1 b 385 10 378 1 385 6 b 389 32 385 13 389 29 l 393 51 b 401 108 393 56 401 106 b 417 221 404 147 413 183 b 465 596 432 344 450 472 b 469 618 465 599 469 615 b 478 626 469 626 474 626 b 485 622 481 626 485 626 l 489 568 l 489 21 b 500 -3 489 13 493 1 b 613 -7 517 -3 597 -7 l 617 -7 b 636 17 624 -7 636 6 l 636 47 b 628 344 636 147 636 244 l 619 907 l 617 961 b 604 972 617 965 608 972 l 417 972 b 350 564 393 972 374 564 b 339 575 343 564 343 568 b 281 915 319 679 296 810 b 269 972 281 931 276 961 l 261 976 l 153 976 b 85 972 142 976 96 972 b 69 953 72 968 69 965 l 69 942 b 72 826 69 931 72 838 b 81 113 76 588 76 351 l 81 51 b 89 13 81 47 85 21 b 96 1 89 13 92 1 z "},"N":{"ha":590,"x_min":0,"x_max":0,"o":"m 65 21 l 69 10 l 74 6 l 168 6 b 194 33 179 6 194 21 b 199 447 194 169 194 310 l 201 451 l 206 451 b 260 272 217 451 251 288 l 263 264 b 324 29 286 188 304 110 b 332 10 324 25 328 14 b 343 -1 335 6 343 -1 l 503 -1 l 510 6 b 521 675 510 6 517 474 b 525 921 521 758 525 838 l 525 956 b 506 971 521 963 517 971 l 400 971 l 393 963 l 393 614 b 389 447 393 599 389 463 l 389 344 b 381 340 389 340 385 340 b 369 356 374 340 369 349 b 365 379 369 360 365 375 b 354 424 365 386 358 417 b 267 747 324 529 293 640 l 232 890 b 206 975 229 899 210 975 b 93 978 164 975 135 978 b 78 947 81 978 78 956 b 65 79 74 660 74 367 z "},"O":{"ha":514,"x_min":0,"x_max":0,"o":"m 154 10 b 190 -1 165 3 179 6 b 210 -12 194 -1 206 -12 l 283 -12 b 331 3 293 -12 319 -6 b 440 193 393 43 433 121 b 449 275 444 211 449 271 b 451 510 449 297 451 458 l 451 764 b 356 969 440 833 419 925 b 286 988 338 983 304 983 b 246 990 279 988 250 990 l 232 988 b 194 981 225 988 206 983 b 99 865 146 961 114 914 l 96 851 b 78 814 96 847 78 818 b 69 771 78 814 69 782 b 67 738 69 767 67 744 b 63 693 67 726 63 693 l 63 249 b 67 211 63 246 67 219 b 117 50 74 157 81 94 b 150 14 117 50 143 24 z m 199 628 b 201 818 199 657 201 789 b 257 858 206 843 232 858 b 283 854 261 858 275 858 l 304 833 l 308 825 b 315 796 308 822 315 800 b 311 311 315 722 311 385 b 308 197 311 297 308 215 b 261 121 308 161 304 121 l 246 121 b 217 135 246 121 225 132 b 201 157 210 139 201 150 b 199 193 201 161 199 186 z "},"P":{"ha":471,"x_min":0,"x_max":0,"o":"m 82 -3 l 107 -3 b 176 1 133 -3 151 -3 b 192 13 183 1 188 8 b 199 19 192 17 199 19 l 199 414 l 203 417 b 276 421 213 417 265 421 b 335 432 294 421 319 425 b 386 476 353 439 371 461 b 389 483 386 476 389 479 b 397 501 389 486 397 501 b 419 582 404 526 415 556 b 424 615 419 586 424 613 b 426 663 424 619 426 660 b 428 778 431 700 428 740 b 375 939 428 836 415 894 b 349 961 368 946 360 957 b 276 975 328 972 299 975 l 82 975 b 67 968 78 975 71 972 l 67 663 b 71 579 67 651 71 590 l 71 75 b 74 38 71 72 74 46 b 82 -3 74 26 71 6 z m 194 549 b 199 846 194 593 199 803 b 225 857 203 861 217 857 b 299 807 258 857 294 843 b 301 685 301 758 301 729 b 299 582 301 656 301 613 b 221 526 290 542 263 526 b 194 544 210 526 194 531 z "},"Q":{"ha":506,"x_min":0,"x_max":0,"o":"m 210 -10 l 219 -39 l 232 -82 l 257 -167 b 260 -181 257 -169 260 -181 b 278 -192 264 -187 271 -192 l 357 -192 b 379 -161 378 -192 386 -182 l 358 -90 l 344 -56 l 338 -26 l 329 8 b 435 196 388 49 428 125 b 442 278 439 214 442 274 b 446 513 442 300 446 461 l 446 767 b 357 972 435 836 419 928 b 196 983 299 988 247 988 b 63 774 119 954 63 897 b 60 740 63 769 60 747 b 56 696 60 729 56 696 l 56 251 b 60 214 56 249 60 222 b 111 53 67 160 74 97 b 185 1 107 57 165 -11 b 203 -10 189 1 199 -10 z m 239 124 b 192 196 214 125 183 176 l 192 631 b 199 821 192 660 199 792 b 254 861 201 846 228 861 b 281 857 258 861 272 861 l 301 836 l 306 828 b 310 767 306 825 310 769 b 306 314 310 693 306 388 b 303 200 306 300 303 218 b 254 124 303 164 299 124 z "},"R":{"ha":522,"x_min":0,"x_max":0,"o":"m 208 415 b 204 440 208 418 204 436 b 219 454 204 450 208 454 b 307 386 238 454 307 449 b 314 131 307 360 314 233 b 328 0 314 90 313 39 l 447 0 b 474 8 456 0 472 -4 b 463 56 474 25 465 40 b 451 299 451 103 451 197 b 444 400 451 301 444 397 b 392 479 438 447 413 468 b 365 501 374 490 365 479 b 413 546 365 510 401 532 b 451 746 449 589 451 696 b 372 964 451 825 444 915 b 88 982 344 982 190 983 b 64 953 68 982 61 978 b 67 14 64 783 67 349 b 86 3 68 6 78 3 b 100 4 92 3 96 4 b 179 0 107 4 172 0 b 208 4 178 1 208 -3 z m 213 556 b 208 799 213 592 208 764 b 222 858 208 807 203 858 b 310 807 264 858 300 847 b 307 596 310 701 307 667 b 231 549 296 560 264 549 b 213 556 222 549 215 549 z "},"S":{"ha":489,"x_min":0,"x_max":0,"o":"m 292 1 b 433 146 368 11 413 69 b 438 160 433 150 438 160 l 438 306 b 422 347 438 306 426 338 b 228 624 386 453 299 549 b 181 757 190 667 181 704 b 233 853 181 806 175 853 b 275 811 263 853 268 840 b 278 683 278 769 278 725 b 285 672 278 683 281 672 l 393 672 b 397 681 393 672 397 676 b 400 694 397 683 400 692 l 400 739 b 365 924 400 794 403 878 b 335 954 363 926 343 947 b 311 968 332 958 315 968 b 228 979 285 979 258 979 b 150 965 200 979 176 975 b 58 850 106 944 72 899 b 56 826 58 847 56 829 b 49 725 49 792 49 760 b 256 365 49 582 168 460 b 306 213 294 324 306 272 b 263 118 306 178 303 129 l 256 118 b 200 136 238 118 211 122 l 183 160 b 181 206 183 167 181 199 l 181 344 l 176 347 l 56 347 l 53 344 l 53 240 b 56 185 53 233 56 194 b 136 21 63 118 69 49 b 200 1 157 14 181 1 z "},"T":{"ha":472,"x_min":0,"x_max":0,"o":"m 286 -6 l 297 4 b 304 407 297 43 304 232 b 300 832 304 453 300 814 b 311 846 304 839 304 846 b 413 842 343 846 371 842 b 424 961 428 874 422 911 l 419 965 b 56 972 365 972 203 972 b 49 961 51 968 49 965 l 49 867 b 63 850 49 864 56 850 l 171 850 b 178 821 179 836 178 836 b 168 8 178 551 168 278 b 178 -6 168 4 175 -6 z "},"U":{"ha":510,"x_min":0,"x_max":0,"o":"m 436 135 l 439 146 b 443 165 439 150 443 161 b 447 326 443 189 447 304 l 447 613 b 443 676 443 638 443 650 b 451 722 443 692 451 707 b 447 919 451 792 447 851 l 443 928 b 421 954 439 931 424 950 b 394 981 408 969 417 981 b 375 974 386 981 382 981 l 329 974 l 322 969 l 318 965 l 311 135 b 303 119 311 135 307 124 b 242 97 288 101 265 97 b 207 124 226 97 215 113 b 203 135 207 124 203 131 b 196 161 200 143 196 161 l 196 976 l 185 981 l 150 976 b 135 965 146 969 142 965 b 119 976 128 965 124 969 l 67 976 l 63 974 b 60 851 63 974 60 885 l 60 563 b 63 543 60 558 63 547 b 60 517 63 540 60 521 l 60 497 b 63 451 60 482 63 467 l 63 447 b 60 390 63 444 60 394 l 60 239 b 67 108 60 219 67 128 b 261 -17 96 -6 165 -17 b 436 117 361 -17 410 40 z "},"V":{"ha":469,"x_min":0,"x_max":0,"o":"m 144 7 l 151 -1 b 246 -4 151 -1 215 -4 l 289 -4 b 304 28 300 -4 304 21 b 307 54 304 32 307 50 b 311 72 307 54 311 69 b 318 133 311 81 318 126 b 363 426 329 233 347 328 b 424 918 385 590 403 754 b 428 951 424 925 428 951 b 417 969 428 958 428 969 l 325 969 b 318 958 322 969 318 958 b 315 944 318 958 315 947 b 311 922 315 940 311 925 b 307 903 311 922 307 907 b 304 868 307 900 304 871 b 297 824 304 864 297 828 b 293 783 297 821 293 786 b 289 754 293 779 289 758 b 257 514 279 674 268 594 b 253 469 257 510 253 474 b 250 460 253 467 250 460 l 246 460 b 231 485 235 460 231 478 b 226 510 231 488 226 506 b 224 561 226 514 224 557 b 206 685 224 572 206 674 b 179 896 201 700 188 850 b 176 933 179 900 176 929 b 154 974 176 947 176 974 l 44 974 l 42 969 l 42 956 b 49 864 42 922 44 893 b 74 631 56 786 63 707 l 118 251 b 144 7 129 171 140 90 z "},"W":{"ha":743,"x_min":0,"x_max":0,"o":"m 143 8 l 150 0 b 244 -3 150 0 215 -3 l 299 -3 b 314 29 310 -3 314 22 b 317 56 314 33 317 51 b 321 74 317 56 321 71 b 328 135 321 82 328 128 b 368 554 339 235 354 456 b 386 544 369 567 379 578 l 401 253 b 431 3 413 172 426 86 l 438 -6 b 518 -3 438 -6 489 -3 l 563 -3 b 578 29 574 -3 578 22 b 581 56 578 33 581 51 b 585 74 581 56 585 71 b 592 135 585 82 592 128 b 635 428 603 235 621 329 b 697 919 657 592 675 756 b 701 953 697 926 701 953 b 690 971 701 960 701 971 l 599 971 b 592 960 596 971 592 960 b 589 946 592 960 589 949 b 585 924 589 942 585 926 b 581 904 585 924 581 908 b 578 869 581 901 578 872 b 571 825 578 865 571 829 b 567 785 571 822 567 788 b 563 756 567 781 563 760 b 522 431 551 675 533 510 b 518 386 522 426 518 390 b 514 375 518 382 514 375 l 511 375 b 496 401 499 375 496 393 b 492 426 496 404 492 422 b 489 476 492 431 489 474 b 476 686 489 488 476 675 b 453 897 472 701 461 851 b 450 935 453 901 450 931 b 428 975 450 949 450 975 l 318 975 l 315 971 l 315 943 b 311 924 314 938 311 926 b 307 904 311 924 307 908 b 304 869 307 901 304 872 b 296 825 304 865 296 829 b 293 785 296 822 293 788 b 289 756 293 781 289 760 b 253 425 278 675 264 506 b 249 381 253 421 249 385 b 246 371 249 378 246 371 l 242 371 b 228 396 231 371 228 389 b 224 421 228 399 224 417 b 206 686 224 518 211 583 b 179 897 204 701 188 851 b 176 935 179 901 176 931 b 154 975 176 949 176 975 l 44 975 l 42 971 l 42 957 b 49 865 42 924 44 894 b 74 632 56 788 63 708 b 117 253 89 504 103 379 b 143 8 128 172 139 92 z "},"X":{"ha":486,"x_min":0,"x_max":0,"o":"m 57 -1 b 68 -11 57 -4 61 -11 l 178 -11 l 181 -8 l 185 3 b 189 42 185 6 189 39 l 229 268 b 242 349 233 292 233 324 b 249 363 242 351 244 363 b 258 344 258 363 258 349 b 261 324 258 342 261 328 b 313 14 282 225 290 113 b 315 -1 313 10 315 -1 b 333 -11 319 -8 326 -11 l 443 -11 b 399 242 449 -1 399 242 b 333 497 392 278 340 463 b 339 525 335 508 339 524 b 378 667 354 603 364 589 b 435 961 396 767 414 864 l 435 965 b 425 976 435 969 432 976 l 315 976 l 311 972 l 308 961 b 304 924 308 958 304 926 l 272 713 b 261 632 268 689 268 657 b 254 618 261 629 258 618 b 244 636 244 618 244 632 b 242 657 244 639 242 653 b 181 951 219 756 201 853 b 178 965 181 954 178 965 b 158 976 174 972 165 976 l 50 976 l 42 972 l 42 961 b 53 888 42 938 50 913 b 103 718 64 831 90 775 b 158 472 110 682 151 508 b 153 444 157 463 153 447 b 57 3 128 304 74 149 z "},"Y":{"ha":476,"x_min":0,"x_max":0,"o":"m 188 15 b 192 1 188 13 192 1 l 199 -3 l 304 -3 l 311 4 l 311 271 b 318 324 311 271 315 308 b 332 397 322 347 329 372 b 339 432 332 401 339 429 b 378 665 353 511 364 588 b 435 960 396 765 413 863 l 435 964 b 424 975 435 968 432 975 l 315 975 l 311 971 l 307 960 b 304 922 307 957 304 925 b 272 711 293 851 282 782 b 261 631 268 688 268 656 b 254 617 261 628 258 617 b 243 635 243 617 243 631 b 240 656 243 638 240 651 b 179 950 219 754 201 851 b 176 964 179 953 176 964 b 158 975 172 971 165 975 l 49 975 l 42 971 l 42 960 b 53 886 42 936 49 911 b 89 718 64 829 78 775 l 158 381 b 179 274 165 344 176 308 l 179 221 b 183 97 179 203 183 118 b 188 24 183 90 188 31 z "},"Z":{"ha":418,"x_min":0,"x_max":0,"o":"m 56 49 b 83 -8 56 32 56 -8 b 103 -4 88 -8 99 -4 l 257 -4 l 268 -1 l 275 -1 l 289 -8 l 317 -8 b 342 -11 321 -8 338 -11 b 358 18 356 -11 358 10 b 363 39 358 25 363 39 l 363 106 l 356 108 l 232 108 b 196 111 229 108 204 111 l 356 838 b 361 858 349 851 358 858 l 351 964 l 344 971 b 278 975 344 971 299 975 b 92 979 218 979 156 979 l 63 979 l 56 975 l 56 885 b 86 854 56 863 65 854 l 232 853 l 56 122 z "},"[":{"ha":447,"x_min":0,"x_max":0,"o":"m 97 -106 l 97 -112 b 108 -133 97 -119 97 -133 b 254 -135 131 -133 232 -135 b 347 -137 268 -135 332 -137 l 358 -137 b 365 -136 361 -136 365 -136 b 372 -129 368 -136 372 -129 l 369 -14 l 242 -17 b 231 -7 238 -17 231 -10 l 231 18 b 229 39 231 21 229 39 b 239 988 239 256 221 840 b 261 1001 243 997 250 1001 b 344 1000 303 1003 301 1000 l 358 1000 l 365 1007 b 367 1075 365 1007 367 1054 l 367 1082 b 363 1111 367 1090 363 1111 l 356 1114 b 157 1115 356 1114 228 1118 l 110 1115 l 103 1108 l 103 1083 b 101 586 104 1049 101 621 b 97 -106 101 403 100 79 z "},"\\":{"ha":432,"x_min":0,"x_max":0,"o":"m 340 151 b 308 285 332 183 311 278 b 122 1015 288 378 146 924 b 106 1028 117 1025 115 1025 l 33 1028 l 28 1021 l 65 860 b 246 129 89 775 222 215 b 290 -44 249 113 286 -26 b 315 -65 297 -56 308 -58 b 389 -57 324 -56 397 -74 z "},"]":{"ha":447,"x_min":0,"x_max":0,"o":"m 82 -26 b 81 -94 82 -26 81 -74 l 81 -101 b 85 -131 81 -110 85 -131 l 92 -133 b 290 -135 92 -133 219 -137 l 338 -135 l 344 -128 l 344 -103 b 346 394 343 -68 346 360 b 350 1086 346 578 347 901 l 350 1093 b 339 1114 350 1100 350 1114 b 193 1115 317 1114 215 1115 b 100 1118 179 1115 115 1118 l 89 1118 b 82 1117 86 1117 82 1117 b 75 1110 79 1117 75 1110 l 78 994 l 206 997 b 217 988 210 997 217 990 l 217 963 b 218 942 217 960 218 942 b 208 -7 208 725 226 140 b 186 -21 204 -17 197 -21 b 103 -19 144 -22 146 -19 l 89 -19 z "},"^":{"ha":574,"x_min":0,"x_max":0,"o":"m 60 675 l 169 675 b 190 686 179 675 186 679 l 288 865 l 379 683 b 403 672 379 683 389 672 l 507 671 b 514 693 517 671 519 685 l 357 954 l 331 974 b 222 965 225 975 228 975 l 64 701 b 60 690 64 701 61 694 b 57 683 60 688 57 683 b 60 675 56 682 60 675 z "},"_":{"ha":447,"x_min":0,"x_max":0,"o":"m 39 -21 l 38 -94 l 38 -101 b 49 -122 38 -108 38 -122 b 232 -124 71 -122 210 -124 b 381 -122 246 -124 365 -122 b 392 -121 381 -122 388 -121 b 399 -119 394 -119 399 -119 b 406 -112 401 -119 406 -112 l 403 -17 l 218 -17 b 43 -15 214 -17 64 -18 z "},"`":{"ha":428,"x_min":0,"x_max":0,"o":"m 229 950 l 315 947 l 322 957 l 257 1165 b 242 1175 251 1172 250 1172 l 160 1175 l 154 1169 l 190 1042 l 218 961 z "},"a":{"ha":508,"x_min":0,"x_max":0,"o":"m 144 -3 b 189 161 182 -3 161 161 l 308 161 b 328 31 315 156 328 60 b 342 -7 328 18 328 -7 l 463 -7 l 467 -3 b 456 94 467 31 458 61 b 410 439 453 114 421 314 b 406 461 410 442 406 457 l 383 644 b 365 761 378 682 368 724 b 331 969 354 831 351 901 b 185 971 281 974 231 971 b 156 806 179 963 156 840 b 136 717 151 776 139 746 b 107 506 129 644 114 576 b 51 61 83 358 71 208 b 43 19 51 57 43 24 b 47 1 43 15 40 1 b 133 -3 58 1 122 -3 z m 200 278 b 193 293 196 279 190 285 b 204 371 193 318 200 344 b 238 631 215 457 236 536 b 249 642 238 633 242 642 b 282 411 261 642 281 410 b 293 282 282 290 300 300 l 290 278 z "},"b":{"ha":507,"x_min":0,"x_max":0,"o":"m 90 -8 l 343 -6 b 354 0 343 -6 350 -1 b 378 13 358 4 374 13 b 454 246 446 60 456 172 b 442 386 453 293 453 340 b 413 453 436 406 424 436 b 385 479 413 457 393 471 b 350 513 376 486 350 499 b 368 532 349 525 360 525 b 383 551 368 532 379 549 b 392 564 383 556 392 564 b 419 701 414 611 419 646 b 400 886 418 763 413 825 l 393 897 b 378 925 393 901 382 921 b 342 960 372 929 349 953 b 299 979 329 971 310 975 b 204 985 299 979 299 982 l 64 982 l 63 975 b 65 803 63 967 64 846 b 69 539 67 746 69 563 b 85 46 71 407 85 61 z m 196 836 b 235 853 196 856 224 851 b 258 849 243 853 250 857 b 285 814 269 842 281 829 b 292 694 286 794 292 714 l 292 651 b 293 610 292 644 293 618 b 289 597 293 606 289 597 b 224 561 275 574 256 563 b 201 576 217 561 201 565 z m 217 118 l 211 436 b 218 456 211 440 211 453 b 238 457 222 456 235 457 b 304 438 254 457 292 457 b 315 411 307 431 315 415 b 321 361 315 408 321 372 b 322 260 321 357 322 288 b 325 158 322 244 324 175 b 247 111 310 124 288 111 b 219 114 236 111 232 107 z "},"c":{"ha":494,"x_min":0,"x_max":0,"o":"m 307 -14 b 378 17 329 -7 360 -3 b 450 256 443 81 450 168 l 450 308 b 435 347 447 317 439 347 b 344 350 419 347 360 350 l 336 350 b 325 347 333 350 325 350 l 325 149 b 311 126 325 149 314 133 l 307 122 b 257 104 292 115 276 104 b 204 149 235 104 208 126 b 200 201 204 157 200 194 l 200 225 b 204 794 200 415 204 604 b 250 863 204 829 211 863 b 276 858 257 863 268 863 b 299 829 288 851 299 843 b 303 765 299 821 303 776 l 303 674 l 307 669 l 417 669 l 419 674 b 424 750 428 696 424 726 b 382 931 424 810 424 885 b 311 985 360 954 340 974 b 299 989 307 985 299 989 b 154 961 247 993 207 997 b 67 753 86 913 71 832 b 63 631 67 738 63 650 l 63 206 b 169 -3 67 122 82 32 b 208 -14 178 -7 204 -14 z "},"d":{"ha":489,"x_min":0,"x_max":0,"o":"m 63 1 b 78 -6 67 -3 74 -6 l 272 -6 b 344 8 294 -6 324 -3 b 371 31 356 13 364 24 b 424 192 411 75 424 133 b 422 722 424 229 425 685 b 418 771 422 725 418 767 b 414 803 418 774 414 800 b 404 883 411 829 411 858 b 385 901 404 883 385 899 b 382 910 385 906 382 910 b 331 954 367 925 349 947 b 272 965 315 961 290 965 b 199 968 261 965 208 968 l 194 972 l 172 968 b 103 972 147 972 129 972 l 78 972 b 69 932 67 964 69 943 b 67 894 69 924 67 899 l 67 392 b 63 307 67 381 63 318 z m 190 840 b 217 858 190 854 206 858 b 294 803 258 858 286 843 b 297 285 297 774 297 314 b 294 163 297 240 297 211 b 221 113 290 126 254 113 b 194 124 213 113 199 108 b 190 836 194 167 190 793 z "},"e":{"ha":421,"x_min":0,"x_max":0,"o":"m 63 26 b 74 6 63 19 63 6 b 219 4 96 6 197 4 b 354 -1 233 4 339 -1 l 365 -1 b 372 0 368 0 372 0 b 379 7 375 0 379 7 l 376 125 l 207 122 b 196 132 203 122 196 129 l 196 157 b 194 178 196 160 194 178 b 199 392 194 217 199 367 b 201 433 197 399 201 426 b 231 444 208 444 215 444 b 304 442 254 444 279 442 b 328 453 311 443 329 443 b 332 503 328 460 332 496 b 331 532 332 503 331 524 l 331 556 b 317 567 328 567 324 567 b 228 561 288 565 257 561 b 199 572 217 561 207 561 l 199 603 b 204 849 197 678 203 771 b 226 863 208 858 215 863 b 351 861 268 864 308 861 l 365 861 l 372 868 b 374 936 372 868 374 915 l 374 943 b 369 972 374 951 369 972 l 363 975 b 122 976 363 975 193 979 l 75 976 l 68 969 l 68 944 b 67 586 69 910 67 621 b 63 33 67 403 65 218 z "},"f":{"ha":442,"x_min":0,"x_max":0,"o":"m 186 -1 b 199 46 203 -1 199 28 b 207 426 199 258 206 383 l 210 433 l 349 433 l 349 536 l 218 536 b 207 556 207 536 207 547 b 214 847 207 588 214 824 l 218 856 l 400 856 l 407 863 l 407 967 l 400 974 l 83 974 l 79 971 b 75 685 79 926 75 729 b 74 621 75 665 74 643 b 60 15 76 538 60 78 b 68 -1 60 11 64 -1 z "},"g":{"ha":518,"x_min":0,"x_max":0,"o":"m 344 31 l 349 29 b 381 -1 364 29 372 -1 l 432 -3 b 443 21 443 -3 443 13 b 453 343 444 68 453 294 b 454 407 453 347 453 390 b 456 469 454 414 456 461 l 447 478 l 443 478 b 372 475 436 478 381 475 b 265 476 356 475 281 476 b 253 464 261 476 253 472 l 250 385 l 258 378 l 299 376 l 303 372 b 311 340 307 364 311 349 l 307 169 b 247 118 307 138 279 118 b 203 151 232 118 203 132 l 214 806 b 219 818 214 806 218 814 b 283 849 232 846 254 849 b 322 831 296 847 314 843 b 338 808 326 824 338 808 l 335 622 l 343 614 l 442 613 l 446 829 b 435 876 446 833 439 865 b 257 979 408 965 340 978 b 190 965 233 981 213 976 b 74 694 85 911 75 801 l 65 197 b 81 114 64 165 72 142 b 229 -6 101 35 149 -6 b 333 22 274 -7 296 3 z "},"h":{"ha":500,"x_min":0,"x_max":0,"o":"m 63 10 l 69 3 b 168 0 69 3 140 0 l 175 0 b 189 7 179 0 189 3 l 200 367 l 204 411 b 214 422 204 418 211 422 l 242 422 b 294 418 257 422 281 422 l 301 411 b 306 161 301 374 306 201 l 306 7 l 313 0 l 397 0 l 400 3 l 400 17 b 414 32 400 21 414 32 b 425 76 425 46 425 63 b 436 686 429 168 436 594 l 436 954 b 331 971 440 971 340 961 b 308 950 324 964 313 961 b 306 842 308 933 306 858 b 301 556 306 799 301 599 b 292 546 301 553 299 546 l 211 546 b 200 560 207 546 200 556 l 200 636 b 204 888 200 721 204 801 l 204 894 b 200 961 204 904 200 950 b 193 971 200 961 196 971 l 76 971 l 72 968 b 69 918 72 968 69 933 l 69 894 b 67 801 69 881 67 817 b 63 278 67 725 63 354 z "},"i":{"ha":274,"x_min":0,"x_max":0,"o":"m 72 0 l 79 -7 l 190 -7 l 199 0 b 197 235 199 0 197 164 b 200 356 197 275 199 315 l 204 490 l 206 865 l 210 911 l 210 967 b 194 981 206 974 201 981 l 83 974 b 72 958 79 974 72 963 l 72 624 l 69 206 l 68 42 z "},"j":{"ha":478,"x_min":0,"x_max":0,"o":"m 336 18 b 407 156 382 58 397 96 b 410 186 407 164 410 186 l 415 461 l 417 528 l 422 896 l 417 951 b 393 976 414 972 414 975 l 369 979 b 296 933 325 979 297 965 l 297 878 l 296 836 l 290 714 l 289 607 l 294 438 l 279 172 b 217 107 275 135 258 106 b 167 133 199 107 178 119 b 149 318 163 142 146 131 l 144 346 b 129 353 144 346 136 353 l 99 353 b 46 350 83 353 46 350 b 50 324 42 342 42 333 b 38 293 50 324 38 308 l 35 207 b 64 79 35 158 46 124 b 226 -7 92 7 156 -6 b 325 11 260 -8 292 -4 z "},"k":{"ha":504,"x_min":0,"x_max":0,"o":"m 193 -6 b 208 10 200 -6 204 1 l 208 346 l 221 346 b 265 229 239 319 261 247 l 318 51 b 332 7 319 49 332 11 l 335 -4 l 339 -7 l 460 -7 b 469 4 467 -7 469 0 l 469 7 b 381 296 433 104 411 199 b 333 450 367 340 344 407 b 328 476 333 451 329 467 b 389 732 335 513 382 697 b 447 976 404 807 453 967 l 328 976 b 310 967 321 976 314 974 b 307 953 310 967 307 957 l 239 672 b 203 582 239 647 210 561 b 201 694 194 610 201 638 b 197 969 201 765 197 969 l 189 976 l 78 976 l 71 969 l 67 928 l 67 764 b 71 6 67 511 71 260 b 82 -10 71 1 78 -10 z "},"l":{"ha":422,"x_min":0,"x_max":0,"o":"m 69 -6 b 360 1 171 -10 281 -7 b 386 33 381 3 389 11 l 378 115 b 365 131 378 119 369 131 l 206 125 b 194 136 201 125 194 132 l 182 825 b 185 929 182 839 186 914 l 185 963 l 174 974 l 69 976 b 56 965 63 976 56 972 b 61 642 56 917 61 694 b 56 306 63 556 56 319 b 65 29 58 231 65 36 z "},"m":{"ha":663,"x_min":0,"x_max":0,"o":"m 65 6 b 81 -1 67 0 79 0 l 172 -1 l 181 1 b 176 608 181 128 176 192 l 181 626 b 206 531 201 626 203 551 b 217 461 206 521 217 486 b 264 124 235 347 250 238 b 297 -1 268 88 268 -1 b 353 1 304 -1 346 1 b 393 240 363 -3 393 244 b 444 564 411 347 426 458 b 458 601 447 575 447 594 b 465 546 465 604 465 565 b 458 28 465 372 458 200 b 474 -1 458 15 460 4 b 581 -6 508 -1 582 -6 l 592 -6 l 594 -1 l 599 53 b 594 961 599 322 600 926 l 588 968 b 407 972 563 972 518 972 b 354 672 386 967 363 740 b 328 558 354 651 347 578 b 288 729 304 575 290 717 b 250 939 271 811 250 928 l 250 950 b 236 975 250 961 249 975 l 74 975 l 65 972 b 63 61 65 665 63 363 z "},"n":{"ha":572,"x_min":0,"x_max":0,"o":"m 65 13 b 168 0 97 -4 133 -4 b 194 28 179 0 194 15 b 190 513 193 164 189 375 l 194 517 l 197 517 b 324 26 215 500 314 113 b 332 7 324 22 328 11 b 344 -4 335 3 344 -4 l 493 -1 l 500 6 b 510 675 500 6 510 474 b 510 922 508 758 511 839 l 510 956 b 490 971 506 963 501 971 l 383 969 l 376 961 b 382 613 378 908 382 665 b 386 456 382 597 385 471 b 388 353 386 440 388 368 b 379 349 388 349 383 349 b 368 363 372 347 368 356 b 364 386 368 367 364 382 b 351 431 364 393 356 424 b 254 742 319 538 283 636 b 217 886 243 790 231 836 b 76 971 215 989 149 974 b 61 940 64 971 61 949 b 64 71 63 651 67 358 b 65 43 64 71 65 47 z "},"o":{"ha":501,"x_min":0,"x_max":0,"o":"m 247 -12 b 422 128 344 -12 383 49 b 439 178 431 143 431 163 l 446 288 l 446 794 b 439 829 446 799 443 822 b 258 978 422 911 375 978 b 60 665 85 978 60 781 b 56 353 60 619 56 400 l 56 342 b 79 124 60 264 64 197 b 153 11 92 76 118 42 b 217 -12 168 -6 196 -12 z m 200 154 l 200 665 b 204 810 200 689 204 786 b 208 822 204 814 208 822 b 232 844 213 826 228 844 b 258 853 232 844 251 853 l 263 853 b 310 803 290 853 310 826 l 310 579 b 306 283 310 533 306 326 b 301 178 306 268 301 194 b 254 113 301 150 290 113 b 200 154 232 113 204 128 z "},"p":{"ha":456,"x_min":0,"x_max":0,"o":"m 78 -1 l 103 -1 b 172 3 129 -1 147 -1 b 188 14 179 3 183 10 b 194 21 188 18 194 21 b 194 415 189 163 197 286 l 199 418 b 272 422 208 418 261 422 b 331 433 290 422 315 426 b 414 533 369 450 407 496 b 418 565 414 536 418 563 b 422 614 418 569 422 610 b 424 779 425 651 424 742 b 371 940 424 838 411 896 b 344 963 364 947 356 958 b 272 976 324 974 294 976 l 78 976 b 63 957 74 976 67 961 l 63 664 b 67 581 63 653 67 592 l 67 76 b 69 39 67 74 69 47 b 78 -1 69 28 67 7 z m 190 550 b 194 847 190 594 194 804 b 221 858 199 863 213 858 b 294 808 254 858 290 844 b 297 686 297 760 297 731 b 294 583 297 657 297 614 b 203 528 286 543 243 528 b 190 546 192 528 190 532 z "},"q":{"ha":496,"x_min":0,"x_max":0,"o":"m 211 8 b 225 -39 215 -7 221 -22 l 238 -82 l 263 -167 b 265 -181 263 -169 265 -181 b 285 -192 269 -187 276 -192 l 364 -192 b 386 -161 385 -192 392 -182 l 364 -90 l 350 -56 l 344 -26 b 328 28 339 -3 333 14 l 338 38 l 356 51 b 435 297 424 118 431 211 b 435 626 438 346 436 575 b 431 700 435 631 432 681 b 428 774 431 710 428 761 b 342 954 419 828 399 926 b 236 975 306 974 276 976 b 93 868 164 972 124 928 b 75 815 83 849 75 833 b 85 786 78 804 85 796 l 85 775 b 63 739 71 764 60 757 b 72 714 63 729 72 724 l 72 710 b 60 692 72 706 63 694 b 60 378 54 589 58 479 b 61 326 60 374 61 340 b 128 54 63 246 67 118 b 176 17 144 40 158 21 b 196 8 181 11 196 8 z m 206 158 l 201 165 b 197 206 201 169 197 199 l 197 213 b 192 447 193 289 190 369 b 193 747 190 478 193 718 b 215 840 190 783 181 815 b 228 847 218 840 225 847 l 236 847 b 293 813 269 849 281 842 b 296 721 293 799 296 732 b 300 626 297 696 300 629 b 300 268 300 597 301 344 b 299 207 300 261 299 217 b 253 135 296 176 290 136 b 206 158 232 135 221 144 z "},"r":{"ha":510,"x_min":0,"x_max":0,"o":"m 68 8 l 75 1 b 200 10 108 1 190 -15 b 194 121 200 42 194 79 b 190 278 194 136 190 263 b 194 426 190 300 194 406 b 213 444 194 438 201 444 b 304 229 308 444 304 322 b 303 103 304 182 303 136 b 328 4 303 26 315 15 b 429 3 365 1 394 3 b 461 19 454 3 456 0 b 438 113 453 42 438 75 b 417 417 438 214 429 363 b 358 492 407 460 385 474 l 358 503 b 438 740 426 583 438 650 b 365 946 438 815 431 894 b 278 971 346 960 300 968 b 82 975 213 976 147 975 b 64 917 58 969 64 935 b 68 601 64 811 68 707 b 64 71 68 550 64 121 b 68 8 64 57 65 13 z m 206 554 l 199 561 l 199 842 l 208 853 l 260 853 b 300 772 292 846 300 799 b 293 586 300 710 296 649 b 206 554 271 549 239 554 z "},"s":{"ha":521,"x_min":0,"x_max":0,"o":"m 271 -8 b 329 -4 279 -8 322 -4 b 404 32 360 0 379 11 b 472 225 465 92 472 140 l 472 274 b 468 300 472 278 468 297 b 301 563 451 406 375 490 b 196 699 258 603 213 639 b 193 715 196 703 193 715 l 193 819 b 247 864 193 844 228 864 b 290 840 263 864 283 860 b 301 807 294 832 301 807 l 301 676 l 422 676 l 431 683 l 431 819 b 383 940 422 864 415 908 b 326 969 368 957 344 961 b 279 985 314 972 279 985 l 189 985 b 157 972 189 985 165 976 b 53 747 68 929 53 840 l 53 688 b 126 531 61 639 94 567 b 219 426 157 494 186 458 b 329 225 297 350 329 338 l 329 181 b 326 149 329 174 326 153 b 267 113 318 124 286 113 b 200 149 236 113 217 124 l 196 157 b 193 204 196 165 193 196 l 193 346 l 186 350 b 83 353 186 350 114 353 l 64 353 l 57 346 l 57 240 b 61 176 57 236 61 188 b 126 40 64 113 79 83 b 247 -8 161 8 196 -8 z "},"t":{"ha":451,"x_min":0,"x_max":0,"o":"m 143 4 b 181 -7 150 -7 172 -7 l 271 -7 l 274 -3 b 278 19 274 1 278 17 l 278 46 b 289 364 278 76 289 333 l 289 839 l 293 850 l 297 854 l 417 854 l 417 965 l 414 969 b 394 974 410 969 399 974 l 331 974 b 61 978 304 974 86 978 l 42 978 b 35 969 39 978 35 969 l 35 869 b 42 861 35 869 39 861 b 57 857 46 861 53 857 l 154 857 b 165 839 165 857 165 846 l 165 828 b 158 506 165 779 158 556 b 154 481 158 503 154 483 l 154 386 b 147 99 154 344 147 143 b 143 31 147 90 143 39 z "},"u":{"ha":525,"x_min":0,"x_max":0,"o":"m 457 674 l 461 783 l 461 963 b 442 974 461 974 446 975 b 321 964 413 974 321 981 b 325 949 321 961 321 957 l 325 818 l 329 735 l 325 560 l 325 239 l 321 153 b 289 115 321 142 301 115 l 239 115 b 207 165 228 115 207 153 l 208 938 b 167 976 208 967 196 978 l 79 972 b 68 961 71 972 68 965 b 78 868 68 951 57 876 b 74 853 78 865 74 857 l 74 739 b 67 704 71 735 67 708 b 71 618 67 678 74 644 b 64 208 71 501 64 307 b 254 -6 64 110 92 -6 b 454 165 386 -6 433 69 b 458 189 454 169 458 185 b 460 419 458 279 458 340 b 461 525 460 450 461 485 z "},"v":{"ha":469,"x_min":0,"x_max":0,"o":"m 289 -3 b 304 29 300 -3 304 22 b 307 56 304 33 307 51 b 311 74 307 56 311 71 b 318 135 311 82 318 128 b 363 428 329 235 347 329 b 424 919 385 592 403 756 b 428 953 424 926 428 953 b 417 971 428 960 428 971 l 325 971 b 318 960 322 971 318 960 b 315 946 318 960 315 949 b 292 756 308 908 293 767 b 250 468 282 675 261 549 b 246 424 250 465 246 428 b 242 414 246 421 242 414 l 238 414 b 224 439 226 414 224 432 b 219 465 224 442 219 461 b 217 515 219 468 217 513 b 196 686 217 526 196 675 b 169 897 192 701 178 851 b 167 935 169 901 167 931 b 144 975 167 949 167 975 l 44 975 l 42 971 l 42 957 b 49 865 42 924 44 894 b 74 632 56 788 63 708 l 118 253 b 144 7 118 253 133 18 b 246 -3 163 -11 215 -3 z "},"w":{"ha":744,"x_min":0,"x_max":0,"o":"m 289 -3 b 304 29 300 -3 304 22 b 307 56 304 33 307 51 b 311 74 307 56 311 71 b 318 135 311 82 318 128 l 364 556 l 374 556 b 393 300 382 481 383 375 b 419 -4 393 300 408 7 b 521 -14 439 -22 492 -14 l 564 -14 b 579 18 575 -14 579 11 b 582 44 579 22 582 40 b 586 63 582 44 586 60 b 593 124 586 71 593 117 b 638 424 604 224 624 325 b 699 915 660 588 678 751 b 703 949 699 924 703 949 b 692 967 703 956 703 967 l 600 967 b 593 956 597 967 593 956 b 590 942 593 956 590 946 b 567 751 583 904 568 763 b 525 435 557 671 543 542 b 499 404 514 376 499 397 b 496 431 499 408 496 426 b 482 511 496 435 482 508 b 461 683 482 522 461 671 b 444 893 457 697 453 847 b 442 931 444 897 442 926 b 419 971 442 946 442 971 l 417 971 b 315 946 319 972 319 965 b 292 756 308 908 293 767 b 249 439 282 675 260 518 b 244 393 249 435 244 397 b 242 383 244 390 242 383 l 238 383 b 224 408 226 383 224 401 b 219 435 224 413 219 431 b 217 485 219 439 217 482 b 194 686 217 496 194 675 b 168 897 192 701 176 851 b 165 935 168 901 165 931 b 143 975 165 949 165 975 l 44 975 l 42 971 l 42 957 b 49 865 42 924 44 894 b 74 632 56 788 63 708 b 117 253 89 504 103 379 b 143 7 117 253 132 18 b 244 -3 163 -11 215 -3 z "},"x":{"ha":500,"x_min":0,"x_max":0,"o":"m 49 4 l 49 -7 l 57 -10 l 165 -10 b 185 0 172 -10 181 -7 b 188 14 185 0 188 11 b 249 314 208 114 226 215 b 251 336 249 318 251 332 b 261 354 251 340 251 354 b 268 340 265 354 268 343 b 279 258 275 314 275 283 l 311 43 b 315 4 311 39 315 7 l 318 -7 l 322 -10 l 432 -10 b 442 0 439 -10 442 -3 l 442 4 b 388 265 421 103 406 165 b 346 446 372 343 361 368 b 340 474 346 449 342 464 b 406 729 347 508 399 693 b 450 975 406 729 456 967 l 340 975 b 322 965 333 975 326 972 b 319 951 322 965 319 954 b 268 647 297 851 289 746 b 265 626 268 644 265 629 b 256 608 265 622 265 608 b 249 622 251 608 249 619 b 236 704 240 647 240 679 l 196 922 b 192 961 196 926 192 958 l 188 972 l 185 975 l 75 975 b 64 965 68 975 64 968 l 64 961 b 160 526 81 815 135 667 b 165 499 160 524 164 508 b 110 253 158 463 117 289 b 60 78 97 197 71 135 b 49 4 57 54 49 28 z "},"y":{"ha":476,"x_min":0,"x_max":0,"o":"m 181 3 l 188 -1 l 304 0 l 311 7 l 311 263 b 318 315 311 263 315 301 b 332 390 322 340 329 365 b 339 425 332 394 339 422 b 378 658 353 503 364 581 b 435 958 396 758 413 860 l 435 963 b 424 972 435 965 432 972 l 315 972 l 311 969 l 307 958 b 304 919 307 956 304 924 l 263 638 b 251 557 258 614 258 582 b 244 543 251 554 249 543 b 235 561 235 543 235 557 b 232 582 235 564 232 578 b 179 949 210 681 201 849 b 176 963 179 951 176 963 b 158 972 172 969 165 972 l 49 972 l 42 969 l 42 958 b 53 885 42 935 49 908 b 89 711 64 828 78 768 l 158 372 b 179 267 165 338 176 301 l 179 214 b 178 90 179 196 178 111 b 181 3 181 85 174 8 z "},"z":{"ha":411,"x_min":0,"x_max":0,"o":"m 60 7 l 67 0 b 133 -3 67 0 113 -3 b 321 -7 193 -7 257 -7 l 349 -7 l 356 -3 l 356 88 b 325 118 356 108 347 118 l 179 118 l 356 849 l 356 922 b 328 979 356 940 356 979 b 310 975 324 979 314 975 l 156 975 l 144 972 l 136 972 l 122 979 l 96 979 b 69 982 92 979 74 982 b 53 954 56 982 53 961 b 49 932 53 947 49 932 l 49 865 l 56 863 l 179 863 b 215 860 182 863 208 860 l 56 133 b 50 113 63 119 53 113 z "},"{":{"ha":460,"x_min":0,"x_max":0,"o":"m 372 -131 b 376 -101 372 -131 376 -110 b 375 -26 376 -92 375 -26 l 368 -19 b 292 -21 321 -19 317 -21 b 249 68 276 -21 249 -10 b 296 386 249 190 296 236 b 193 497 296 428 261 476 b 299 643 272 518 299 600 b 240 951 299 767 240 883 b 290 996 240 990 247 997 l 351 994 l 354 1110 b 340 1118 353 1115 347 1114 b 221 1114 267 1118 253 1114 b 107 968 151 1114 107 1067 b 167 656 107 897 167 758 b 67 563 167 592 129 567 b 42 540 57 563 42 550 l 42 443 b 67 421 42 433 57 421 b 167 340 138 421 167 401 b 113 47 167 275 113 140 b 251 -136 113 -74 153 -136 b 365 -133 293 -136 365 -133 z "},"|":{"ha":432,"x_min":0,"x_max":0,"o":"m 254 1028 l 182 1028 b 168 1015 172 1025 171 1025 b 164 285 167 924 161 378 b 165 151 163 278 165 183 b 168 -71 165 129 168 -49 b 244 -79 164 -87 233 -69 b 264 -58 249 -72 260 -69 b 265 129 264 -40 267 113 b 264 860 267 215 261 775 b 261 1021 263 885 261 997 z "},"}":{"ha":460,"x_min":0,"x_max":0,"o":"m 108 -12 l 106 -128 b 119 -136 107 -133 113 -132 l 211 -136 b 353 28 296 -136 353 -71 b 293 342 353 99 293 239 b 393 435 293 406 331 431 b 418 457 403 435 418 447 l 418 554 b 393 576 418 564 403 576 b 293 657 322 576 293 596 b 347 935 293 722 347 842 b 208 1118 347 1056 307 1118 b 94 1115 167 1118 94 1115 l 88 1113 b 83 1083 88 1113 83 1092 b 85 1008 83 1074 85 1008 l 92 1001 b 168 1003 139 1001 143 1003 b 211 914 183 1003 211 992 b 164 611 211 792 164 761 b 267 500 164 569 199 521 b 161 354 188 479 161 397 b 219 44 161 231 219 113 b 169 -14 219 6 213 -15 z "},"~":{"ha":607,"x_min":0,"x_max":0,"o":"m 358 515 b 393 543 371 533 379 543 b 411 518 401 543 408 540 l 411 442 b 432 421 411 426 417 421 l 503 422 b 524 443 517 422 524 428 l 524 544 b 457 657 519 606 492 640 b 413 660 449 658 439 660 b 260 558 346 660 310 622 b 200 500 239 532 218 500 b 188 524 190 500 189 510 l 186 606 b 165 626 186 619 179 626 l 101 624 b 81 603 86 624 81 617 l 81 586 b 79 508 81 571 79 528 b 193 389 79 428 132 389 b 350 503 267 389 306 442 z "},"":{"ha":483,"x_min":0,"x_max":0,"o":"m 319 975 l 294 975 l 297 978 l 232 1186 b 217 1196 226 1193 225 1193 l 135 1196 l 129 1190 l 165 1063 l 193 982 l 200 975 l 165 975 b 147 932 154 975 147 950 b 47 142 117 661 76 414 b 32 11 42 99 32 54 b 54 4 38 1 47 4 b 124 8 78 4 101 4 b 169 176 168 8 140 138 b 281 172 178 176 240 172 b 307 54 304 172 304 86 b 319 0 307 24 319 0 b 449 11 343 0 449 0 b 444 35 451 13 444 21 b 429 168 438 81 433 122 b 407 340 425 183 410 325 b 326 967 378 558 358 749 z m 185 292 b 178 303 183 292 174 299 b 185 367 178 325 181 344 b 219 658 196 464 207 563 l 226 667 b 261 432 253 654 256 494 b 276 299 261 394 276 344 b 265 283 276 294 272 283 z m 311 735 b 304 746 304 735 304 738 b 315 753 304 750 307 753 b 322 750 319 753 322 753 b 311 735 322 742 319 735 z "},"":{"ha":501,"x_min":0,"x_max":0,"o":"m 329 975 l 304 975 l 331 1049 l 367 1176 l 361 1182 l 279 1182 b 264 1172 271 1179 269 1179 l 201 975 l 175 975 b 157 932 164 975 157 950 b 57 142 126 661 86 414 b 42 11 51 99 42 54 b 64 4 47 1 57 4 b 133 8 88 4 111 4 b 179 176 178 8 150 138 b 290 172 188 176 250 172 b 317 54 314 172 314 86 b 329 0 317 24 329 0 b 458 11 353 0 458 0 b 454 35 461 13 454 21 b 439 168 447 81 443 122 b 417 340 435 183 419 325 b 336 967 388 558 368 749 z m 194 292 b 188 303 193 292 183 299 b 194 367 188 325 190 344 b 229 658 206 464 217 563 l 236 667 b 271 432 263 654 265 494 b 286 299 271 394 286 344 b 275 283 286 294 282 283 z m 321 735 b 314 746 314 735 314 738 b 325 753 314 750 317 753 b 332 750 329 753 332 753 b 321 735 332 742 329 735 z "},"":{"ha":501,"x_min":0,"x_max":0,"o":"m 329 975 l 175 975 b 157 932 164 975 157 950 b 57 142 126 661 86 414 b 42 11 51 99 42 54 b 64 4 47 1 57 4 b 133 8 88 4 111 4 b 179 176 178 8 150 138 b 290 172 188 176 250 172 b 317 54 314 172 314 86 b 329 0 317 24 329 0 b 458 11 353 0 458 0 b 454 35 461 13 454 21 b 439 168 447 81 443 122 b 417 340 435 183 419 325 b 336 967 388 558 368 749 z m 321 735 b 314 746 314 735 314 738 b 325 753 314 750 317 753 b 332 750 329 753 332 753 b 321 735 332 742 329 735 z m 194 292 b 188 303 193 292 183 299 b 194 367 188 325 190 344 b 229 658 206 464 217 563 l 236 667 b 271 432 263 654 265 494 b 286 299 271 394 286 344 b 275 283 286 294 282 283 z m 104 1000 l 182 1003 l 192 1013 l 229 1061 l 250 1104 l 275 1061 l 308 1013 l 318 1003 l 396 1000 l 403 1008 l 306 1158 b 292 1167 300 1165 299 1165 l 208 1167 b 194 1158 201 1165 200 1165 l 97 1008 z "},"":{"ha":501,"x_min":0,"x_max":0,"o":"m 329 975 l 175 975 b 157 932 164 975 157 950 b 57 142 126 661 86 414 b 42 11 51 99 42 54 b 64 4 47 1 57 4 b 133 8 88 4 111 4 b 179 176 178 8 150 138 b 290 172 188 176 250 172 b 317 54 314 172 314 86 b 329 0 317 24 329 0 b 458 11 353 0 458 0 b 454 35 461 13 454 21 b 439 168 447 81 443 122 b 417 340 435 183 419 325 b 336 967 388 558 368 749 z m 321 735 b 314 746 314 735 314 738 b 325 753 314 750 317 753 b 332 750 329 753 332 753 b 321 735 332 742 329 735 z m 194 292 b 188 303 193 292 183 299 b 194 367 188 325 190 344 b 229 658 206 464 217 563 l 236 667 b 271 432 263 654 265 494 b 286 299 271 394 286 344 b 275 283 286 294 282 283 z m 288 1088 b 311 1106 296 1099 301 1106 b 324 1089 317 1106 321 1104 l 324 1038 b 338 1024 324 1028 326 1024 l 385 1025 b 399 1039 393 1025 399 1028 l 399 1107 b 354 1182 396 1147 376 1171 b 324 1183 349 1182 342 1183 b 222 1115 279 1183 256 1158 b 182 1076 208 1099 194 1076 b 174 1093 175 1076 175 1083 l 172 1147 b 158 1161 172 1157 168 1161 l 117 1160 b 103 1146 106 1160 103 1154 l 103 1135 b 101 1082 103 1124 101 1096 b 178 1003 101 1028 136 1003 b 282 1079 226 1003 253 1038 z "},"":{"ha":501,"x_min":0,"x_max":0,"o":"m 329 975 l 175 975 b 157 932 164 975 157 950 b 57 142 126 661 86 414 b 42 11 51 99 42 54 b 64 4 47 1 57 4 b 133 8 88 4 111 4 b 179 176 178 8 150 138 b 290 172 188 176 250 172 b 317 54 314 172 314 86 b 329 0 317 24 329 0 b 458 11 353 0 458 0 b 454 35 461 13 454 21 b 439 168 447 81 443 122 b 417 340 435 183 419 325 b 336 967 388 558 368 749 z m 321 735 b 314 746 314 735 314 738 b 325 753 314 750 317 753 b 332 750 329 753 332 753 b 321 735 332 742 329 735 z m 194 292 b 188 303 193 292 183 299 b 194 367 188 325 190 344 b 229 658 206 464 217 563 l 236 667 b 271 432 263 654 265 494 b 286 299 271 394 286 344 b 275 283 286 294 282 283 z m 282 1014 l 397 1014 l 406 1022 b 408 1151 406 1022 406 1078 l 396 1160 l 274 1160 l 269 1146 l 269 1069 l 274 1022 z m 101 1011 l 219 1011 l 229 1019 l 229 1125 l 218 1157 l 96 1157 l 93 1143 l 93 1064 l 92 1019 z "},"":{"ha":501,"x_min":0,"x_max":0,"o":"m 157 932 b 57 142 126 661 86 414 b 42 11 51 99 42 54 b 64 4 47 1 57 4 b 133 8 88 4 111 4 b 179 176 178 8 150 138 b 290 172 188 176 250 172 b 317 54 314 172 314 86 b 329 0 317 24 329 0 b 458 11 353 0 458 0 b 454 35 461 13 454 21 b 439 168 447 81 443 122 b 417 340 435 183 419 325 b 340 940 389 549 369 733 b 396 1049 386 965 396 1006 b 281 1181 396 1063 374 1181 l 258 1181 b 129 1117 186 1181 160 1153 b 118 1096 124 1110 124 1100 l 113 1046 b 157 944 113 1001 128 967 z m 194 292 b 188 303 193 292 183 299 b 194 367 188 325 190 344 b 229 658 206 464 217 563 l 236 667 b 271 432 263 654 265 494 b 286 299 271 394 286 344 b 275 283 286 294 282 283 z m 236 986 b 178 1053 190 986 178 1044 b 221 1111 178 1076 183 1100 b 236 1117 225 1115 231 1117 l 253 1117 b 279 1115 261 1117 269 1117 b 322 1054 303 1111 322 1083 l 319 1028 b 317 1017 317 1025 317 1018 b 247 986 299 999 283 986 z m 321 735 b 314 746 314 735 314 738 b 325 753 314 750 317 753 b 332 750 329 753 332 753 b 321 735 332 742 329 735 z "},"":{"ha":631,"x_min":0,"x_max":0,"o":"m 292 54 b 299 0 288 24 299 0 l 307 0 b 321 -4 310 -3 315 -4 b 371 1 331 -4 351 -1 b 424 11 400 3 422 6 b 422 18 425 11 424 14 b 488 0 440 15 432 -4 b 501 3 493 1 501 4 b 519 -4 501 6 513 -1 b 572 -7 539 -4 556 -7 b 594 85 601 -7 594 75 l 594 110 l 586 113 b 428 115 532 113 443 115 b 418 124 422 117 419 119 l 418 168 b 414 308 415 179 415 261 l 414 443 b 435 457 414 454 428 457 b 533 454 467 457 500 454 b 540 465 538 457 540 461 l 540 560 b 522 569 540 569 531 569 l 425 569 b 410 746 408 569 410 700 b 418 851 410 767 404 814 l 575 851 b 583 863 579 854 581 861 l 583 964 l 575 971 b 299 979 521 978 386 979 l 292 975 l 238 975 b 215 932 226 975 217 950 b 40 142 160 661 94 414 b 14 11 31 99 18 54 b 33 4 18 1 28 4 b 103 8 57 4 81 4 b 165 176 147 8 132 138 b 276 172 174 176 236 172 b 292 143 285 172 289 160 z m 199 292 b 193 303 197 292 188 299 b 206 367 194 325 200 344 l 268 658 l 276 667 b 289 432 301 654 289 494 b 290 299 285 394 296 344 b 278 283 290 294 285 283 z "},"":{"ha":481,"x_min":0,"x_max":0,"o":"m 126 -135 l 122 -153 l 125 -224 l 142 -232 b 307 -78 261 -232 313 -169 l 303 -3 b 408 76 349 4 388 26 b 439 204 428 121 439 156 l 439 343 l 432 347 b 379 350 432 347 394 350 l 326 350 l 322 347 l 322 158 b 307 132 322 158 311 140 b 256 107 296 118 274 107 b 194 174 214 107 199 136 b 192 729 194 257 192 647 l 192 760 b 247 865 192 804 188 865 b 296 790 293 865 296 824 l 296 660 b 310 646 296 650 300 646 l 374 646 b 411 661 385 646 411 642 b 407 688 411 668 407 675 b 414 706 407 694 407 699 b 403 879 413 761 417 839 b 375 925 400 888 379 921 b 333 967 371 932 342 958 b 247 989 307 985 278 989 b 124 940 183 989 168 978 l 119 936 b 64 756 82 883 64 819 l 64 189 b 67 158 64 189 67 167 b 135 19 75 99 90 61 l 146 13 b 208 -4 167 3 188 -1 l 208 -62 b 126 -135 206 -153 126 -135 z "},"":{"ha":489,"x_min":0,"x_max":0,"o":"m 78 -3 l 103 -3 b 172 1 129 -3 147 -3 l 194 -3 l 199 1 b 272 4 208 1 261 4 b 331 15 290 4 315 8 b 422 181 417 60 422 125 b 424 778 422 282 424 740 b 371 939 424 836 411 894 b 344 961 364 946 356 957 b 272 975 324 972 294 975 l 78 975 b 63 968 74 975 67 972 l 63 663 b 67 579 63 651 67 590 l 67 524 b 29 525 51 524 36 524 l 25 522 l 24 479 l 24 476 b 33 465 24 472 24 465 l 67 465 l 67 75 b 69 38 67 72 69 46 b 78 -3 69 26 67 6 z m 190 129 l 190 133 b 192 465 190 153 192 306 l 238 465 b 247 467 238 465 244 467 l 254 467 b 260 471 256 467 260 471 l 257 518 b 244 525 257 522 254 525 l 192 525 b 194 846 193 679 194 825 b 221 857 199 861 213 857 b 294 807 254 857 290 843 b 297 685 297 758 297 729 b 294 167 297 656 297 196 b 217 111 286 126 258 111 b 190 129 206 111 190 115 z m 160 150 b 153 161 153 150 153 154 b 164 169 153 165 156 169 b 171 165 168 169 171 169 b 160 150 171 158 168 150 z "},"":{"ha":418,"x_min":0,"x_max":0,"o":"m 67 53 b 96 -4 67 36 67 -4 b 199 18 119 -4 192 7 b 268 0 222 18 208 -6 b 282 3 274 1 282 4 b 300 -4 282 6 293 -1 b 353 -7 319 -4 336 -7 b 375 85 382 -7 375 75 l 375 110 l 367 113 b 208 115 313 113 224 115 b 194 149 194 119 194 142 l 194 443 b 215 457 194 454 208 457 b 314 454 247 457 281 454 b 321 465 318 457 321 461 l 321 560 b 303 569 321 569 311 569 l 206 569 b 190 746 189 569 190 700 b 199 851 190 767 185 814 l 356 851 b 364 863 360 854 361 861 l 364 964 l 356 971 b 278 976 338 972 310 975 l 214 1181 b 199 1190 208 1188 207 1188 l 117 1190 l 111 1185 l 147 1057 l 174 978 b 74 979 138 979 103 979 l 67 975 z "},"":{"ha":386,"x_min":0,"x_max":0,"o":"m 46 53 b 75 -4 46 36 46 -4 b 178 18 99 -4 171 7 b 247 0 201 18 188 -6 b 261 3 253 1 261 4 b 279 -4 261 6 272 -1 b 332 -7 299 -4 315 -7 b 354 85 361 -7 354 75 l 354 110 l 346 113 b 188 115 292 113 203 115 b 174 149 174 119 174 142 l 174 443 b 194 457 174 454 188 457 b 293 454 226 457 260 454 b 300 465 297 457 300 461 l 300 560 b 282 569 300 569 290 569 l 185 569 b 169 746 168 569 169 700 b 178 851 169 767 164 814 l 335 851 b 343 863 339 854 340 861 l 343 964 l 335 971 b 243 976 314 974 281 975 l 265 1042 l 301 1169 l 296 1175 l 214 1175 b 199 1165 206 1172 204 1172 l 140 979 l 53 979 l 46 975 z "},"":{"ha":418,"x_min":0,"x_max":0,"o":"m 67 53 b 96 -4 67 36 67 -4 b 199 18 119 -4 192 7 b 268 0 222 18 208 -6 b 282 3 274 1 282 4 b 300 -4 282 6 293 -1 b 353 -7 319 -4 336 -7 b 375 85 382 -7 375 75 l 375 110 l 367 113 b 208 115 313 113 224 115 b 194 149 194 119 194 142 l 194 443 b 215 457 194 454 208 457 b 314 454 247 457 281 454 b 321 465 318 457 321 461 l 321 560 b 303 569 321 569 311 569 l 206 569 b 190 746 189 569 190 700 b 199 851 190 767 185 814 l 356 851 b 364 863 360 854 361 861 l 364 964 l 356 971 b 74 979 301 978 161 979 l 67 975 z m 63 1026 l 140 1029 l 150 1039 l 188 1088 l 208 1131 l 233 1088 l 267 1039 l 276 1029 l 354 1026 l 361 1035 l 264 1185 b 250 1193 258 1192 257 1192 l 167 1193 b 153 1185 160 1192 158 1192 l 56 1035 z "},"":{"ha":418,"x_min":0,"x_max":0,"o":"m 67 53 b 96 -4 67 36 67 -4 b 199 18 119 -4 192 7 b 268 0 222 18 208 -6 b 282 3 274 1 282 4 b 300 -4 282 6 293 -1 b 353 -7 319 -4 336 -7 b 375 85 382 -7 375 75 l 375 110 l 367 113 b 208 115 313 113 224 115 b 194 149 194 119 194 142 l 194 443 b 215 457 194 454 208 457 b 314 454 247 457 281 454 b 321 465 318 457 321 461 l 321 560 b 303 569 321 569 311 569 l 206 569 b 190 746 189 569 190 700 b 199 851 190 767 185 814 l 356 851 b 364 863 360 854 361 861 l 364 964 l 356 971 b 74 979 301 978 161 979 l 67 975 z m 240 1031 l 356 1031 l 364 1039 b 367 1168 364 1039 364 1094 l 354 1176 l 232 1176 l 228 1163 l 228 1086 l 232 1039 z m 60 1028 l 178 1028 l 188 1036 l 188 1142 l 176 1174 l 54 1174 l 51 1160 l 51 1081 l 50 1036 z "},"":{"ha":272,"x_min":0,"x_max":0,"o":"m 71 -1 l 78 -8 l 189 -8 l 197 -1 b 200 233 197 -1 200 163 b 208 603 200 357 208 481 l 208 951 b 193 965 204 958 200 965 l 190 965 l 126 1171 b 111 1181 121 1178 119 1178 l 29 1181 l 24 1175 l 60 1047 l 86 969 l 82 969 b 71 954 78 969 71 958 b 67 204 71 700 67 458 l 67 40 z "},"":{"ha":272,"x_min":0,"x_max":0,"o":"m 71 -1 l 78 -8 l 189 -8 l 197 -1 b 200 233 197 -1 200 163 b 208 603 200 357 208 481 l 208 951 b 194 965 204 957 200 964 l 222 1044 l 258 1172 l 253 1178 l 171 1178 b 156 1168 163 1175 161 1175 l 93 968 l 82 969 b 71 954 78 969 71 958 b 67 204 71 700 67 458 l 67 40 z "},"":{"ha":272,"x_min":0,"x_max":0,"o":"m 71 -1 l 78 -8 l 189 -8 l 197 -1 b 200 233 197 -1 200 163 b 208 603 200 357 208 481 l 208 951 b 193 965 204 958 200 965 l 82 969 b 71 954 78 969 71 958 b 67 204 71 700 67 458 l 67 40 z m -10 1014 l 68 1017 l 78 1026 l 115 1075 l 136 1118 l 161 1075 l 194 1026 l 204 1017 l 282 1014 l 289 1022 l 192 1172 b 178 1181 186 1179 185 1179 l 94 1181 b 81 1172 88 1179 86 1179 l -17 1022 z "},"":{"ha":272,"x_min":0,"x_max":0,"o":"m 71 -1 l 78 -8 l 189 -8 l 197 -1 b 200 233 197 -1 200 163 b 208 603 200 357 208 481 l 208 951 b 193 965 204 958 200 965 l 82 969 b 71 954 78 969 71 958 b 67 204 71 700 67 458 l 67 40 z m 168 1013 l 283 1013 l 292 1021 b 294 1150 292 1021 292 1076 l 282 1158 l 160 1158 l 156 1144 l 156 1068 l 160 1021 z m -12 1010 l 106 1010 l 115 1018 l 115 1124 l 104 1156 l -18 1156 l -21 1142 l -21 1063 l -22 1018 z "},"":{"ha":425,"x_min":0,"x_max":0,"o":"m 26 388 l 63 414 l 63 311 b 67 35 63 236 67 42 l 69 14 b 85 0 71 4 75 0 l 385 0 l 385 113 b 374 128 385 117 378 128 l 210 128 b 199 139 206 128 199 135 l 199 517 l 332 613 b 340 619 332 613 336 617 b 346 624 342 621 346 624 b 349 631 347 625 349 631 l 338 682 l 199 579 l 199 826 b 203 931 199 840 203 915 l 203 964 l 190 975 l 78 979 b 63 968 71 979 63 975 l 63 478 b 10 442 38 460 15 444 l 7 438 l 10 392 l 11 389 b 26 388 13 388 17 382 z "},"":{"ha":590,"x_min":0,"x_max":0,"o":"m 65 21 l 69 10 l 74 6 l 168 6 b 194 33 179 6 194 21 b 199 447 194 169 194 310 l 201 451 l 206 451 b 260 272 217 451 251 288 l 263 264 b 324 29 286 188 304 110 b 332 10 324 25 328 14 b 343 -1 335 6 343 -1 l 503 -1 l 510 6 b 521 675 510 6 517 474 b 525 921 521 758 525 838 l 525 956 b 506 971 521 963 517 971 l 400 971 l 393 963 l 393 614 b 389 447 393 599 389 463 l 389 344 b 381 340 389 340 385 340 b 369 356 374 340 369 349 b 365 379 369 360 365 375 b 354 424 365 386 358 417 b 267 747 324 529 293 640 l 232 890 b 206 975 229 899 210 975 b 93 978 164 975 135 978 b 78 947 81 978 78 956 b 65 79 74 660 74 367 z m 332 1101 b 356 1119 340 1113 346 1119 b 368 1103 361 1119 365 1118 l 368 1051 b 382 1038 368 1042 371 1038 l 429 1039 b 443 1053 438 1039 443 1042 l 443 1121 b 399 1196 440 1161 421 1185 b 368 1197 393 1196 386 1197 b 267 1129 324 1197 300 1172 b 226 1090 253 1113 239 1090 b 218 1107 219 1090 219 1097 l 217 1161 b 203 1175 217 1171 213 1175 l 161 1174 b 147 1160 150 1174 147 1168 l 147 1149 b 146 1096 147 1138 146 1110 b 222 1017 146 1042 181 1017 b 326 1093 271 1017 297 1051 z "},"":{"ha":514,"x_min":0,"x_max":0,"o":"m 154 10 b 190 -1 165 3 179 6 b 210 -12 194 -1 206 -12 l 283 -12 b 331 3 293 -12 319 -6 b 440 193 393 43 433 121 b 449 275 444 211 449 271 b 451 510 449 297 451 458 l 451 764 b 356 969 440 833 419 925 b 304 985 342 979 321 982 l 242 1183 b 226 1193 236 1190 235 1190 l 144 1193 l 139 1188 l 175 1060 l 201 982 b 194 981 199 982 196 981 b 99 865 146 961 114 914 l 96 851 b 78 814 96 847 78 818 b 69 771 78 814 69 782 b 67 738 69 767 67 744 b 63 693 67 726 63 693 l 63 249 b 67 211 63 246 67 219 b 117 50 74 157 81 94 b 150 14 117 50 143 24 z m 199 628 b 201 818 199 657 201 789 b 257 858 206 843 232 858 b 283 854 261 858 275 858 l 304 833 l 308 825 b 315 796 308 822 315 800 b 311 311 315 722 311 385 b 308 197 311 297 308 215 b 261 121 308 161 304 121 l 246 121 b 217 135 246 121 225 132 b 201 157 210 139 201 150 b 199 193 201 161 199 186 z "},"":{"ha":514,"x_min":0,"x_max":0,"o":"m 154 10 b 190 -1 165 3 179 6 b 210 -12 194 -1 206 -12 l 283 -12 b 331 3 293 -12 319 -6 b 440 193 393 43 433 121 b 449 275 444 211 449 271 b 451 510 449 297 451 458 l 451 764 b 356 969 440 833 419 925 b 318 982 346 976 332 981 l 344 1057 l 381 1185 l 375 1190 l 293 1190 b 278 1181 285 1188 283 1188 l 217 985 l 194 981 b 99 865 146 961 114 914 l 96 851 b 78 814 96 847 78 818 b 69 771 78 814 69 782 b 67 738 69 767 67 744 b 63 693 67 726 63 693 l 63 249 b 67 211 63 246 67 219 b 117 50 74 157 81 94 b 150 14 117 50 143 24 z m 199 628 b 201 818 199 657 201 789 b 257 858 206 843 232 858 b 283 854 261 858 275 858 l 304 833 l 308 825 b 315 796 308 822 315 800 b 311 311 315 722 311 385 b 308 197 311 297 308 215 b 261 121 308 161 304 121 l 246 121 b 217 135 246 121 225 132 b 201 157 210 139 201 150 b 199 193 201 161 199 186 z "},"":{"ha":514,"x_min":0,"x_max":0,"o":"m 154 10 b 190 -1 165 3 179 6 b 210 -12 194 -1 206 -12 l 283 -12 b 331 3 293 -12 319 -6 b 440 193 393 43 433 121 b 449 275 444 211 449 271 b 451 510 449 297 451 458 l 451 764 b 356 969 440 833 419 925 b 286 988 338 983 304 983 b 246 990 279 988 250 990 l 232 988 b 194 981 225 988 206 983 b 99 865 146 961 114 914 l 96 851 b 78 814 96 847 78 818 b 69 771 78 814 69 782 b 67 738 69 767 67 744 b 63 693 67 726 63 693 l 63 249 b 67 211 63 246 67 219 b 117 50 74 157 81 94 b 150 14 117 50 143 24 z m 199 628 b 201 818 199 657 201 789 b 257 858 206 843 232 858 b 283 854 261 858 275 858 l 304 833 l 308 825 b 315 796 308 822 315 800 b 311 311 315 722 311 385 b 308 197 311 297 308 215 b 261 121 308 161 304 121 l 246 121 b 217 135 246 121 225 132 b 201 157 210 139 201 150 b 199 193 201 161 199 186 z m 111 1026 l 189 1029 l 199 1039 l 236 1088 l 257 1131 l 282 1088 l 315 1039 l 325 1029 l 403 1026 l 410 1035 l 313 1185 b 299 1193 307 1192 306 1192 l 215 1193 b 201 1185 208 1192 207 1192 l 104 1035 z "},"":{"ha":514,"x_min":0,"x_max":0,"o":"m 154 10 b 190 -1 165 3 179 6 b 210 -12 194 -1 206 -12 l 283 -12 b 331 3 293 -12 319 -6 b 440 193 393 43 433 121 b 449 275 444 211 449 271 b 451 510 449 297 451 458 l 451 764 b 356 969 440 833 419 925 b 286 988 338 983 304 983 b 246 990 279 988 250 990 l 232 988 b 194 981 225 988 206 983 b 99 865 146 961 114 914 l 96 851 b 78 814 96 847 78 818 b 69 771 78 814 69 782 b 67 738 69 767 67 744 b 63 693 67 726 63 693 l 63 249 b 67 211 63 246 67 219 b 117 50 74 157 81 94 b 150 14 117 50 143 24 z m 199 628 b 201 818 199 657 201 789 b 257 858 206 843 232 858 b 283 854 261 858 275 858 l 304 833 l 308 825 b 315 796 308 822 315 800 b 311 311 315 722 311 385 b 308 197 311 297 308 215 b 261 121 308 161 304 121 l 246 121 b 217 135 246 121 225 132 b 201 157 210 139 201 150 b 199 193 201 161 199 186 z m 294 1107 b 318 1125 303 1118 308 1125 b 331 1108 324 1125 328 1124 l 331 1057 b 344 1043 331 1047 333 1043 l 392 1044 b 406 1058 400 1044 406 1047 l 406 1126 b 361 1201 403 1167 383 1190 b 331 1203 356 1201 349 1203 b 229 1135 286 1203 263 1178 b 189 1096 215 1118 201 1096 b 181 1113 182 1096 182 1103 l 179 1167 b 165 1181 179 1176 175 1181 l 124 1179 b 110 1165 113 1179 110 1174 l 110 1154 b 108 1101 110 1143 108 1115 b 185 1022 108 1047 143 1022 b 289 1099 233 1022 260 1057 z "},"":{"ha":514,"x_min":0,"x_max":0,"o":"m 154 10 b 190 -1 165 3 179 6 b 210 -12 194 -1 206 -12 l 283 -12 b 331 3 293 -12 319 -6 b 440 193 393 43 433 121 b 449 275 444 211 449 271 b 451 510 449 297 451 458 l 451 764 b 356 969 440 833 419 925 b 286 988 338 983 304 983 b 246 990 279 988 250 990 l 232 988 b 194 981 225 988 206 983 b 99 865 146 961 114 914 l 96 851 b 78 814 96 847 78 818 b 69 771 78 814 69 782 b 67 738 69 767 67 744 b 63 693 67 726 63 693 l 63 249 b 67 211 63 246 67 219 b 117 50 74 157 81 94 b 150 14 117 50 143 24 z m 199 628 b 201 818 199 657 201 789 b 257 858 206 843 232 858 b 283 854 261 858 275 858 l 304 833 l 308 825 b 315 796 308 822 315 800 b 311 311 315 722 311 385 b 308 197 311 297 308 215 b 261 121 308 161 304 121 l 246 121 b 217 135 246 121 225 132 b 201 157 210 139 201 150 b 199 193 201 161 199 186 z m 289 1028 l 404 1028 l 413 1036 b 415 1165 413 1036 413 1092 l 403 1174 l 281 1174 l 276 1160 l 276 1083 l 281 1036 z m 108 1025 l 226 1025 l 236 1033 l 236 1139 l 225 1171 l 103 1171 l 100 1157 l 100 1078 l 99 1033 z "},"":{"ha":514,"x_min":0,"x_max":0,"o":"m 283 -12 b 331 3 293 -12 319 -6 b 440 193 393 43 433 121 b 449 275 444 211 449 271 b 451 510 449 297 451 458 l 451 764 b 394 931 443 817 428 882 b 415 1021 407 988 415 1022 l 410 1028 l 389 1028 b 363 1015 371 1028 369 1026 l 351 972 b 286 988 332 983 303 983 b 246 990 279 988 250 990 l 232 988 b 194 981 225 988 206 983 b 99 865 146 961 114 914 l 96 851 b 78 814 96 847 78 818 b 69 771 78 814 69 782 b 67 738 69 767 67 744 b 63 693 67 726 63 693 l 63 249 b 67 211 63 246 67 219 b 117 50 74 157 81 94 l 122 44 b 104 -32 114 11 106 -19 b 103 -44 103 -36 103 -40 b 128 -65 103 -57 108 -65 b 153 -44 143 -65 147 -57 b 167 4 154 -39 161 -19 b 190 -1 175 3 183 3 b 210 -12 194 -1 206 -12 z m 199 358 l 199 628 b 201 818 199 657 201 789 b 257 858 206 843 232 858 b 283 854 261 858 275 858 l 304 833 l 308 825 b 311 813 308 824 310 818 z m 246 121 b 217 135 246 121 225 132 b 203 150 211 138 206 144 b 314 589 236 276 278 438 b 311 311 313 475 311 351 b 308 197 311 297 308 215 b 261 121 308 161 304 121 z "},"":{"ha":671,"x_min":0,"x_max":0,"o":"m 154 10 b 190 -1 165 3 179 6 b 210 -12 194 -1 206 -12 l 283 -12 b 326 0 292 -12 314 -6 b 342 -4 331 -1 335 -4 b 444 18 365 -4 438 7 b 514 0 468 18 454 -6 b 528 3 519 1 528 4 b 546 -4 528 6 539 -1 b 599 -7 565 -4 582 -7 b 621 85 628 -7 621 75 l 621 110 l 613 113 b 454 115 558 113 469 115 b 440 149 440 119 440 142 l 440 443 b 461 457 440 454 454 457 b 560 454 493 457 526 454 b 567 465 564 457 567 461 l 567 560 b 549 569 567 569 557 569 l 451 569 b 436 746 435 569 436 700 b 444 851 436 767 431 814 l 601 851 b 610 863 606 854 607 861 l 610 964 l 601 971 b 335 979 550 976 422 979 b 286 988 318 983 299 985 b 246 990 279 988 250 990 l 232 988 b 63 693 90 960 63 843 l 63 249 b 67 211 63 246 67 219 b 117 50 74 157 81 94 b 150 14 117 50 143 24 z m 199 628 b 201 818 199 657 201 789 b 257 858 206 843 232 858 b 283 854 261 858 275 858 l 304 833 l 308 825 b 313 810 308 824 310 817 l 313 507 b 311 311 311 421 311 342 b 308 197 311 297 308 215 b 261 121 308 161 304 121 l 246 121 b 217 135 246 121 225 132 b 201 157 210 139 201 150 b 199 193 201 161 199 186 z "},"":{"ha":489,"x_min":0,"x_max":0,"o":"m 292 1 b 433 146 368 11 413 69 b 438 160 433 150 438 160 l 438 306 b 422 347 438 306 426 338 b 228 624 386 453 299 549 b 181 757 190 667 181 704 b 233 853 181 806 175 853 b 275 811 263 853 268 840 b 278 683 278 769 278 725 b 285 672 278 683 281 672 l 393 672 b 397 681 393 672 397 676 b 400 694 397 683 400 692 l 400 739 b 365 924 400 794 403 878 b 335 954 363 926 343 947 b 311 968 332 958 315 968 b 228 979 285 979 258 979 b 150 965 200 979 176 975 b 58 850 106 944 72 899 b 56 826 58 847 56 829 b 49 725 49 792 49 760 b 256 365 49 582 168 460 b 306 213 294 324 306 272 b 263 118 306 178 303 129 l 256 118 b 200 136 238 118 211 122 l 183 160 b 181 206 183 167 181 199 l 181 344 l 176 347 l 56 347 l 53 344 l 53 240 b 56 185 53 233 56 194 b 136 21 63 118 69 49 b 200 1 157 14 181 1 z m 192 1017 l 275 1017 b 289 1025 282 1018 283 1018 l 386 1175 l 379 1183 l 301 1181 l 292 1171 l 254 1122 l 233 1079 l 208 1122 l 175 1171 l 165 1181 l 88 1183 l 81 1175 l 178 1025 b 192 1017 183 1018 185 1018 z "},"":{"ha":471,"x_min":0,"x_max":0,"o":"m 82 -3 l 107 -3 b 176 1 133 -3 151 -3 b 192 13 183 1 188 8 b 199 19 192 17 199 19 l 199 224 l 203 226 b 276 231 213 226 265 231 b 335 242 294 231 319 235 b 386 286 353 249 371 271 b 389 293 386 286 389 289 b 397 311 389 296 397 311 b 408 392 404 336 404 365 b 413 425 408 396 413 422 b 415 472 413 429 415 469 b 428 588 419 510 428 550 b 375 749 428 646 415 704 b 349 771 368 756 360 767 b 276 785 328 782 299 785 l 189 785 l 189 961 b 175 975 189 971 185 975 l 82 975 b 67 968 78 975 71 972 l 67 663 b 71 579 67 651 71 590 l 71 75 b 74 38 71 72 74 46 b 82 -3 74 26 71 6 z m 194 358 b 199 656 194 403 199 613 b 225 667 203 671 217 667 b 299 617 258 667 294 653 b 301 494 301 568 301 539 b 299 392 301 465 301 422 b 221 336 290 351 263 336 b 194 354 210 336 194 340 z "},"":{"ha":510,"x_min":0,"x_max":0,"o":"m 436 135 l 439 146 b 443 165 439 150 443 161 b 447 326 443 189 447 304 l 447 613 b 443 676 443 638 443 650 b 451 722 443 692 451 707 b 447 919 451 792 447 851 l 443 928 b 421 954 439 931 424 950 b 394 981 408 969 417 981 b 375 974 386 981 382 981 l 329 974 l 322 969 l 318 965 l 311 135 b 303 119 311 135 307 124 b 242 97 288 101 265 97 b 207 124 226 97 215 113 b 203 135 207 124 203 131 b 196 161 200 143 196 161 l 196 976 l 185 981 l 150 976 b 135 965 146 969 142 965 b 119 976 128 965 124 969 l 67 976 l 63 974 b 60 851 63 974 60 885 l 60 563 b 63 543 60 558 63 547 b 60 517 63 540 60 521 l 60 497 b 63 451 60 482 63 467 l 63 447 b 60 390 63 444 60 394 l 60 239 b 67 108 60 219 67 128 b 261 -17 96 -6 165 -17 b 436 117 361 -17 410 40 z m 214 1015 l 300 1013 l 307 1022 l 242 1231 b 226 1240 236 1238 235 1238 l 144 1240 l 139 1235 l 175 1107 l 203 1026 z "},"":{"ha":510,"x_min":0,"x_max":0,"o":"m 436 135 l 439 146 b 443 165 439 150 443 161 b 447 326 443 189 447 304 l 447 613 b 443 676 443 638 443 650 b 451 722 443 692 451 707 b 447 919 451 792 447 851 l 443 928 b 421 954 439 931 424 950 b 394 981 408 969 417 981 b 375 974 386 981 382 981 l 329 974 l 322 969 l 318 965 l 311 135 b 303 119 311 135 307 124 b 242 97 288 101 265 97 b 207 124 226 97 215 113 b 203 135 207 124 203 131 b 196 161 200 143 196 161 l 196 976 l 185 981 l 150 976 b 135 965 146 969 142 965 b 119 976 128 965 124 969 l 67 976 l 63 974 b 60 851 63 974 60 885 l 60 563 b 63 543 60 558 63 547 b 60 517 63 540 60 521 l 60 497 b 63 451 60 482 63 467 l 63 447 b 60 390 63 444 60 394 l 60 239 b 67 108 60 219 67 128 b 261 -17 96 -6 165 -17 b 436 117 361 -17 410 40 z m 217 1013 l 303 1015 l 314 1026 l 342 1107 l 378 1235 l 372 1240 l 290 1240 b 275 1231 282 1238 281 1238 l 210 1022 z "},"":{"ha":510,"x_min":0,"x_max":0,"o":"m 436 135 l 439 146 b 443 165 439 150 443 161 b 447 326 443 189 447 304 l 447 613 b 443 676 443 638 443 650 b 451 722 443 692 451 707 b 447 919 451 792 447 851 l 443 928 b 421 954 439 931 424 950 b 394 981 408 969 417 981 b 375 974 386 981 382 981 l 329 974 l 322 969 l 318 965 l 311 135 b 303 119 311 135 307 124 b 242 97 288 101 265 97 b 207 124 226 97 215 113 b 203 135 207 124 203 131 b 196 161 200 143 196 161 l 196 976 l 185 981 l 150 976 b 135 965 146 969 142 965 b 119 976 128 965 124 969 l 67 976 l 63 974 b 60 851 63 974 60 885 l 60 563 b 63 543 60 558 63 547 b 60 517 63 540 60 521 l 60 497 b 63 451 60 482 63 467 l 63 447 b 60 390 63 444 60 394 l 60 239 b 67 108 60 219 67 128 b 261 -17 96 -6 165 -17 b 436 117 361 -17 410 40 z m 108 1029 l 186 1032 l 196 1042 l 233 1090 l 254 1133 l 279 1090 l 313 1042 l 322 1032 l 400 1029 l 407 1038 l 310 1188 b 296 1196 304 1194 303 1194 l 213 1196 b 199 1188 206 1194 204 1194 l 101 1038 z "},"":{"ha":510,"x_min":0,"x_max":0,"o":"m 436 135 l 439 146 b 443 165 439 150 443 161 b 447 326 443 189 447 304 l 447 613 b 443 676 443 638 443 650 b 451 722 443 692 451 707 b 447 919 451 792 447 851 l 443 928 b 421 954 439 931 424 950 b 394 981 408 969 417 981 b 375 974 386 981 382 981 l 329 974 l 322 969 l 318 965 l 311 135 b 303 119 311 135 307 124 b 242 97 288 101 265 97 b 207 124 226 97 215 113 b 203 135 207 124 203 131 b 196 161 200 143 196 161 l 196 976 l 185 981 l 150 976 b 135 965 146 969 142 965 b 119 976 128 965 124 969 l 67 976 l 63 974 b 60 851 63 974 60 885 l 60 563 b 63 543 60 558 63 547 b 60 517 63 540 60 521 l 60 497 b 63 451 60 482 63 467 l 63 447 b 60 390 63 444 60 394 l 60 239 b 67 108 60 219 67 128 b 261 -17 96 -6 165 -17 b 436 117 361 -17 410 40 z m 285 1029 l 400 1029 l 408 1038 b 411 1167 408 1038 408 1093 l 399 1175 l 276 1175 l 272 1161 l 272 1085 l 276 1038 z m 104 1026 l 222 1026 l 232 1035 l 232 1140 l 221 1172 l 99 1172 l 96 1158 l 96 1079 l 94 1035 z "},"":{"ha":476,"x_min":0,"x_max":0,"o":"m 188 15 b 192 1 188 13 192 1 l 199 -3 l 304 -3 l 311 4 l 311 271 b 318 324 311 271 315 308 b 332 397 322 347 329 372 b 339 432 332 401 339 429 b 378 665 353 511 364 588 b 435 960 396 765 413 863 l 435 964 b 424 975 435 968 432 975 l 315 975 l 311 971 l 307 960 b 304 922 307 957 304 925 b 272 711 293 851 282 782 b 261 631 268 688 268 656 b 254 617 261 628 258 617 b 243 635 243 617 243 631 b 240 656 243 638 240 651 b 179 950 219 754 201 851 b 176 964 179 953 176 964 b 158 975 172 971 165 975 l 49 975 l 42 971 l 42 960 b 53 886 42 936 49 911 b 89 718 64 829 78 775 l 158 381 b 179 274 165 344 176 308 l 179 221 b 183 97 179 203 183 118 b 188 24 183 90 188 31 z m 199 1011 l 285 1014 l 296 1025 l 324 1106 l 360 1233 l 354 1239 l 272 1239 b 257 1229 264 1236 263 1236 l 192 1021 z "},"":{"ha":476,"x_min":0,"x_max":0,"o":"m 188 15 b 192 1 188 13 192 1 l 199 -3 l 304 -3 l 311 4 l 311 271 b 318 324 311 271 315 308 b 332 397 322 347 329 372 b 339 432 332 401 339 429 b 378 665 353 511 364 588 b 435 960 396 765 413 863 l 435 964 b 424 975 435 968 432 975 l 315 975 l 311 971 l 307 960 b 304 922 307 957 304 925 b 272 711 293 851 282 782 b 261 631 268 688 268 656 b 254 617 261 628 258 617 b 243 635 243 617 243 631 b 240 656 243 638 240 651 b 179 950 219 754 201 851 b 176 964 179 953 176 964 b 158 975 172 971 165 975 l 49 975 l 42 971 l 42 960 b 53 886 42 936 49 911 b 89 718 64 829 78 775 l 158 381 b 179 274 165 344 176 308 l 179 221 b 183 97 179 203 183 118 b 188 24 183 90 188 31 z m 269 1026 l 385 1026 l 393 1035 b 396 1164 393 1035 393 1090 l 383 1172 l 261 1172 l 257 1158 l 257 1082 l 261 1035 z m 89 1024 l 207 1024 l 217 1032 l 217 1138 l 206 1169 l 83 1169 l 81 1156 l 81 1076 l 79 1032 z "},"":{"ha":418,"x_min":0,"x_max":0,"o":"m 56 49 b 83 -8 56 32 56 -8 b 103 -4 88 -8 99 -4 l 257 -4 l 268 -1 l 275 -1 l 289 -8 l 317 -8 b 342 -11 321 -8 338 -11 b 358 18 356 -11 358 10 b 363 39 358 25 363 39 l 363 106 l 356 108 l 232 108 b 196 111 229 108 204 111 l 356 838 b 361 858 349 851 358 858 l 351 964 l 344 971 b 278 975 344 971 299 975 b 92 979 218 979 156 979 l 63 979 l 56 975 l 56 885 b 86 854 56 863 65 854 l 232 853 l 56 122 z m 167 1026 l 250 1026 b 264 1035 257 1028 258 1028 l 361 1185 l 354 1193 l 276 1190 l 267 1181 l 229 1132 l 208 1089 l 183 1132 l 150 1181 l 140 1190 l 63 1193 l 56 1185 l 153 1035 b 167 1026 158 1028 160 1028 z "},"":{"ha":508,"x_min":0,"x_max":0,"o":"m 144 -3 b 189 161 182 -3 161 161 l 308 161 b 328 31 315 156 328 60 b 342 -7 328 18 328 -7 l 463 -7 l 467 -3 b 456 94 467 31 458 61 b 410 439 453 114 421 314 b 406 461 410 442 406 457 l 383 644 b 365 761 378 682 368 724 b 331 969 354 831 351 901 b 313 971 325 969 318 971 l 250 1174 b 235 1183 244 1181 243 1181 l 153 1183 l 147 1178 l 183 1050 l 210 971 l 185 971 b 156 806 179 963 156 840 b 136 717 151 776 139 746 b 107 506 129 644 114 576 b 51 61 83 358 71 208 b 43 19 51 57 43 24 b 47 1 43 15 40 1 b 133 -3 58 1 122 -3 z m 200 278 b 193 293 196 279 190 285 b 204 371 193 318 200 344 b 238 631 215 457 236 536 b 249 642 238 633 242 642 b 282 411 261 642 281 410 b 293 282 282 290 300 300 l 290 278 z "},"":{"ha":508,"x_min":0,"x_max":0,"o":"m 144 -3 b 189 161 182 -3 161 161 l 308 161 b 328 31 315 156 328 60 b 342 -7 328 18 328 -7 l 463 -7 l 467 -3 b 456 94 467 31 458 61 b 410 439 453 114 421 314 b 406 461 410 442 406 457 l 383 644 b 365 761 378 682 368 724 b 331 969 354 831 351 901 b 311 971 324 969 317 971 l 338 1047 l 374 1175 l 368 1181 l 286 1181 b 271 1171 278 1178 276 1178 l 208 971 l 185 971 b 156 806 179 963 156 840 b 136 717 151 776 139 746 b 107 506 129 644 114 576 b 51 61 83 358 71 208 b 43 19 51 57 43 24 b 47 1 43 15 40 1 b 133 -3 58 1 122 -3 z m 200 278 b 193 293 196 279 190 285 b 204 371 193 318 200 344 b 238 631 215 457 236 536 b 249 642 238 633 242 642 b 282 411 261 642 281 410 b 293 282 282 290 300 300 l 290 278 z "},"":{"ha":508,"x_min":0,"x_max":0,"o":"m 144 -3 b 189 161 182 -3 161 161 l 308 161 b 328 31 315 156 328 60 b 342 -7 328 18 328 -7 l 463 -7 l 467 -3 b 456 94 467 31 458 61 b 410 439 453 114 421 314 b 406 461 410 442 406 457 l 383 644 b 365 761 378 682 368 724 b 331 969 354 831 351 901 b 185 971 281 974 231 971 b 156 806 179 963 156 840 b 136 717 151 776 139 746 b 107 506 129 644 114 576 b 51 61 83 358 71 208 b 43 19 51 57 43 24 b 47 1 43 15 40 1 b 133 -3 58 1 122 -3 z m 200 278 b 193 293 196 279 190 285 b 204 371 193 318 200 344 b 238 631 215 457 236 536 b 249 642 238 633 242 642 b 282 411 261 642 281 410 b 293 282 282 290 300 300 l 290 278 z m 108 1017 l 186 1019 l 196 1029 l 233 1078 l 254 1121 l 279 1078 l 313 1029 l 322 1019 l 400 1017 l 407 1025 l 310 1175 b 296 1183 304 1182 303 1182 l 213 1183 b 199 1175 206 1182 204 1182 l 101 1025 z "},"":{"ha":508,"x_min":0,"x_max":0,"o":"m 144 -3 b 189 161 182 -3 161 161 l 308 161 b 328 31 315 156 328 60 b 342 -7 328 18 328 -7 l 463 -7 l 467 -3 b 456 94 467 31 458 61 b 410 439 453 114 421 314 b 406 461 410 442 406 457 l 383 644 b 365 761 378 682 368 724 b 331 969 354 831 351 901 b 185 971 281 974 231 971 b 156 806 179 963 156 840 b 136 717 151 776 139 746 b 107 506 129 644 114 576 b 51 61 83 358 71 208 b 43 19 51 57 43 24 b 47 1 43 15 40 1 b 133 -3 58 1 122 -3 z m 200 278 b 193 293 196 279 190 285 b 204 371 193 318 200 344 b 238 631 215 457 236 536 b 249 642 238 633 242 642 b 282 411 261 642 281 410 b 293 282 282 290 300 300 l 290 278 z m 292 1101 b 315 1119 300 1113 306 1119 b 328 1103 321 1119 325 1118 l 328 1051 b 342 1038 328 1042 331 1038 l 389 1039 b 403 1053 397 1039 403 1042 l 403 1121 b 358 1196 400 1161 381 1185 b 328 1197 353 1196 346 1197 b 226 1129 283 1197 260 1172 b 186 1090 213 1113 199 1090 b 178 1107 179 1090 179 1097 l 176 1161 b 163 1175 176 1171 172 1175 l 121 1174 b 107 1160 110 1174 107 1168 l 107 1149 b 106 1096 107 1138 106 1110 b 182 1017 106 1042 140 1017 b 286 1093 231 1017 257 1051 z "},"":{"ha":508,"x_min":0,"x_max":0,"o":"m 144 -3 b 189 161 182 -3 161 161 l 308 161 b 328 31 315 156 328 60 b 342 -7 328 18 328 -7 l 463 -7 l 467 -3 b 456 94 467 31 458 61 b 410 439 453 114 421 314 b 406 461 410 442 406 457 l 383 644 b 365 761 378 682 368 724 b 331 969 354 831 351 901 b 185 971 281 974 231 971 b 156 806 179 963 156 840 b 136 717 151 776 139 746 b 107 506 129 644 114 576 b 51 61 83 358 71 208 b 43 19 51 57 43 24 b 47 1 43 15 40 1 b 133 -3 58 1 122 -3 z m 200 278 b 193 293 196 279 190 285 b 204 371 193 318 200 344 b 238 631 215 457 236 536 b 249 642 238 633 242 642 b 282 411 261 642 281 410 b 293 282 282 290 300 300 l 290 278 z m 286 1029 l 401 1029 l 410 1038 b 413 1167 410 1038 410 1093 l 400 1175 l 278 1175 l 274 1161 l 274 1085 l 278 1038 z m 106 1026 l 224 1026 l 233 1035 l 233 1140 l 222 1172 l 100 1172 l 97 1158 l 97 1079 l 96 1035 z "},"":{"ha":508,"x_min":0,"x_max":0,"o":"m 144 -3 b 189 161 182 -3 161 161 l 308 161 b 328 31 315 156 328 60 b 342 -7 328 18 328 -7 l 463 -7 l 467 -3 b 456 94 467 31 458 61 b 410 439 453 114 421 314 b 406 461 410 442 406 457 l 383 644 b 365 761 378 682 368 724 b 339 936 356 819 353 878 b 399 1046 389 961 399 1003 b 283 1178 399 1060 376 1178 l 261 1178 b 132 1114 189 1178 163 1150 b 121 1093 126 1107 126 1097 l 115 1043 b 175 933 115 992 135 954 b 156 806 165 893 156 829 b 136 717 151 776 139 746 b 107 506 129 644 114 576 b 51 61 83 358 71 208 b 43 19 51 57 43 24 b 47 1 43 15 40 1 b 133 -3 58 1 122 -3 z m 200 278 b 193 293 196 279 190 285 b 204 371 193 318 200 344 b 238 631 215 457 236 536 b 249 642 238 633 242 642 b 282 411 261 642 281 410 b 293 282 282 290 300 300 l 290 278 z m 239 983 b 181 1050 193 983 181 1042 b 224 1108 181 1074 186 1097 b 239 1114 228 1113 233 1114 l 256 1114 b 282 1113 264 1114 272 1114 b 325 1051 306 1108 325 1081 l 322 1025 b 319 1014 319 1022 319 1015 b 250 983 301 996 286 983 z "},"":{"ha":649,"x_min":0,"x_max":0,"o":"m 113 -3 b 176 161 150 -3 149 161 l 296 161 b 299 146 297 160 299 154 b 297 33 299 108 297 71 l 297 15 b 310 -7 297 4 300 -7 b 589 -1 468 4 574 -1 l 600 -1 b 607 0 603 0 607 0 b 614 7 610 0 614 7 l 611 111 b 597 125 611 121 607 125 l 442 122 b 433 126 439 122 436 124 b 431 257 433 156 431 204 b 433 392 432 313 433 376 b 436 433 432 399 436 426 b 465 444 443 444 450 444 b 539 442 489 444 514 442 b 563 453 546 443 564 443 b 567 503 563 460 567 496 b 565 532 567 503 565 524 l 565 556 b 551 567 563 567 558 567 b 463 561 522 565 492 561 b 433 572 451 561 442 561 l 433 603 b 439 849 432 678 438 771 b 461 863 443 858 450 863 b 586 861 503 864 543 861 l 600 861 l 607 868 b 608 936 607 868 608 915 l 608 943 b 604 972 608 951 604 972 l 597 975 b 357 976 597 975 428 979 l 310 976 l 304 971 l 267 971 b 218 806 261 963 222 840 b 189 717 211 776 194 746 b 135 506 174 644 150 576 b 28 61 94 358 64 208 b 15 19 28 57 18 24 b 18 1 15 15 11 1 b 101 -3 28 1 90 -3 z m 207 278 b 201 293 203 279 197 285 b 221 371 204 318 215 344 b 286 631 243 457 274 536 b 297 642 286 633 290 642 b 304 413 311 642 303 399 b 300 282 289 290 310 300 l 297 278 z "},"":{"ha":494,"x_min":0,"x_max":0,"o":"m 128 -135 l 124 -153 l 126 -224 l 143 -232 b 308 -78 263 -232 314 -169 l 304 -14 l 307 -14 b 378 17 329 -7 360 -3 b 450 256 443 81 450 168 l 450 308 b 435 347 447 317 439 347 b 344 350 419 347 360 350 l 336 350 b 325 347 333 350 325 350 l 325 149 b 311 126 325 149 314 133 l 307 122 b 257 104 292 115 276 104 b 204 149 235 104 208 126 b 200 201 204 157 200 194 l 200 225 b 204 794 200 415 204 604 b 250 863 204 829 211 863 b 276 858 257 863 268 863 b 299 829 288 851 299 843 b 303 765 299 821 303 776 l 303 674 l 307 669 l 417 669 l 419 674 b 424 750 428 696 424 726 b 382 931 424 810 424 885 b 311 985 360 954 340 974 b 299 989 307 985 299 989 b 154 961 247 993 207 997 b 67 753 86 913 71 832 b 63 631 67 738 63 650 l 63 206 b 169 -3 67 122 82 32 b 208 -14 178 -7 204 -14 l 210 -14 l 210 -62 b 128 -135 207 -153 128 -135 z "},"":{"ha":489,"x_min":0,"x_max":0,"o":"m 78 -3 l 103 -3 b 172 1 129 -3 147 -3 l 194 -3 l 199 1 b 272 4 208 1 261 4 b 331 15 290 4 315 8 b 422 181 417 60 422 125 b 424 778 422 282 424 740 b 371 939 424 836 411 894 b 344 961 364 946 356 957 b 272 975 324 972 294 975 l 78 975 b 63 968 74 975 67 972 l 63 663 b 67 579 63 651 67 590 l 67 524 b 29 525 51 524 36 524 l 25 522 l 24 479 l 24 476 b 33 465 24 472 24 465 l 67 465 l 67 75 b 69 38 67 72 69 46 b 78 -3 69 26 67 6 z m 190 129 l 190 133 b 192 465 190 153 192 306 l 238 465 b 247 467 238 465 244 467 l 254 467 b 260 471 256 467 260 471 l 257 518 b 244 525 257 522 254 525 l 192 525 b 194 846 193 679 194 825 b 221 857 199 861 213 857 b 294 807 254 857 290 843 b 297 685 297 758 297 729 b 294 167 297 656 297 196 b 217 111 286 126 258 111 b 190 129 206 111 190 115 z m 160 150 b 153 161 153 150 153 154 b 164 169 153 165 156 169 b 171 165 168 169 171 169 b 160 150 171 158 168 150 z "},"":{"ha":421,"x_min":0,"x_max":0,"o":"m 63 26 b 74 6 63 19 63 6 b 219 4 96 6 197 4 b 354 -1 233 4 339 -1 l 365 -1 b 372 0 368 0 372 0 b 379 7 375 0 379 7 l 376 125 l 207 122 b 196 132 203 122 196 129 l 196 157 b 194 178 196 160 194 178 b 199 392 194 217 199 367 b 201 433 197 399 201 426 b 231 444 208 444 215 444 b 304 442 254 444 279 442 b 328 453 311 443 329 443 b 332 503 328 460 332 496 b 331 532 332 503 331 524 l 331 556 b 317 567 328 567 324 567 b 228 561 288 565 257 561 b 199 572 217 561 207 561 l 199 603 b 204 849 197 678 203 771 b 226 863 208 858 215 863 b 351 861 268 864 308 861 l 365 861 l 372 868 b 374 936 372 868 374 915 l 374 943 b 369 972 374 951 369 972 l 363 975 b 269 976 363 975 321 976 l 211 1165 b 196 1175 206 1172 204 1172 l 114 1175 l 108 1169 l 144 1042 l 167 976 l 122 976 l 75 976 l 68 969 l 68 944 b 67 586 69 910 67 621 b 63 33 67 403 65 218 z "},"":{"ha":421,"x_min":0,"x_max":0,"o":"m 63 26 b 74 6 63 19 63 6 b 219 4 96 6 197 4 b 354 -1 233 4 339 -1 l 365 -1 b 372 0 368 0 372 0 b 379 7 375 0 379 7 l 376 125 l 207 122 b 196 132 203 122 196 129 l 196 157 b 194 178 196 160 194 178 b 199 392 194 217 199 367 b 201 433 197 399 201 426 b 231 444 208 444 215 444 b 304 442 254 444 279 442 b 328 453 311 443 329 443 b 332 503 328 460 332 496 b 331 532 332 503 331 524 l 331 556 b 317 567 328 567 324 567 b 228 561 288 565 257 561 b 199 572 217 561 207 561 l 199 603 b 204 849 197 678 203 771 b 226 863 208 858 215 863 b 351 861 268 864 308 861 l 365 861 l 372 868 b 374 936 372 868 374 915 l 374 943 b 369 972 374 951 369 972 l 363 975 b 257 976 363 975 313 976 l 283 1054 l 319 1182 l 314 1188 l 232 1188 b 217 1178 224 1185 222 1185 l 153 976 l 122 976 l 75 976 l 68 969 l 68 944 b 67 586 69 910 67 621 b 63 33 67 403 65 218 z "},"":{"ha":421,"x_min":0,"x_max":0,"o":"m 63 26 b 74 6 63 19 63 6 b 219 4 96 6 197 4 b 354 -1 233 4 339 -1 l 365 -1 b 372 0 368 0 372 0 b 379 7 375 0 379 7 l 376 125 l 207 122 b 196 132 203 122 196 129 l 196 157 b 194 178 196 160 194 178 b 199 392 194 217 199 367 b 201 433 197 399 201 426 b 231 444 208 444 215 444 b 304 442 254 444 279 442 b 328 453 311 443 329 443 b 332 503 328 460 332 496 b 331 532 332 503 331 524 l 331 556 b 317 567 328 567 324 567 b 228 561 288 565 257 561 b 199 572 217 561 207 561 l 199 603 b 204 849 197 678 203 771 b 226 863 208 858 215 863 b 351 861 268 864 308 861 l 365 861 l 372 868 b 374 936 372 868 374 915 l 374 943 b 369 972 374 951 369 972 l 363 975 b 122 976 363 975 193 979 l 75 976 l 68 969 l 68 944 b 67 586 69 910 67 621 b 63 33 67 403 65 218 z m 64 1021 l 142 1024 l 151 1033 l 189 1082 l 210 1125 l 235 1082 l 268 1033 l 278 1024 l 356 1021 l 363 1029 l 265 1179 b 251 1188 260 1186 258 1186 l 168 1188 b 154 1179 161 1186 160 1186 l 57 1029 z "},"":{"ha":421,"x_min":0,"x_max":0,"o":"m 63 26 b 74 6 63 19 63 6 b 219 4 96 6 197 4 b 354 -1 233 4 339 -1 l 365 -1 b 372 0 368 0 372 0 b 379 7 375 0 379 7 l 376 125 l 207 122 b 196 132 203 122 196 129 l 196 157 b 194 178 196 160 194 178 b 199 392 194 217 199 367 b 201 433 197 399 201 426 b 231 444 208 444 215 444 b 304 442 254 444 279 442 b 328 453 311 443 329 443 b 332 503 328 460 332 496 b 331 532 332 503 331 524 l 331 556 b 317 567 328 567 324 567 b 228 561 288 565 257 561 b 199 572 217 561 207 561 l 199 603 b 204 849 197 678 203 771 b 226 863 208 858 215 863 b 351 861 268 864 308 861 l 365 861 l 372 868 b 374 936 372 868 374 915 l 374 943 b 369 972 374 951 369 972 l 363 975 b 122 976 363 975 193 979 l 75 976 l 68 969 l 68 944 b 67 586 69 910 67 621 b 63 33 67 403 65 218 z m 242 1026 l 357 1026 l 365 1035 b 368 1164 365 1035 365 1090 l 356 1172 l 233 1172 l 229 1158 l 229 1082 l 233 1035 z m 61 1024 l 179 1024 l 189 1032 l 189 1138 l 178 1169 l 56 1169 l 53 1156 l 53 1076 l 51 1032 z "},"":{"ha":274,"x_min":0,"x_max":0,"o":"m 72 0 l 79 -7 l 190 -7 l 199 0 b 197 235 199 0 197 164 b 200 356 197 275 199 315 l 204 490 l 206 865 l 210 911 l 210 967 b 194 981 206 974 201 981 l 83 974 b 72 958 79 974 72 963 l 72 624 l 69 206 l 68 42 z "},"":{"ha":274,"x_min":0,"x_max":0,"o":"m 72 0 l 79 -7 l 190 -7 l 199 0 b 197 235 199 0 197 164 b 200 356 197 275 199 315 l 204 490 l 206 865 l 210 911 l 210 967 b 194 981 206 974 201 981 l 189 979 l 126 1179 b 111 1189 121 1186 119 1186 l 29 1189 l 24 1183 l 60 1056 l 88 975 l 89 974 l 83 974 b 72 958 79 974 72 963 l 72 624 l 69 206 l 68 42 z "},"":{"ha":274,"x_min":0,"x_max":0,"o":"m 72 0 l 79 -7 l 190 -7 l 199 0 b 197 235 199 0 197 164 b 200 356 197 275 199 315 l 204 490 l 206 865 l 210 911 l 210 967 b 199 979 206 972 203 978 l 224 1053 l 260 1181 l 254 1186 l 172 1186 b 157 1176 164 1183 163 1183 l 93 974 l 83 974 b 72 958 79 974 72 963 l 72 624 l 69 206 l 68 42 z "},"":{"ha":274,"x_min":0,"x_max":0,"o":"m 72 0 l 79 -7 l 190 -7 l 199 0 b 197 235 199 0 197 164 b 200 356 197 275 199 315 l 204 490 l 206 865 l 210 911 l 210 967 b 194 981 206 974 201 981 l 83 974 b 72 958 79 974 72 963 l 72 624 l 69 206 l 68 42 z m -8 1021 l 69 1024 l 79 1033 l 117 1082 l 138 1125 l 163 1082 l 196 1033 l 206 1024 l 283 1021 l 290 1029 l 193 1179 b 179 1188 188 1186 186 1186 l 96 1188 b 82 1179 89 1186 88 1186 l -15 1029 z "},"":{"ha":274,"x_min":0,"x_max":0,"o":"m 72 0 l 79 -7 l 190 -7 l 199 0 b 197 235 199 0 197 164 b 200 356 197 275 199 315 l 204 490 l 206 865 l 210 911 l 210 967 b 194 981 206 974 201 981 l 83 974 b 72 958 79 974 72 963 l 72 624 l 69 206 l 68 42 z m 169 1029 l 285 1029 l 293 1038 b 296 1167 293 1038 293 1093 l 283 1175 l 161 1175 l 157 1161 l 157 1085 l 161 1038 z m -11 1026 l 107 1026 l 117 1035 l 117 1140 l 106 1172 l -17 1172 l -19 1158 l -19 1079 l -21 1035 z "},"":{"ha":425,"x_min":0,"x_max":0,"o":"m 26 388 l 63 414 l 63 311 b 67 35 63 236 67 42 l 69 14 b 85 0 71 4 75 0 l 385 0 l 385 113 b 374 128 385 117 378 128 l 210 128 b 199 139 206 128 199 135 l 199 517 l 332 613 b 340 619 332 613 336 617 b 346 624 342 621 346 624 b 349 631 347 625 349 631 l 338 682 l 199 579 l 199 826 b 203 931 199 840 203 915 l 203 964 l 190 975 l 78 979 b 63 968 71 979 63 975 l 63 478 b 10 442 38 460 15 444 l 7 438 l 10 392 l 11 389 b 26 388 13 388 17 382 z "},"":{"ha":572,"x_min":0,"x_max":0,"o":"m 65 13 b 168 0 97 -4 133 -4 b 194 28 179 0 194 15 b 190 513 193 164 189 375 l 194 517 l 197 517 b 324 26 215 500 314 113 b 332 7 324 22 328 11 b 344 -4 335 3 344 -4 l 493 -1 l 500 6 b 510 675 500 6 510 474 b 510 922 508 758 511 839 l 510 956 b 490 971 506 963 501 971 l 383 969 l 376 961 b 382 613 378 908 382 665 b 386 456 382 597 385 471 b 388 353 386 440 388 368 b 379 349 388 349 383 349 b 368 363 372 347 368 356 b 364 386 368 367 364 382 b 351 431 364 393 356 424 b 254 742 319 538 283 636 b 217 886 243 790 231 836 b 76 971 215 989 149 974 b 61 940 64 971 61 949 b 64 71 63 651 67 358 b 65 43 64 71 65 47 z m 317 1101 b 340 1119 325 1113 331 1119 b 353 1103 346 1119 350 1118 l 353 1051 b 367 1038 353 1042 356 1038 l 414 1039 b 428 1053 422 1039 428 1042 l 428 1121 b 383 1196 425 1161 406 1185 b 353 1197 378 1196 371 1197 b 251 1129 308 1197 285 1172 b 211 1090 238 1113 224 1090 b 203 1107 204 1090 204 1097 l 201 1161 b 188 1175 201 1171 197 1175 l 146 1174 b 132 1160 135 1174 132 1168 l 132 1149 b 131 1096 132 1138 131 1110 b 207 1017 131 1042 165 1017 b 311 1093 256 1017 282 1051 z "},"":{"ha":501,"x_min":0,"x_max":0,"o":"m 247 -12 b 422 128 344 -12 383 49 b 439 178 431 143 431 163 l 446 288 l 446 794 b 439 829 446 799 443 822 b 308 972 425 897 389 956 l 246 1175 b 231 1185 240 1182 239 1182 l 149 1185 l 143 1179 l 179 1051 l 207 971 b 60 665 79 935 60 768 b 56 353 60 619 56 400 l 56 342 b 79 124 60 264 64 197 b 153 11 92 76 118 42 b 217 -12 168 -6 196 -12 z m 200 154 l 200 665 b 204 810 200 689 204 786 b 208 822 204 814 208 822 b 232 844 213 826 228 844 b 258 853 232 844 251 853 l 263 853 b 310 803 290 853 310 826 l 310 579 b 306 283 310 533 306 326 b 301 178 306 268 301 194 b 254 113 301 150 290 113 b 200 154 232 113 204 128 z "},"":{"ha":501,"x_min":0,"x_max":0,"o":"m 247 -12 b 422 128 344 -12 383 49 b 439 178 431 143 431 163 l 446 288 l 446 794 b 439 829 446 799 443 822 b 311 972 425 897 389 956 l 338 1049 l 374 1176 l 368 1182 l 286 1182 b 271 1172 278 1179 276 1179 l 207 971 b 60 665 79 936 60 768 b 56 353 60 619 56 400 l 56 342 b 79 124 60 264 64 197 b 153 11 92 76 118 42 b 217 -12 168 -6 196 -12 z m 200 154 l 200 665 b 204 810 200 689 204 786 b 208 822 204 814 208 822 b 232 844 213 826 228 844 b 258 853 232 844 251 853 l 263 853 b 310 803 290 853 310 826 l 310 579 b 306 283 310 533 306 326 b 301 178 306 268 301 194 b 254 113 301 150 290 113 b 200 154 232 113 204 128 z "},"":{"ha":501,"x_min":0,"x_max":0,"o":"m 247 -12 b 422 128 344 -12 383 49 b 439 178 431 143 431 163 l 446 288 l 446 794 b 439 829 446 799 443 822 b 258 978 422 911 375 978 b 60 665 85 978 60 781 b 56 353 60 619 56 400 l 56 342 b 79 124 60 264 64 197 b 153 11 92 76 118 42 b 217 -12 168 -6 196 -12 z m 200 154 l 200 665 b 204 810 200 689 204 786 b 208 822 204 814 208 822 b 232 844 213 826 228 844 b 258 853 232 844 251 853 l 263 853 b 310 803 290 853 310 826 l 310 579 b 306 283 310 533 306 326 b 301 178 306 268 301 194 b 254 113 301 150 290 113 b 200 154 232 113 204 128 z m 113 1014 l 190 1017 l 200 1026 l 238 1075 l 258 1118 l 283 1075 l 317 1026 l 326 1017 l 404 1014 l 411 1022 l 314 1172 b 300 1181 308 1179 307 1179 l 217 1181 b 203 1172 210 1179 208 1179 l 106 1022 z "},"":{"ha":501,"x_min":0,"x_max":0,"o":"m 247 -12 b 422 128 344 -12 383 49 b 439 178 431 143 431 163 l 446 288 l 446 794 b 439 829 446 799 443 822 b 258 978 422 911 375 978 b 60 665 85 978 60 781 b 56 353 60 619 56 400 l 56 342 b 79 124 60 264 64 197 b 153 11 92 76 118 42 b 217 -12 168 -6 196 -12 z m 200 154 l 200 665 b 204 810 200 689 204 786 b 208 822 204 814 208 822 b 232 844 213 826 228 844 b 258 853 232 844 251 853 l 263 853 b 310 803 290 853 310 826 l 310 579 b 306 283 310 533 306 326 b 301 178 306 268 301 194 b 254 113 301 150 290 113 b 200 154 232 113 204 128 z m 288 1107 b 311 1125 296 1118 301 1125 b 324 1108 317 1125 321 1124 l 324 1057 b 338 1043 324 1047 326 1043 l 385 1044 b 399 1058 393 1044 399 1047 l 399 1126 b 354 1201 396 1167 376 1190 b 324 1203 349 1201 342 1203 b 222 1135 279 1203 256 1178 b 182 1096 208 1118 194 1096 b 174 1113 175 1096 175 1103 l 172 1167 b 158 1181 172 1176 168 1181 l 117 1179 b 103 1165 106 1179 103 1174 l 103 1154 b 101 1101 103 1143 101 1115 b 178 1022 101 1047 136 1022 b 282 1099 226 1022 253 1057 z "},"":{"ha":501,"x_min":0,"x_max":0,"o":"m 247 -12 b 422 128 344 -12 383 49 b 439 178 431 143 431 163 l 446 288 l 446 794 b 439 829 446 799 443 822 b 258 978 422 911 375 978 b 60 665 85 978 60 781 b 56 353 60 619 56 400 l 56 342 b 79 124 60 264 64 197 b 153 11 92 76 118 42 b 217 -12 168 -6 196 -12 z m 200 154 l 200 665 b 204 810 200 689 204 786 b 208 822 204 814 208 822 b 232 844 213 826 228 844 b 258 853 232 844 251 853 l 263 853 b 310 803 290 853 310 826 l 310 579 b 306 283 310 533 306 326 b 301 178 306 268 301 194 b 254 113 301 150 290 113 b 200 154 232 113 204 128 z m 286 1032 l 401 1032 l 410 1040 b 413 1169 410 1040 410 1096 l 400 1178 l 278 1178 l 274 1164 l 274 1088 l 278 1040 z m 106 1029 l 224 1029 l 233 1038 l 233 1143 l 222 1175 l 100 1175 l 97 1161 l 97 1082 l 96 1038 z "},"":{"ha":501,"x_min":0,"x_max":0,"o":"m 164 1 b 217 -12 179 -8 200 -12 l 247 -12 b 422 128 344 -12 383 49 b 439 178 431 143 431 163 l 446 288 l 446 794 b 439 829 446 799 443 822 b 392 928 431 867 417 901 b 414 1021 406 986 414 1022 l 408 1028 l 388 1028 b 361 1015 369 1028 368 1026 l 347 960 b 258 978 324 971 293 978 b 60 665 85 978 60 781 b 56 353 60 619 56 400 l 56 342 b 79 124 60 264 64 197 b 121 43 88 92 101 67 b 103 -32 113 11 104 -19 b 101 -44 101 -36 101 -40 b 126 -65 101 -57 107 -65 b 151 -44 142 -65 146 -57 z m 200 369 l 200 665 b 204 810 200 689 204 786 b 208 822 204 814 208 822 b 232 844 213 826 228 844 b 258 853 232 844 251 853 l 263 853 b 308 811 286 853 304 832 z m 201 149 b 310 578 235 271 274 429 b 306 283 310 529 306 326 b 301 178 306 268 301 194 b 254 113 301 150 290 113 b 201 149 233 113 208 125 z "},"":{"ha":669,"x_min":0,"x_max":0,"o":"m 247 -12 b 325 6 278 -12 304 -6 b 461 4 357 6 440 4 b 596 -1 475 4 581 -1 l 607 -1 b 614 0 610 0 614 0 b 621 7 617 0 621 7 l 618 125 l 449 122 b 438 132 444 122 438 129 l 438 157 b 436 178 438 160 436 178 b 440 392 436 217 440 367 b 443 433 439 399 443 426 b 472 444 450 444 457 444 b 546 442 496 444 521 442 b 569 453 553 443 571 443 b 574 503 569 460 574 496 b 572 532 574 503 572 524 l 572 556 b 558 567 569 567 565 567 b 469 561 529 565 499 561 b 440 572 458 561 449 561 l 440 603 b 446 849 439 678 444 771 b 468 863 450 858 457 863 b 593 861 510 864 550 861 l 607 861 l 614 868 b 615 936 614 868 615 915 l 615 943 b 611 972 615 951 611 972 l 604 975 b 364 976 604 975 435 979 l 317 976 l 311 971 b 258 978 296 975 279 978 b 60 665 85 978 60 781 b 56 353 60 619 56 400 l 56 342 b 79 124 60 264 64 197 b 153 11 92 76 118 42 b 217 -12 168 -6 196 -12 z m 200 154 l 200 665 b 204 810 200 689 204 786 b 208 822 204 814 208 822 b 232 844 213 826 228 844 b 258 853 232 844 251 853 l 263 853 b 310 803 290 853 310 826 l 310 740 b 308 586 308 668 308 601 l 308 458 b 306 283 307 386 306 308 b 301 178 306 268 301 194 b 254 113 301 150 290 113 b 200 154 232 113 204 128 z "},"":{"ha":521,"x_min":0,"x_max":0,"o":"m 271 -8 b 329 -4 279 -8 322 -4 b 404 32 360 0 379 11 b 472 225 465 92 472 140 l 472 274 b 468 300 472 278 468 297 b 301 563 451 406 375 490 b 196 699 258 603 213 639 b 193 715 196 703 193 715 l 193 819 b 247 864 193 844 228 864 b 290 840 263 864 283 860 b 301 807 294 832 301 807 l 301 676 l 422 676 l 431 683 l 431 819 b 383 940 422 864 415 908 b 326 969 368 957 344 961 b 279 985 314 972 279 985 l 189 985 b 157 972 189 985 165 976 b 53 747 68 929 53 840 l 53 688 b 126 531 61 639 94 567 b 219 426 157 494 186 458 b 329 225 297 350 329 338 l 329 181 b 326 149 329 174 326 153 b 267 113 318 124 286 113 b 200 149 236 113 217 124 l 196 157 b 193 204 196 165 193 196 l 193 346 l 186 350 b 83 353 186 350 114 353 l 64 353 l 57 346 l 57 240 b 61 176 57 236 61 188 b 126 40 64 113 79 83 b 247 -8 161 8 196 -8 z m 196 1025 l 279 1025 b 293 1033 286 1026 288 1026 l 390 1183 l 383 1192 l 306 1189 l 296 1179 l 258 1131 l 238 1088 l 213 1131 l 179 1179 l 169 1189 l 92 1192 l 85 1183 l 182 1033 b 196 1025 188 1026 189 1026 z "},"":{"ha":1000,"x_min":0,"x_max":0,"o":"m 750 -8 b 808 -4 758 -8 801 -4 b 883 32 839 0 858 11 b 951 225 944 92 951 140 l 951 274 b 947 300 951 278 947 297 b 781 563 931 406 854 490 b 675 699 738 603 692 639 b 672 715 675 703 672 715 l 672 819 b 726 864 672 844 707 864 b 769 840 742 864 763 860 b 781 807 774 832 781 807 l 781 676 l 901 676 l 910 683 l 910 819 b 863 940 901 864 894 908 b 806 969 847 957 824 961 b 758 985 793 972 758 985 l 668 985 b 636 972 668 985 644 976 b 532 747 547 929 532 840 l 532 688 b 606 531 540 639 574 567 b 699 426 636 494 665 458 b 808 225 776 350 808 338 l 808 181 b 806 149 808 174 806 153 b 746 113 797 124 765 113 b 679 149 715 113 696 124 l 675 157 b 672 204 675 165 672 196 l 672 346 l 665 350 b 563 353 665 350 593 353 l 543 353 l 536 346 l 536 240 b 540 176 536 236 540 188 b 606 40 543 113 558 83 b 726 -8 640 8 675 -8 z m 292 1 b 433 146 368 11 413 69 b 438 160 433 150 438 160 l 438 306 b 422 347 438 306 426 338 b 228 624 386 453 299 549 b 181 757 190 667 181 704 b 233 853 181 806 175 853 b 275 811 263 853 268 840 b 278 683 278 769 278 725 b 285 672 278 683 281 672 l 393 672 b 397 681 393 672 397 676 b 400 694 397 683 400 692 l 400 739 b 365 924 400 794 403 878 b 335 954 363 926 343 947 b 311 968 332 958 315 968 b 228 979 285 979 258 979 b 150 965 200 979 176 975 b 58 850 106 944 72 899 b 56 826 58 847 56 829 b 49 725 49 792 49 760 b 256 365 49 582 168 460 b 306 213 294 324 306 272 b 263 118 306 178 303 129 l 256 118 b 200 136 238 118 211 122 l 183 160 b 181 206 183 167 181 199 l 181 344 l 176 347 l 56 347 l 53 344 l 53 240 b 56 185 53 233 56 194 b 136 21 63 118 69 49 b 200 1 157 14 181 1 z "},"":{"ha":472,"x_min":0,"x_max":0,"o":"m 82 -1 l 107 -1 b 176 3 133 -1 151 -1 b 192 14 183 3 188 10 b 199 21 192 18 199 21 b 199 214 193 163 201 85 l 203 217 b 276 221 213 217 265 221 b 335 232 294 221 319 225 b 418 332 374 249 411 294 b 422 364 418 335 422 361 b 426 413 422 368 426 408 b 428 578 429 450 428 540 b 375 739 428 636 415 694 b 349 761 368 746 360 757 b 276 775 328 772 299 775 l 199 775 l 194 963 b 181 976 194 972 190 976 l 82 976 b 67 957 78 976 71 961 l 67 664 b 71 581 67 653 71 592 l 71 76 b 74 39 71 74 74 47 b 82 -1 74 28 71 7 z m 194 349 b 199 646 194 393 199 603 b 225 657 203 661 217 657 b 299 607 258 657 294 643 b 301 485 301 558 301 529 b 299 382 301 456 301 413 b 207 326 290 342 247 326 b 194 344 196 326 194 331 z "},"":{"ha":525,"x_min":0,"x_max":0,"o":"m 457 674 l 461 783 l 461 963 b 442 974 461 974 446 975 b 321 964 413 974 321 981 b 325 949 321 961 321 957 l 325 818 l 329 735 l 325 560 l 325 239 l 321 153 b 289 115 321 142 301 115 l 239 115 b 207 165 228 115 207 153 l 208 938 b 167 976 208 967 196 978 l 79 972 b 68 961 71 972 68 965 b 78 868 68 951 57 876 b 74 853 78 865 74 857 l 74 739 b 67 704 71 735 67 708 b 71 618 67 678 74 644 b 64 208 71 501 64 307 b 254 -6 64 110 92 -6 b 454 165 386 -6 433 69 b 458 189 454 169 458 185 b 460 419 458 279 458 340 b 461 525 460 450 461 485 z m 214 1001 l 300 999 l 307 1008 l 242 1217 b 226 1226 236 1224 235 1224 l 144 1226 l 139 1221 l 175 1093 l 203 1013 z "},"":{"ha":525,"x_min":0,"x_max":0,"o":"m 457 674 l 461 783 l 461 963 b 442 974 461 974 446 975 b 321 964 413 974 321 981 b 325 949 321 961 321 957 l 325 818 l 329 735 l 325 560 l 325 239 l 321 153 b 289 115 321 142 301 115 l 239 115 b 207 165 228 115 207 153 l 208 938 b 167 976 208 967 196 978 l 79 972 b 68 961 71 972 68 965 b 78 868 68 951 57 876 b 74 853 78 865 74 857 l 74 739 b 67 704 71 735 67 708 b 71 618 67 678 74 644 b 64 208 71 501 64 307 b 254 -6 64 110 92 -6 b 454 165 386 -6 433 69 b 458 189 454 169 458 185 b 460 419 458 279 458 340 b 461 525 460 450 461 485 z m 218 997 l 304 1000 l 315 1011 l 343 1092 l 379 1219 l 374 1225 l 292 1225 b 276 1215 283 1222 282 1222 l 211 1007 z "},"":{"ha":525,"x_min":0,"x_max":0,"o":"m 457 674 l 461 783 l 461 963 b 442 974 461 974 446 975 b 321 964 413 974 321 981 b 325 949 321 961 321 957 l 325 818 l 329 735 l 325 560 l 325 239 l 321 153 b 289 115 321 142 301 115 l 239 115 b 207 165 228 115 207 153 l 208 938 b 167 976 208 967 196 978 l 79 972 b 68 961 71 972 68 965 b 78 868 68 951 57 876 b 74 853 78 865 74 857 l 74 739 b 67 704 71 735 67 708 b 71 618 67 678 74 644 b 64 208 71 501 64 307 b 254 -6 64 110 92 -6 b 454 165 386 -6 433 69 b 458 189 454 169 458 185 b 460 419 458 279 458 340 b 461 525 460 450 461 485 z m 117 1021 l 194 1024 l 204 1033 l 242 1082 l 263 1125 l 288 1082 l 321 1033 l 331 1024 l 408 1021 l 415 1029 l 318 1179 b 304 1188 313 1186 311 1186 l 221 1188 b 207 1179 214 1186 213 1186 l 110 1029 z "},"":{"ha":525,"x_min":0,"x_max":0,"o":"m 457 674 l 461 783 l 461 963 b 442 974 461 974 446 975 b 321 964 413 974 321 981 b 325 949 321 961 321 957 l 325 818 l 329 735 l 325 560 l 325 239 l 321 153 b 289 115 321 142 301 115 l 239 115 b 207 165 228 115 207 153 l 208 938 b 167 976 208 967 196 978 l 79 972 b 68 961 71 972 68 965 b 78 868 68 951 57 876 b 74 853 78 865 74 857 l 74 739 b 67 704 71 735 67 708 b 71 618 67 678 74 644 b 64 208 71 501 64 307 b 254 -6 64 110 92 -6 b 454 165 386 -6 433 69 b 458 189 454 169 458 185 b 460 419 458 279 458 340 b 461 525 460 450 461 485 z m 294 1026 l 410 1026 l 418 1035 b 421 1164 418 1035 418 1090 l 408 1172 l 286 1172 l 282 1158 l 282 1082 l 286 1035 z m 114 1024 l 232 1024 l 242 1032 l 242 1138 l 231 1169 l 108 1169 l 106 1156 l 106 1076 l 104 1032 z "},"":{"ha":476,"x_min":0,"x_max":0,"o":"m 181 3 l 188 -1 l 304 0 l 311 7 l 311 263 b 318 315 311 263 315 301 b 332 390 322 340 329 365 b 339 425 332 394 339 422 b 378 658 353 503 364 581 b 435 958 396 758 413 860 l 435 963 b 424 972 435 965 432 972 l 315 972 l 311 969 l 307 958 b 304 919 307 956 304 924 l 263 638 b 251 557 258 614 258 582 b 244 543 251 554 249 543 b 235 561 235 543 235 557 b 232 582 235 564 232 578 b 179 949 210 681 201 849 b 176 963 179 951 176 963 b 158 972 172 969 165 972 l 49 972 l 42 969 l 42 958 b 53 885 42 935 49 908 b 89 711 64 828 78 768 l 158 372 b 179 267 165 338 176 301 l 179 214 b 178 90 179 196 178 111 b 181 3 181 85 174 8 z m 200 1000 l 286 1003 l 297 1014 l 325 1094 l 361 1222 l 356 1228 l 274 1228 b 258 1218 265 1225 264 1225 l 193 1010 z "},"":{"ha":476,"x_min":0,"x_max":0,"o":"m 181 3 l 188 -1 l 304 0 l 311 7 l 311 263 b 318 315 311 263 315 301 b 332 390 322 340 329 365 b 339 425 332 394 339 422 b 378 658 353 503 364 581 b 435 958 396 758 413 860 l 435 963 b 424 972 435 965 432 972 l 315 972 l 311 969 l 307 958 b 304 919 307 956 304 924 l 263 638 b 251 557 258 614 258 582 b 244 543 251 554 249 543 b 235 561 235 543 235 557 b 232 582 235 564 232 578 b 179 949 210 681 201 849 b 176 963 179 951 176 963 b 158 972 172 969 165 972 l 49 972 l 42 969 l 42 958 b 53 885 42 935 49 908 b 89 711 64 828 78 768 l 158 372 b 179 267 165 338 176 301 l 179 214 b 178 90 179 196 178 111 b 181 3 181 85 174 8 z m 269 1028 l 385 1028 l 393 1036 b 396 1165 393 1036 393 1092 l 383 1174 l 261 1174 l 257 1160 l 257 1083 l 261 1036 z m 89 1025 l 207 1025 l 217 1033 l 217 1139 l 206 1171 l 83 1171 l 81 1157 l 81 1078 l 79 1033 z "},"":{"ha":411,"x_min":0,"x_max":0,"o":"m 60 7 l 67 0 b 133 -3 67 0 113 -3 b 321 -7 193 -7 257 -7 l 349 -7 l 356 -3 l 356 88 b 325 118 356 108 347 118 l 179 118 l 356 849 l 356 922 b 328 979 356 940 356 979 b 310 975 324 979 314 975 l 156 975 l 144 972 l 136 972 l 122 979 l 96 979 b 69 982 92 979 74 982 b 53 954 56 982 53 961 b 49 932 53 947 49 932 l 49 865 l 56 863 l 179 863 b 215 860 182 863 208 860 l 56 133 b 50 113 63 119 53 113 z m 160 1021 l 243 1021 b 257 1029 250 1022 251 1022 l 354 1179 l 347 1188 l 269 1185 l 260 1175 l 222 1126 l 201 1083 l 176 1126 l 143 1175 l 133 1185 l 56 1188 l 49 1179 l 146 1029 b 160 1021 151 1022 153 1022 z "},"":{"ha":715,"x_min":0,"x_max":0,"o":"m 186 -1 b 199 46 203 -1 199 28 b 207 426 199 258 206 383 l 210 433 l 349 433 l 349 536 l 218 536 b 207 556 207 536 207 547 b 214 847 207 588 214 824 l 218 856 l 400 856 l 407 863 l 407 967 l 400 974 l 83 974 l 79 971 b 75 685 79 926 75 729 b 74 621 75 665 74 643 b 60 15 76 538 60 78 b 68 -1 60 11 64 -1 z m 514 0 l 521 -7 l 632 -7 l 640 0 b 639 235 640 0 639 164 b 642 356 639 275 640 315 l 646 490 l 647 865 l 651 911 l 651 967 b 636 981 647 974 643 981 l 525 974 b 514 958 521 974 514 963 l 514 624 l 511 206 l 510 42 z "},"":{"ha":864,"x_min":0,"x_max":0,"o":"m 186 -1 b 199 46 203 -1 199 28 b 207 426 199 258 206 383 l 210 433 l 349 433 l 349 536 l 218 536 b 207 556 207 536 207 547 b 214 847 207 588 214 824 l 218 856 l 400 856 l 407 863 l 407 967 l 400 974 l 83 974 l 79 971 b 75 685 79 926 75 729 b 74 621 75 665 74 643 b 60 15 76 538 60 78 b 68 -1 60 11 64 -1 z m 511 -6 b 801 1 613 -10 722 -7 b 828 33 822 3 831 11 l 819 115 b 807 131 819 119 811 131 l 647 125 b 636 136 643 125 636 132 l 624 825 b 626 929 624 839 628 914 l 626 963 l 615 974 l 511 976 b 497 965 504 976 497 972 b 503 642 497 917 503 694 b 497 306 504 556 497 319 b 507 29 500 231 507 36 z "},"":{"ha":386,"x_min":0,"x_max":0,"o":"m 140 947 l 226 950 l 238 961 l 265 1042 l 301 1169 l 296 1175 l 214 1175 b 199 1165 206 1172 204 1172 l 133 957 z "},"":{"ha":386,"x_min":0,"x_max":0,"o":"m 51 1033 l 129 1036 l 139 1046 l 176 1094 l 197 1138 l 222 1094 l 256 1046 l 265 1036 l 343 1033 l 350 1042 l 253 1192 b 239 1200 247 1199 246 1199 l 156 1200 b 142 1192 149 1199 147 1199 l 44 1042 z "},"":{"ha":386,"x_min":0,"x_max":0,"o":"m 156 1033 l 239 1033 b 253 1042 246 1035 247 1035 l 350 1192 l 343 1200 l 265 1197 l 256 1188 l 218 1139 l 197 1096 l 172 1139 l 139 1188 l 129 1197 l 51 1200 l 44 1192 l 142 1042 b 156 1033 147 1035 149 1035 z "},"":{"ha":386,"x_min":0,"x_max":0,"o":"m 232 1121 b 256 1139 240 1132 246 1139 b 268 1122 261 1139 265 1138 l 268 1071 b 282 1057 268 1061 271 1057 l 329 1058 b 343 1072 338 1058 343 1061 l 343 1140 b 299 1215 340 1181 321 1204 b 268 1217 293 1215 286 1217 b 167 1149 224 1217 200 1192 b 126 1110 153 1132 139 1110 b 118 1126 119 1110 119 1117 l 117 1181 b 103 1194 117 1190 113 1194 l 61 1193 b 47 1179 50 1193 47 1188 l 47 1168 b 46 1115 47 1157 46 1129 b 122 1036 46 1061 81 1036 b 226 1113 171 1036 197 1071 z "},"":{"ha":386,"x_min":0,"x_max":0,"o":"m 232 1043 l 347 1043 l 356 1051 b 358 1181 356 1051 356 1107 l 346 1189 l 224 1189 l 219 1175 l 219 1099 l 224 1051 z m 51 1040 l 169 1040 l 179 1049 l 179 1154 l 168 1186 l 46 1186 l 43 1172 l 43 1093 l 42 1049 z "},"":{"ha":386,"x_min":0,"x_max":0,"o":"m 199 938 l 231 938 b 260 944 244 938 251 942 b 346 1065 333 968 346 1015 b 231 1197 346 1079 324 1197 l 208 1197 b 79 1133 136 1197 110 1169 b 68 1113 74 1126 74 1117 l 63 1063 b 199 938 64 985 107 938 z m 186 1003 b 128 1069 140 1003 128 1061 b 171 1128 128 1093 133 1117 b 186 1133 175 1132 181 1133 l 203 1133 b 229 1132 211 1133 219 1133 b 272 1071 253 1128 272 1100 l 269 1044 b 267 1033 267 1042 267 1035 b 197 1003 249 1015 233 1003 z "},"":{"ha":386,"x_min":0,"x_max":0,"o":"m 121 1040 l 239 1040 l 249 1049 l 249 1154 l 238 1186 l 115 1186 l 113 1172 l 113 1093 l 111 1049 z "},"":{"ha":386,"x_min":0,"x_max":0,"o":"m 124 -135 l 119 -153 l 122 -224 l 139 -232 b 304 -78 258 -232 310 -169 l 299 21 l 206 21 l 206 -62 b 124 -135 203 -153 124 -135 z "},"":{"ha":386,"x_min":0,"x_max":0,"o":"m 131 21 l 125 -78 b 290 -232 119 -169 171 -232 l 307 -224 l 310 -153 l 306 -135 b 224 -62 306 -135 226 -153 l 224 21 z "},"":{"ha":713,"x_min":0,"x_max":0,"o":"m 500 56 l 506 6 l 515 -3 l 639 0 l 650 8 b 649 149 650 8 649 68 l 635 157 l 503 154 l 499 139 z m 65 7 l 75 -1 l 199 -1 l 210 7 b 211 147 210 7 210 67 l 197 156 l 65 156 l 61 140 l 61 57 z m 283 -1 l 293 -10 l 422 -10 l 433 -1 b 433 114 433 -1 432 33 l 421 147 l 289 147 l 285 132 l 285 49 z "},"":{"ha":296,"x_min":0,"x_max":0,"o":"m 97 660 l 229 660 l 233 675 l 233 758 l 229 808 l 219 817 l 96 817 l 85 808 b 83 668 85 808 85 749 z m 86 31 l 86 -136 b 101 -150 90 -143 94 -150 l 213 -154 b 224 -139 217 -154 224 -143 b 228 283 224 115 228 29 b 210 490 228 329 210 483 l 206 532 l 199 539 l 122 539 l 114 532 b 89 268 114 532 89 296 b 86 31 89 192 86 122 z "},"":{"ha":515,"x_min":0,"x_max":0,"o":"m 231 647 l 363 647 l 367 663 l 367 746 l 363 796 l 353 804 l 229 804 l 218 796 b 217 656 218 796 218 736 z m 63 42 b 171 -169 63 -51 79 -126 b 344 -167 224 -196 292 -181 b 404 -137 364 -158 388 -154 b 453 -17 436 -106 444 -61 l 453 147 l 444 154 l 319 154 l 319 -4 b 308 -37 319 -4 313 -29 b 264 -61 300 -57 279 -61 b 207 -17 243 -61 207 -42 l 199 74 b 203 128 199 74 203 124 b 238 203 207 151 222 183 b 354 510 361 360 353 332 l 342 529 l 236 529 l 228 519 b 229 481 229 504 229 485 l 229 474 b 158 319 229 417 207 367 b 63 139 110 271 64 206 z "},"":{"ha":272,"x_min":0,"x_max":0,"o":"m 65 706 l 197 706 l 201 721 l 201 804 l 197 854 l 188 863 l 140 863 l 138 872 l 211 1040 l 203 1056 l 147 1054 l 121 1039 l 53 875 b 51 714 53 875 53 794 z "},"":{"ha":272,"x_min":0,"x_max":0,"o":"m 68 622 l 124 624 l 150 639 l 218 803 b 219 964 218 803 218 883 l 206 972 l 74 972 l 69 957 l 69 874 l 74 824 l 83 815 l 131 815 l 133 806 l 60 638 z "},"":{"ha":456,"x_min":0,"x_max":0,"o":"m 69 694 l 200 693 l 204 708 l 201 803 l 196 853 l 185 860 l 138 858 l 135 868 l 203 1025 l 194 1040 l 139 1050 l 113 1035 l 51 868 b 56 703 51 868 54 783 z m 253 688 l 385 688 l 389 703 l 389 786 l 385 836 l 375 844 l 328 844 l 325 854 l 399 1022 l 390 1038 l 335 1036 l 308 1021 l 240 857 b 239 696 240 857 240 776 z "},"":{"ha":456,"x_min":0,"x_max":0,"o":"m 60 631 l 115 632 l 142 647 l 210 811 b 211 972 210 811 210 892 l 197 981 l 65 981 l 61 965 l 61 882 l 65 832 l 75 824 l 122 824 l 125 814 l 51 646 z m 256 628 l 311 618 l 338 633 l 399 800 b 394 965 399 800 396 885 l 381 974 l 250 975 l 246 960 l 249 865 l 254 815 l 265 808 l 313 810 l 315 800 l 247 643 z "},"":{"ha":272,"x_min":0,"x_max":0,"o":"m 65 7 l 75 -1 l 122 -1 l 125 -11 l 51 -179 l 60 -194 l 115 -193 l 142 -178 l 210 -14 b 211 147 210 -14 210 67 l 197 156 l 65 156 l 61 140 l 61 57 z "},"":{"ha":456,"x_min":0,"x_max":0,"o":"m 65 7 l 75 -1 l 122 -1 l 125 -11 l 51 -179 l 60 -194 l 115 -193 l 142 -178 l 210 -14 b 211 147 210 -14 210 67 l 197 156 l 65 156 l 61 140 l 61 57 z m 249 40 l 254 -10 l 265 -17 l 313 -15 l 315 -25 l 247 -182 l 256 -197 l 311 -207 l 338 -192 l 399 -25 b 394 140 399 -25 396 60 l 381 149 l 250 150 l 246 135 z "},"":{"ha":396,"x_min":0,"x_max":0,"o":"m 296 217 b 307 213 296 217 303 214 b 314 210 310 213 314 210 b 322 213 315 208 322 213 l 322 336 b 311 357 322 346 318 353 l 150 524 l 314 685 b 325 708 314 685 325 694 l 326 826 b 304 833 326 836 313 839 l 71 593 b 51 567 71 593 51 575 b 60 458 51 478 51 467 z "},"":{"ha":393,"x_min":0,"x_max":0,"o":"m 69 221 b 92 214 69 211 83 208 l 325 454 b 344 481 325 454 344 472 b 336 589 344 569 344 581 l 100 831 b 89 835 100 831 93 833 b 82 838 86 835 82 838 b 74 835 81 839 74 835 l 74 711 b 85 690 74 701 78 694 l 246 524 l 82 363 b 71 339 82 363 71 353 z "},"":{"ha":625,"x_min":0,"x_max":0,"o":"m 300 454 l 533 214 b 556 221 542 208 556 211 l 554 339 b 543 363 554 353 543 363 l 379 524 l 540 690 b 551 711 547 694 551 701 l 551 835 b 543 838 551 835 544 839 b 536 835 543 838 539 835 b 525 831 532 833 525 831 l 289 589 b 281 481 281 581 281 569 b 300 454 281 472 300 454 z m 296 217 b 307 213 296 217 303 214 b 314 210 310 213 314 210 b 322 213 315 208 322 213 l 322 336 b 311 357 322 346 318 353 l 150 524 l 314 685 b 325 708 314 685 325 694 l 326 826 b 304 833 326 836 313 839 l 71 593 b 51 567 71 593 51 575 b 60 458 51 478 51 467 z "},"":{"ha":622,"x_min":0,"x_max":0,"o":"m 69 221 b 92 214 69 211 83 208 l 325 454 b 344 481 325 454 344 472 b 336 589 344 569 344 581 l 100 831 b 89 835 100 831 93 833 b 82 838 86 835 82 838 b 74 835 81 839 74 835 l 74 711 b 85 690 74 701 78 694 l 246 524 l 82 363 b 71 339 82 363 71 353 z m 303 213 b 311 210 303 213 310 208 b 318 213 311 210 315 213 b 329 217 322 214 329 217 l 565 458 b 574 567 574 467 574 478 b 554 593 574 575 554 593 l 321 833 b 299 826 313 839 299 836 l 300 708 b 311 685 300 694 311 685 l 475 524 l 314 357 b 303 336 307 353 303 346 z "},"":{"ha":447,"x_min":0,"x_max":0,"o":"m 433 575 l 218 576 b 18 576 214 576 39 574 l 14 571 l 13 483 l 13 476 b 24 456 13 469 13 456 b 232 457 46 456 210 457 b 411 456 246 457 396 456 b 422 457 411 456 418 457 b 429 458 425 458 429 458 b 436 465 432 458 436 465 z "},"":{"ha":1193,"x_min":0,"x_max":0,"o":"m 1065 575 l 331 576 b 131 576 326 576 151 574 l 126 571 l 125 483 l 125 476 b 136 456 125 469 125 456 b 344 457 158 456 322 457 b 1043 456 358 457 1028 456 b 1054 457 1043 456 1050 457 b 1061 458 1057 458 1061 458 b 1068 465 1064 458 1068 465 z "},"":{"ha":390,"x_min":0,"x_max":0,"o":"m 86 374 l 306 374 l 325 389 b 328 638 325 389 325 494 l 303 653 l 68 653 l 61 625 l 61 478 l 68 389 z "},"":{"ha":272,"x_min":0,"x_max":0,"o":"m 75 431 l 199 431 l 210 439 b 211 579 210 439 210 499 l 197 588 l 65 588 l 61 572 l 61 489 l 65 439 z "},"":{"ha":524,"x_min":0,"x_max":0,"o":"m 292 1028 l 219 1028 b 206 1015 210 1025 208 1025 b 201 726 204 976 203 858 b 49 725 167 725 69 725 l 42 718 l 42 646 b 54 632 44 636 44 635 b 201 629 192 625 125 628 b 201 285 200 476 200 329 b 203 151 200 278 203 183 b 206 -71 203 129 206 -49 b 282 -79 201 -87 271 -69 b 301 -58 286 -72 297 -69 b 303 129 301 -40 304 113 b 300 629 303 185 301 433 b 474 632 361 629 457 632 b 482 708 490 628 472 697 b 461 728 475 713 472 724 b 300 729 446 728 350 729 b 301 860 300 781 300 842 b 299 1021 300 885 299 997 z "},"":{"ha":524,"x_min":0,"x_max":0,"o":"m 303 247 l 313 247 b 474 250 338 249 450 250 l 481 257 l 481 329 b 468 343 478 339 478 340 b 303 346 321 349 403 346 l 300 629 b 474 632 361 629 457 632 b 482 708 490 628 472 697 b 461 728 475 713 472 724 b 300 729 446 728 350 729 b 301 860 300 781 300 842 b 299 1021 300 885 299 997 l 292 1028 l 219 1028 b 206 1015 210 1025 208 1025 b 201 726 204 976 203 858 b 49 725 167 725 69 725 l 42 718 l 42 646 b 54 632 44 636 44 635 b 201 629 192 625 125 628 b 200 344 200 513 200 411 b 49 343 140 344 63 343 b 40 267 32 347 50 278 b 61 247 47 263 50 251 b 200 244 74 247 149 246 b 203 151 201 213 203 171 b 206 -71 203 129 206 -49 b 282 -79 201 -87 271 -69 b 301 -58 286 -72 297 -69 b 303 129 301 -40 304 113 z "},"":{"ha":528,"x_min":0,"x_max":0,"o":"m 271 -7 b 329 -4 279 -7 322 -4 b 404 21 360 0 379 7 b 467 183 465 64 467 124 b 388 331 467 250 429 289 l 393 335 b 467 476 442 371 467 417 b 301 690 467 589 385 633 b 196 785 258 718 213 743 b 193 797 196 788 193 797 l 193 843 b 247 874 193 861 228 874 b 290 857 263 874 283 869 b 301 833 294 851 301 833 l 301 761 b 315 747 301 751 306 747 l 422 747 l 431 751 l 431 869 b 383 954 422 901 415 932 b 326 974 368 965 344 968 b 279 985 314 976 279 985 l 189 985 b 157 976 189 985 165 979 b 53 800 68 946 53 865 b 136 654 61 725 104 679 b 139 651 136 653 139 653 b 53 500 75 618 53 557 b 126 369 53 428 101 389 b 219 307 157 344 186 328 b 324 190 310 246 324 228 b 321 154 324 185 321 156 b 267 110 317 118 286 110 b 200 160 236 110 200 128 b 197 193 200 165 197 188 l 197 264 l 190 274 b 88 276 190 274 118 276 l 68 276 l 61 264 l 61 176 b 65 122 61 174 65 129 b 131 26 68 78 83 58 b 251 -7 165 6 200 -7 z m 290 403 b 196 486 250 428 214 449 b 232 583 174 532 194 564 b 329 465 307 531 329 504 b 326 443 329 460 326 444 b 290 403 319 428 304 407 z "},"":{"ha":579,"x_min":0,"x_max":0,"o":"m 285 19 b 292 13 285 19 292 17 b 307 1 296 8 300 1 b 376 -3 332 -3 350 -3 l 401 -3 b 410 38 413 6 410 26 b 413 75 410 46 413 72 l 413 579 b 417 663 413 590 417 651 l 417 968 b 401 975 413 972 406 975 l 249 975 b 56 764 172 975 56 938 b 249 544 56 592 138 544 b 281 542 260 544 271 542 l 285 539 z m 517 965 b 474 963 488 967 475 974 b 460 272 471 868 460 368 b 458 135 458 265 460 168 b 457 21 458 113 456 51 b 488 -6 458 3 461 -11 b 507 21 501 -3 504 7 b 511 125 510 38 513 107 b 522 807 515 214 519 719 b 524 960 522 833 524 936 z "},"":{"ha":432,"x_min":0,"x_max":0,"o":"m 178 583 l 250 579 b 264 593 260 579 264 583 b 264 860 264 708 263 825 b 261 1021 263 885 261 997 l 254 1028 l 182 1028 b 168 1015 172 1025 171 1025 b 164 597 167 963 165 763 b 178 583 164 588 168 583 z m 176 335 b 163 321 167 335 163 331 b 164 285 163 313 164 296 b 165 151 163 278 165 183 b 168 -71 165 129 168 -49 b 244 -79 164 -87 233 -69 b 264 -58 249 -72 260 -69 b 265 129 264 -40 267 113 b 265 322 267 157 265 238 b 251 336 265 332 261 336 z "},"":{"ha":633,"x_min":0,"x_max":0,"o":"m 71 257 b 322 -12 69 110 161 -12 b 564 258 501 -12 564 144 l 563 733 b 326 982 563 888 467 982 b 72 725 158 982 76 850 z m 135 258 l 132 400 b 139 724 132 476 139 697 b 335 922 139 751 156 922 b 501 732 454 922 501 817 b 503 601 501 694 503 607 b 500 257 503 611 500 357 b 321 47 500 165 449 47 b 135 258 210 47 135 146 z m 446 379 b 432 393 446 389 442 393 l 369 393 b 356 379 360 393 356 389 l 356 321 b 313 272 356 299 353 272 b 274 347 274 272 274 317 b 276 628 275 421 276 600 l 276 678 b 313 721 276 700 282 721 b 354 660 347 721 354 703 l 354 603 l 357 600 l 433 601 b 440 625 439 607 440 617 b 308 804 440 697 433 804 b 183 640 201 804 183 700 l 181 333 b 310 179 181 206 283 179 b 446 329 431 179 446 263 z "},"":{"ha":449,"x_min":0,"x_max":0,"o":"m 399 922 b 226 1103 399 1035 333 1103 b 51 914 99 1103 51 1008 l 50 640 b 229 450 49 544 96 450 b 400 642 365 450 400 567 z m 100 726 b 101 922 100 771 101 901 b 231 1054 101 974 118 1054 b 350 922 324 1054 350 988 l 350 642 b 228 497 350 579 331 497 b 99 643 133 497 99 569 z m 208 743 b 207 753 208 743 207 751 b 214 758 207 757 208 758 b 242 731 222 758 242 757 b 244 639 242 719 244 679 b 250 586 244 621 244 601 l 307 586 b 317 590 310 586 317 585 b 313 607 317 596 314 603 b 308 706 308 626 308 665 b 304 746 308 706 304 744 b 282 776 301 764 292 772 b 271 785 275 781 271 776 b 292 803 271 789 286 797 b 308 882 307 819 308 863 b 274 969 308 913 304 950 b 163 976 261 976 194 976 b 142 944 143 976 142 968 b 143 592 142 890 143 724 b 150 588 143 589 147 588 b 157 589 151 588 156 589 b 197 586 160 589 193 586 b 208 589 197 588 208 585 z m 215 813 b 208 815 213 813 210 813 b 206 897 208 831 206 883 b 213 919 206 901 204 919 b 243 901 231 919 238 917 b 242 832 243 860 242 860 b 215 813 235 817 231 813 z "},"":{"ha":608,"x_min":0,"x_max":0,"o":"m 257 589 l 308 588 b 317 590 308 588 315 589 l 317 607 b 308 836 317 679 308 764 l 308 850 l 313 853 b 325 824 325 850 322 832 b 360 681 335 781 350 728 b 375 593 365 654 371 622 l 378 589 l 411 589 b 414 593 411 589 414 590 l 414 603 l 417 610 b 421 631 417 610 421 629 b 428 676 422 646 426 661 b 460 836 436 725 453 788 b 461 844 460 836 461 843 b 465 849 461 849 464 849 b 468 844 467 849 468 849 l 471 824 l 471 599 b 476 588 471 593 471 589 b 533 586 483 588 528 586 l 535 586 b 546 594 540 586 546 590 l 546 607 b 542 725 546 646 546 686 l 536 949 l 535 969 b 531 974 535 971 532 974 l 428 974 b 396 807 417 974 408 807 b 390 813 393 807 393 811 b 365 951 382 854 375 907 b 363 974 365 957 364 969 l 358 975 l 299 975 b 251 974 294 975 257 974 b 246 967 249 972 246 971 l 246 961 b 249 917 246 957 249 919 l 251 635 l 251 610 b 253 593 251 607 251 599 b 257 589 253 593 256 589 z m 106 586 l 160 586 l 164 590 b 165 751 164 607 165 681 l 165 903 b 168 908 165 906 165 908 b 218 907 185 908 200 907 b 225 969 226 919 224 950 l 222 971 b 44 974 196 974 117 974 b 42 969 43 972 42 971 l 42 918 b 50 910 42 917 44 910 l 101 910 b 106 900 108 904 106 904 b 100 592 106 792 100 701 b 106 586 100 590 103 586 z "},"":{"ha":503,"x_min":0,"x_max":0,"o":"m 111 265 b 133 258 117 261 128 251 l 181 317 b 247 296 192 307 204 296 b 325 319 276 296 304 306 l 361 272 b 369 265 361 272 367 269 b 375 263 372 265 375 263 b 386 263 378 260 386 263 l 461 342 l 400 396 b 415 497 407 422 415 456 b 401 608 413 543 408 579 l 442 649 b 447 657 442 649 444 654 b 451 663 449 660 451 663 b 451 672 454 665 451 672 l 372 749 l 326 692 b 256 707 299 706 272 707 b 174 685 206 707 192 697 l 126 746 l 119 746 l 57 685 l 51 679 b 44 657 47 675 36 664 l 104 615 b 85 489 86 589 85 535 b 103 399 85 439 96 414 b 44 340 78 372 50 344 l 46 333 l 106 271 z m 258 592 b 293 525 281 592 296 557 b 253 413 293 494 300 413 b 214 485 228 413 214 433 b 256 592 206 565 233 592 z "},"":{"ha":547,"x_min":0,"x_max":0,"o":"m 194 19 l 206 13 b 303 -7 239 -3 269 -7 b 468 76 375 -7 439 6 b 499 204 488 121 499 156 l 499 288 l 492 292 b 439 294 492 292 454 294 l 386 294 l 382 292 l 382 158 b 367 132 382 158 371 140 b 315 107 356 118 333 107 b 254 174 274 107 258 136 b 253 401 254 210 254 301 l 483 404 b 497 418 493 404 497 408 l 496 444 b 482 458 496 454 492 458 l 435 458 b 253 456 400 458 321 457 b 251 532 253 482 251 507 l 483 535 b 497 549 493 535 497 539 l 496 575 b 482 589 496 585 492 589 l 435 589 b 251 586 400 589 319 588 l 251 760 b 321 865 251 804 261 865 b 383 790 367 865 383 824 l 383 708 l 392 701 l 394 701 b 493 717 414 706 493 690 l 496 771 l 496 808 b 493 835 496 808 493 828 b 485 879 489 846 485 879 b 463 925 482 888 467 921 b 421 967 458 932 429 958 b 321 989 394 985 351 989 b 183 940 257 989 228 978 l 179 936 b 124 756 142 883 124 819 l 124 585 l 56 585 b 42 571 46 585 42 581 l 43 546 b 57 532 43 536 47 532 l 124 532 l 124 454 l 56 454 b 42 440 46 454 42 450 l 43 415 b 57 401 43 406 47 401 l 124 401 l 124 189 b 126 158 124 189 126 167 b 194 19 135 99 150 61 z "},"":{"ha":488,"x_min":0,"x_max":0,"o":"m 135 19 l 146 13 b 236 -7 176 -1 206 -6 l 236 -89 b 264 -97 235 -106 253 -99 b 271 -76 271 -96 269 -87 l 271 -6 b 408 76 331 -3 382 14 b 439 204 428 121 439 156 l 439 343 l 432 347 b 379 350 432 347 394 350 l 326 350 l 322 347 l 322 158 b 307 132 322 158 311 140 b 271 108 299 121 285 113 l 269 710 b 324 638 315 701 324 667 l 324 514 b 338 500 324 504 328 500 l 422 497 b 433 511 432 497 432 504 b 429 535 435 518 429 522 b 436 553 429 542 429 546 l 436 618 b 269 835 426 761 385 828 l 269 914 l 267 921 l 242 921 b 236 908 238 918 238 918 l 236 836 b 124 788 181 835 165 822 l 119 783 b 64 603 82 731 64 667 l 64 189 b 67 158 64 189 67 167 b 135 19 75 99 90 61 z m 236 110 b 194 174 208 117 197 142 b 192 576 194 257 192 494 l 192 607 b 236 711 192 649 188 704 z "},"":{"ha":547,"x_min":0,"x_max":0,"o":"m 44 53 b 74 -4 44 36 44 -4 b 343 0 154 -4 219 3 b 357 3 349 1 357 4 b 375 -4 357 6 368 -1 l 497 -4 b 513 88 526 -4 513 78 l 513 113 l 504 115 l 283 115 b 254 117 281 115 269 117 b 253 346 254 161 254 246 l 428 349 b 442 363 438 349 442 353 l 440 389 b 426 403 440 399 436 403 l 379 403 b 253 401 350 403 300 401 b 251 476 253 426 251 451 l 428 479 b 442 493 438 479 442 483 l 440 519 b 426 533 440 529 436 533 l 379 533 b 251 531 350 533 299 532 l 251 760 b 321 865 251 804 261 865 b 383 790 367 865 383 824 l 383 639 l 392 632 l 394 632 b 493 647 414 636 493 621 l 496 771 l 496 808 b 493 835 496 808 493 828 b 485 879 489 846 485 879 b 463 925 482 888 467 921 b 421 967 458 932 429 958 b 321 989 394 985 351 989 b 183 940 257 989 228 978 l 179 936 b 124 756 142 883 124 819 l 124 529 l 56 529 b 42 515 46 529 42 525 l 43 490 b 57 476 43 481 47 476 l 124 476 l 124 399 l 56 399 b 42 385 46 399 42 394 l 43 360 b 57 346 43 350 47 346 l 124 346 l 124 118 l 58 118 b 44 104 49 118 44 114 z "},"":{"ha":686,"x_min":0,"x_max":0,"o":"m 67 57 b 108 15 72 50 101 24 b 210 -7 135 -3 179 -7 b 346 42 272 -7 303 4 l 351 46 b 407 226 389 99 406 164 b 408 446 408 274 408 360 l 592 449 b 606 463 601 449 606 453 l 604 544 b 590 558 604 554 600 558 l 543 558 b 408 556 513 558 457 557 b 407 729 408 629 407 697 l 407 760 b 476 865 407 804 417 865 b 539 790 522 865 539 824 l 539 639 l 547 632 l 550 632 b 649 647 569 636 649 621 l 651 771 l 651 808 b 649 835 651 808 649 828 b 640 879 644 846 640 879 b 618 925 638 888 622 921 b 576 967 614 932 585 958 b 476 989 550 985 507 989 b 339 940 413 989 383 978 l 335 936 b 279 756 297 883 279 819 b 276 554 276 696 276 625 l 108 554 b 94 540 99 554 94 550 l 96 460 b 110 446 96 450 100 446 l 276 446 b 278 253 278 363 278 289 l 278 222 b 208 117 278 178 268 117 b 146 192 163 115 147 157 l 146 343 l 138 350 l 135 350 b 36 335 115 346 38 361 l 35 211 l 35 174 b 36 147 35 174 36 154 b 44 103 40 136 44 103 z "},"":{"ha":492,"x_min":0,"x_max":0,"o":"m 194 15 b 199 1 194 13 199 1 l 206 -3 l 311 -3 l 318 4 l 318 250 b 461 251 368 250 418 250 b 475 265 471 251 475 256 l 474 292 b 460 306 474 301 469 306 l 413 306 b 322 304 393 306 360 306 b 325 324 322 311 324 318 b 336 381 328 342 333 361 b 461 382 381 381 424 381 b 475 396 471 382 475 386 l 474 422 b 460 436 474 432 469 436 l 346 436 b 385 665 360 514 371 589 b 442 960 403 765 419 863 l 442 964 b 431 975 442 968 439 975 l 322 975 l 318 971 l 314 960 b 311 922 314 957 311 925 b 279 711 300 851 289 782 b 268 631 275 688 275 656 b 261 617 268 628 265 617 b 250 635 250 617 250 631 b 247 656 250 638 247 651 b 186 950 226 754 208 851 b 183 964 186 953 183 964 b 165 975 179 971 172 975 l 56 975 l 49 971 l 49 960 b 60 886 49 936 56 911 b 96 718 71 829 85 775 l 154 432 l 33 432 b 19 418 24 432 19 428 l 21 393 b 35 379 21 383 25 379 l 165 379 b 182 301 169 353 178 326 l 33 301 b 19 288 24 301 19 297 l 21 263 b 35 249 21 253 25 249 l 186 249 l 186 221 b 190 97 186 203 190 118 b 194 24 190 90 194 31 z "},"":{"ha":388,"x_min":0,"x_max":0,"o":"m 240 401 b 256 389 242 392 243 389 b 318 393 258 389 306 389 b 332 408 326 396 332 399 l 331 511 l 331 832 b 208 990 331 889 317 990 b 68 821 82 990 68 889 b 75 799 68 813 69 804 l 164 799 l 167 801 l 167 829 b 194 888 167 869 174 888 b 222 844 221 888 222 865 l 222 825 b 171 747 222 768 196 753 b 56 606 72 721 56 665 l 56 533 b 156 390 56 469 71 390 b 238 450 196 390 218 422 z m 160 604 b 200 668 160 647 175 654 b 225 689 208 674 218 679 l 231 686 l 231 564 b 197 506 231 539 231 506 b 160 542 165 506 160 526 z "},"":{"ha":417,"x_min":0,"x_max":0,"o":"m 361 813 b 201 978 361 936 310 978 b 58 825 82 978 58 883 b 56 603 58 794 56 606 b 206 390 60 524 57 390 b 343 474 282 390 313 426 b 361 568 349 482 361 493 z m 172 676 b 215 868 172 842 176 868 b 253 789 247 868 253 828 b 244 535 253 694 244 581 b 211 500 244 519 236 500 b 172 522 194 500 176 508 z "},"":{"ha":426,"x_min":0,"x_max":0,"o":"m 104 392 l 365 392 b 371 397 368 393 369 397 l 371 485 l 365 489 l 306 493 l 301 503 l 301 508 b 300 564 301 519 300 549 b 306 754 300 636 306 682 l 306 958 b 296 967 303 963 300 967 l 208 969 b 147 926 164 971 181 951 l 124 893 b 56 804 92 853 56 808 b 63 794 56 800 58 797 l 118 749 b 128 744 122 746 125 744 b 138 751 131 744 135 747 b 189 801 151 771 189 822 b 183 546 189 686 183 663 l 183 506 b 154 494 183 499 175 494 l 83 494 l 78 492 l 82 401 b 104 392 82 400 90 392 z "},"":{"ha":401,"x_min":0,"x_max":0,"o":"m 283 392 l 293 390 l 313 390 b 329 388 315 390 326 388 b 343 418 344 388 339 418 l 340 492 l 318 503 l 207 503 b 188 529 185 503 188 517 l 188 533 b 346 786 188 610 322 668 l 346 843 b 188 978 346 919 278 978 b 57 878 99 978 57 929 l 57 781 l 63 776 l 160 776 l 160 842 b 189 875 160 863 172 875 b 222 850 197 875 222 868 l 225 824 b 163 701 225 769 193 739 b 56 465 81 603 56 583 l 57 424 b 75 390 57 414 57 390 b 89 392 78 390 86 392 z "},"":{"ha":408,"x_min":0,"x_max":0,"o":"m 193 383 l 261 383 b 289 393 265 382 278 393 b 351 539 338 421 351 494 b 329 663 351 581 357 629 b 288 700 329 676 288 685 b 317 732 288 704 308 724 b 335 814 335 760 335 781 b 322 928 335 851 329 889 l 317 935 b 240 983 317 950 263 976 b 192 989 240 983 238 985 b 61 879 140 989 63 953 b 64 807 61 856 64 811 b 83 797 64 799 72 797 l 164 797 l 163 849 b 179 892 163 865 157 893 b 215 864 215 890 213 875 b 218 811 215 853 218 824 l 218 782 b 183 754 218 767 211 756 b 122 753 168 753 125 754 l 124 656 b 133 647 125 656 129 647 l 196 647 b 226 604 219 647 226 642 l 226 511 b 193 479 226 489 228 479 b 167 510 167 479 171 500 l 167 600 l 164 601 l 97 601 b 60 600 88 601 60 600 l 56 597 l 56 513 b 75 436 56 483 63 463 b 193 383 96 397 146 383 z "},"":{"ha":64,"x_min":0,"x_max":0,"o":"m 182 1028 l 161 1028 b 135 1015 143 1028 142 1026 b -79 151 61 728 -85 132 b -124 -32 -85 129 -118 -3 b -125 -44 -125 -36 -125 -40 b -100 -65 -125 -57 -119 -65 b -75 -44 -85 -65 -81 -57 b -31 129 -68 -28 -33 113 b 188 1021 56 443 189 1028 z "},"":{"ha":872,"x_min":0,"x_max":0,"o":"m 610 1028 l 589 1028 b 563 1015 571 1028 569 1026 b 349 151 489 728 343 132 b 304 -32 343 129 310 -3 b 303 -44 303 -36 303 -40 b 328 -65 303 -57 308 -65 b 353 -44 343 -65 347 -57 b 397 129 360 -28 394 113 b 615 1021 483 443 617 1028 z m 104 392 l 365 392 b 371 397 368 393 369 397 l 371 485 l 365 489 l 306 493 l 301 503 l 301 508 b 300 564 301 519 300 549 b 306 754 300 636 306 682 l 306 958 b 296 967 303 963 300 967 l 208 969 b 147 926 164 971 181 951 l 124 893 b 56 804 92 853 56 808 b 63 794 56 800 58 797 l 118 749 b 128 744 122 746 125 744 b 138 751 131 744 135 747 b 189 801 151 771 189 822 b 183 546 189 686 183 663 l 183 506 b 154 494 183 499 175 494 l 83 494 l 78 492 l 82 401 b 104 392 82 400 90 392 z m 528 32 b 546 -1 528 22 528 -1 b 560 0 549 -1 557 0 l 754 0 l 764 -1 l 783 -1 b 800 -4 786 -1 797 -4 b 814 26 815 -4 810 26 l 811 100 l 789 111 l 678 111 b 658 138 656 111 658 125 l 658 142 b 817 394 658 218 793 276 l 817 451 b 658 586 817 528 749 586 b 528 486 569 586 528 538 l 528 389 l 533 385 l 631 385 l 631 450 b 660 483 631 471 643 483 b 693 458 668 483 693 476 l 696 432 b 633 310 696 378 664 347 b 526 74 551 211 526 192 z "},"":{"ha":886,"x_min":0,"x_max":0,"o":"m 610 1028 l 589 1028 b 563 1015 571 1028 569 1026 b 349 151 489 728 343 132 b 304 -32 343 129 310 -3 b 303 -44 303 -36 303 -40 b 328 -65 303 -57 308 -65 b 353 -44 343 -65 347 -57 b 397 129 360 -28 394 113 b 615 1021 483 443 617 1028 z m 104 392 l 365 392 b 371 397 368 393 369 397 l 371 485 l 365 489 l 306 493 l 301 503 l 301 508 b 300 564 301 519 300 549 b 306 754 300 636 306 682 l 306 958 b 296 967 303 963 300 967 l 208 969 b 147 926 164 971 181 951 l 124 893 b 56 804 92 853 56 808 b 63 794 56 800 58 797 l 118 749 b 128 744 122 746 125 744 b 138 751 131 744 135 747 b 189 801 151 771 189 822 b 183 546 189 686 183 663 l 183 506 b 154 494 183 499 175 494 l 83 494 l 78 492 l 82 401 b 104 392 82 400 90 392 z m 788 88 l 815 89 b 829 110 835 89 829 93 l 831 171 b 801 183 831 188 821 183 b 783 196 801 183 783 178 l 783 214 b 781 568 781 342 785 440 l 776 574 l 651 574 b 636 549 644 574 638 558 b 522 240 601 449 558 343 b 494 181 513 217 500 194 b 500 89 494 149 492 89 b 658 86 511 89 604 86 b 667 31 674 86 667 50 b 669 -1 664 13 669 -1 b 776 1 686 -1 776 -6 b 785 17 779 1 785 8 b 785 85 786 43 785 57 z m 617 185 b 671 360 628 243 649 301 l 676 364 b 667 194 678 357 669 214 b 658 185 667 192 664 185 z "},"":{"ha":858,"x_min":0,"x_max":0,"o":"m 582 1028 l 561 1028 b 535 1015 543 1028 542 1026 b 321 151 461 728 315 132 b 276 -32 315 129 282 -3 b 275 -44 275 -36 275 -40 b 300 -65 275 -57 281 -65 b 325 -44 315 -65 319 -57 b 369 129 332 -28 367 113 b 588 1021 456 443 589 1028 z m 185 383 l 253 383 b 281 393 257 382 269 393 b 343 539 329 421 343 494 b 321 663 343 581 349 629 b 279 700 321 676 279 685 b 308 732 279 704 300 724 b 326 814 326 760 326 781 b 314 928 326 851 321 889 l 308 935 b 232 983 308 950 254 976 b 183 989 232 983 229 985 b 53 879 132 989 54 953 b 56 807 53 856 56 811 b 75 797 56 799 64 797 l 156 797 l 154 849 b 171 892 154 865 149 893 b 207 864 207 890 204 875 b 210 811 207 853 210 824 l 210 782 b 175 754 210 767 203 756 b 114 753 160 753 117 754 l 115 656 b 125 647 117 656 121 647 l 188 647 b 218 604 211 647 218 642 l 218 511 b 185 479 218 489 219 479 b 158 510 158 479 163 500 l 158 600 l 156 601 l 89 601 b 51 600 79 601 51 600 l 47 597 l 47 513 b 67 436 47 483 54 463 b 185 383 88 397 138 383 z m 760 88 l 788 89 b 801 110 807 89 801 93 l 803 171 b 774 183 803 188 793 183 b 756 196 774 183 756 178 l 756 214 b 753 568 753 342 757 440 l 749 574 l 624 574 b 608 549 617 574 610 558 b 494 240 574 449 531 343 b 467 181 485 217 472 194 b 472 89 467 149 464 89 b 631 86 483 89 576 86 b 639 31 646 86 639 50 b 642 -1 636 13 642 -1 b 749 1 658 -1 749 -6 b 757 17 751 1 757 8 b 757 85 758 43 757 57 z m 589 185 b 643 360 600 243 621 301 l 649 364 b 639 194 650 357 642 214 b 631 185 639 192 636 185 z "},"":{"ha":1189,"x_min":0,"x_max":0,"o":"m 578 1021 l 572 1028 l 542 1028 b 525 1015 532 1025 531 1025 b 343 285 501 924 364 378 b 311 151 340 278 319 183 b 267 -32 306 129 272 -3 b 290 -65 264 -50 264 -65 b 315 -44 306 -65 310 -57 b 360 129 322 -28 357 113 b 540 860 383 215 517 775 z m 213 390 b 350 474 289 390 319 426 b 363 503 356 482 356 494 l 368 568 l 368 869 b 363 890 368 871 365 886 b 276 975 350 922 325 965 b 221 978 258 978 236 978 l 189 978 b 157 968 175 978 167 972 b 65 793 78 936 71 853 b 63 607 65 765 63 635 l 63 600 b 81 471 65 554 69 515 b 139 404 90 443 111 422 b 189 390 150 394 172 390 z m 179 782 b 183 858 179 794 183 846 b 186 865 183 861 186 865 b 201 878 188 867 199 878 b 221 882 201 878 215 882 l 224 882 b 257 854 243 882 257 867 l 257 736 b 254 578 257 711 254 601 b 251 521 254 569 251 529 b 218 486 251 506 243 486 b 179 508 201 486 183 494 z m 971 -21 b 1108 63 1047 -21 1078 15 b 1121 92 1114 71 1114 83 l 1126 157 l 1126 458 b 1121 479 1126 460 1124 475 b 1035 564 1108 511 1083 554 b 979 567 1017 567 994 567 l 947 567 b 915 557 933 567 925 561 b 824 382 836 525 829 442 b 821 196 824 354 821 224 l 821 189 b 839 60 824 143 828 104 b 897 -7 849 32 869 11 b 947 -21 908 -17 931 -21 z m 478 88 b 483 67 478 86 481 71 b 569 -18 496 35 521 -8 b 625 -21 588 -21 610 -21 l 657 -21 b 689 -11 671 -21 679 -15 b 781 164 768 21 783 104 b 779 418 779 272 782 349 b 657 567 774 521 719 567 l 633 567 b 496 483 557 567 526 531 b 483 454 490 475 490 463 l 478 389 z m 938 97 l 938 371 b 942 447 938 383 942 435 b 944 454 942 450 944 454 b 960 467 946 456 957 467 b 979 471 960 467 974 471 l 982 471 b 1015 443 1001 471 1015 456 l 1015 325 b 1013 167 1015 300 1013 190 b 1010 110 1013 158 1010 118 b 976 75 1010 94 1001 75 b 938 97 960 75 942 83 z m 589 103 l 589 221 b 592 379 589 246 592 356 b 594 436 592 388 594 428 b 628 471 594 451 603 471 b 667 449 644 471 663 463 l 667 175 b 663 99 667 163 663 111 b 660 92 663 96 660 92 b 644 79 658 90 647 79 b 625 75 644 79 631 75 l 622 75 b 589 103 603 75 589 90 z "},"":{"ha":483,"x_min":0,"x_max":0,"o":"m 425 575 l 226 575 b 61 576 222 575 82 574 l 57 571 l 56 483 l 56 476 b 67 456 56 469 56 456 b 240 454 89 456 218 454 b 403 456 254 454 388 456 b 414 457 403 456 410 457 b 421 458 417 458 421 458 b 428 465 424 458 428 465 z "},"":{"ha":483,"x_min":0,"x_max":0,"o":"m 192 403 l 301 406 l 301 556 b 403 557 343 556 393 557 b 414 558 403 557 410 558 b 421 560 417 560 421 560 b 428 567 424 560 428 567 l 425 676 l 301 676 b 303 825 301 724 300 808 l 297 829 l 210 831 l 203 831 b 182 819 196 831 182 831 b 181 676 182 804 181 731 b 61 678 138 676 76 675 l 57 672 l 56 585 l 56 578 b 67 557 56 571 56 557 b 181 556 81 557 135 557 b 182 428 181 504 182 438 b 183 417 182 428 183 421 b 185 410 185 414 185 410 b 192 403 185 407 192 403 z m 425 350 l 226 350 b 61 351 222 350 82 349 l 57 346 l 56 258 l 56 251 b 67 231 56 244 56 231 b 240 229 89 231 218 229 b 403 231 254 229 388 231 b 414 232 403 231 410 232 b 421 233 417 233 421 233 b 428 240 424 233 428 240 z "},"":{"ha":483,"x_min":0,"x_max":0,"o":"m 113 321 b 135 314 118 317 128 307 l 243 428 b 343 329 283 388 335 336 b 351 322 343 329 349 326 b 357 319 354 322 357 319 b 368 319 360 317 368 319 l 443 399 l 326 514 l 422 611 b 428 619 422 611 425 617 b 432 625 429 622 432 625 b 432 635 435 628 432 635 l 353 711 l 240 599 b 128 715 200 639 136 703 l 121 715 l 58 654 l 53 649 b 46 626 49 644 39 635 l 158 513 b 46 396 119 471 57 404 l 47 389 l 107 326 z "},"":{"ha":483,"x_min":0,"x_max":0,"o":"m 183 665 l 267 665 l 317 669 l 325 679 l 325 803 l 317 814 b 176 815 317 814 257 814 l 168 801 l 168 669 z m 425 575 l 226 575 b 61 576 222 575 82 574 l 57 571 l 56 483 l 56 476 b 67 456 56 469 56 456 b 240 454 89 456 218 454 b 403 456 254 454 388 456 b 414 457 403 456 410 457 b 421 458 417 458 421 458 b 428 465 424 458 428 465 z m 176 181 l 186 172 l 310 172 l 321 181 b 322 321 321 181 321 240 l 308 329 l 176 329 l 172 314 l 172 231 z "},"":{"ha":483,"x_min":0,"x_max":0,"o":"m 133 153 l 160 151 b 176 165 169 151 175 156 l 219 329 l 240 329 b 403 331 254 329 388 331 b 414 332 403 331 410 332 b 421 333 417 333 421 333 b 428 340 424 333 428 340 l 425 450 l 253 450 b 289 579 265 493 278 536 b 403 581 333 579 393 581 b 414 582 403 581 410 582 b 421 583 417 583 421 583 b 428 590 424 583 428 590 l 425 700 l 322 700 l 358 836 b 349 847 358 839 357 847 l 308 846 l 268 700 l 226 700 b 61 701 222 700 82 699 l 57 696 l 56 608 l 56 601 b 67 581 56 594 56 581 b 235 579 88 581 206 579 l 199 450 b 61 451 165 450 78 449 l 57 446 l 56 358 l 56 351 b 67 331 56 344 56 331 b 167 329 79 331 125 331 l 122 167 b 133 153 121 157 124 153 z "},"":{"ha":607,"x_min":0,"x_max":0,"o":"m 418 563 b 439 544 418 550 425 544 l 506 547 b 526 565 521 547 526 553 l 526 579 b 528 646 526 592 528 629 b 411 749 528 715 474 749 b 250 651 336 749 296 704 l 242 640 b 206 617 229 625 221 617 b 188 638 197 617 190 618 l 188 704 b 167 722 188 717 182 722 l 93 721 b 72 703 79 721 72 715 l 72 615 b 140 518 76 563 106 532 b 186 515 149 517 160 515 b 343 603 254 515 292 547 b 404 653 364 626 386 653 b 417 633 414 653 415 644 z m 364 388 b 400 411 376 403 385 411 b 418 389 408 411 415 408 l 418 324 b 439 306 418 310 424 306 l 513 307 b 533 325 526 307 533 311 l 533 413 b 465 510 529 465 500 494 b 419 511 457 510 446 511 b 263 424 351 511 314 479 b 201 374 242 401 219 374 b 189 394 192 374 190 382 l 188 465 b 167 483 188 476 181 483 l 100 481 b 79 463 85 481 79 475 l 79 449 b 78 381 79 435 78 397 b 194 278 78 311 132 278 b 356 376 269 278 310 324 z "},"":{"ha":483,"x_min":0,"x_max":0,"o":"m 393 369 b 404 365 393 369 400 367 b 411 363 407 365 411 363 b 419 365 413 361 419 365 l 419 475 b 408 496 419 485 415 492 l 160 607 l 411 713 b 422 736 411 713 422 722 l 424 840 b 401 847 424 850 410 853 l 71 676 l 51 650 b 60 542 50 544 50 547 z m 425 307 l 226 307 b 61 308 222 307 82 306 l 57 303 l 56 215 l 56 208 b 67 188 56 201 56 188 b 240 186 89 188 218 186 b 403 188 254 186 388 188 b 414 189 403 188 410 189 b 421 190 417 190 421 190 b 428 197 424 190 428 197 z "},"":{"ha":483,"x_min":0,"x_max":0,"o":"m 418 542 b 426 650 428 547 428 544 l 407 676 l 76 847 b 54 840 68 853 54 850 l 56 736 b 67 713 56 722 67 713 l 318 607 l 69 496 b 58 475 63 492 58 485 l 58 365 b 67 363 58 365 65 361 b 74 365 67 363 71 365 b 85 369 78 367 85 369 z m 422 215 l 421 303 l 417 308 b 251 307 396 306 256 307 l 53 307 l 50 197 b 57 190 50 197 54 190 b 64 189 57 190 61 190 b 75 188 68 189 75 188 b 238 186 90 188 224 186 b 411 188 260 186 389 188 b 422 208 422 188 422 201 z "},"":{"ha":483,"x_min":0,"x_max":0,"o":"m 311 454 b 313 354 311 413 313 363 b 314 343 313 354 314 347 b 315 336 315 340 315 336 b 322 329 315 333 322 329 l 432 332 l 432 531 b 433 575 432 535 431 554 l 428 579 l 226 575 b 61 576 222 575 82 574 l 57 571 l 56 483 l 56 476 b 67 456 56 469 56 456 b 240 454 89 456 218 454 z "},"":{"ha":903,"x_min":0,"x_max":0,"o":"m 447 328 b 447 328 447 328 447 328 l 697 144 l 603 438 b 603 442 603 438 603 438 b 847 619 667 483 847 619 l 847 626 l 547 626 l 454 900 b 447 892 450 900 450 896 l 356 639 b 347 626 356 639 350 626 l 56 626 l 56 624 l 286 444 b 282 421 286 438 282 431 l 196 157 b 199 157 196 157 196 157 b 444 328 196 160 349 264 b 447 328 444 328 444 328 z m 431 486 b 431 486 431 486 431 486 l 257 240 l 333 454 b 431 486 340 474 407 486 z m 451 483 b 613 265 474 450 589 299 l 615 257 l 457 375 b 451 392 451 379 451 385 z m 461 497 l 468 500 b 743 592 560 524 747 593 l 750 592 b 733 582 747 592 736 582 b 572 469 710 564 594 486 b 557 467 569 467 565 467 z m 146 594 b 172 594 154 594 167 594 b 368 592 201 594 339 592 b 435 507 396 568 419 535 l 431 507 z m 451 792 l 511 606 b 451 515 514 575 474 533 z "},"":{"ha":958,"x_min":0,"x_max":0,"o":"m 379 268 b 383 288 389 278 383 288 l 218 465 l 253 465 b 911 467 275 465 889 467 b 922 488 922 467 922 481 l 922 494 l 921 567 l 917 572 b 271 571 896 569 275 571 l 213 571 l 382 750 b 393 771 389 754 393 761 l 346 835 b 338 838 346 835 339 839 b 331 835 338 838 333 835 b 319 831 326 833 319 831 l 51 546 b 46 518 43 538 42 528 b 94 454 49 510 94 454 l 310 214 b 332 221 318 208 325 214 z "},"":{"ha":958,"x_min":0,"x_max":0,"o":"m 632 221 b 654 214 639 214 646 208 l 869 454 b 918 518 869 454 915 510 b 913 546 922 528 921 538 l 644 831 b 633 835 644 831 638 833 b 626 838 631 835 626 838 b 618 835 625 839 618 835 l 571 771 b 582 750 571 761 575 754 l 751 571 l 693 571 b 47 572 689 571 68 569 l 43 567 l 42 494 l 42 488 b 53 467 42 481 42 467 b 711 465 75 467 689 465 l 746 465 l 581 288 b 585 268 581 288 575 278 z "}}}
